<svg width="210" height="265" viewBox="0 0 210 265" fill="none" xmlns="http://www.w3.org/2000/svg">
<g clip-path="url(#clip0_46_647)">
<path d="M201.942 264.133C200.964 263.84 200.311 263.775 199.773 263.465C198.615 262.829 197.522 262.063 196.397 261.363C185.338 254.533 173.741 248.828 161.443 244.591C156.077 242.732 150.613 241.135 145.296 239.163C138.527 236.669 132.149 233.328 126 229.514C114.729 222.521 107.21 212.611 102.725 200.273C100.865 195.155 99.6093 189.89 99.2505 184.446C98.9732 180.225 98.647 176.019 98.5165 171.781C98.3044 164.903 98.3371 158.009 98.0924 151.13C97.9456 146.583 96.8365 142.149 95.6784 137.765C95.2707 136.249 94.7976 134.733 94.3899 133.217C94.2594 132.728 94.2105 132.207 94.1289 131.701C94.3409 131.62 94.5367 131.538 94.7487 131.441C95.972 132.94 97.2932 134.375 98.3697 135.988C100.36 138.922 102.513 141.791 104.029 144.953C111.059 159.541 121.824 170.967 134.286 180.942C141.038 186.369 148.052 191.471 154.772 196.931C167.494 207.216 178.667 218.952 187.426 232.839C190.884 238.315 193.543 244.167 195.989 250.132C197.653 254.158 199.431 258.135 201.143 262.129C201.372 262.634 201.551 263.155 201.942 264.133Z" fill="#F5F1EE"/>
<path d="M201.143 262.129C199.431 258.135 197.636 254.158 195.989 250.132C193.543 244.167 190.884 238.315 187.426 232.839C178.667 218.952 167.494 207.216 154.772 196.931C148.036 191.487 141.038 186.369 134.286 180.942C121.824 170.95 111.059 159.541 104.029 144.953C102.513 141.791 100.36 138.922 98.3697 135.988C97.2932 134.391 95.9557 132.957 94.7487 131.441C94.5367 131.522 94.3409 131.62 94.1289 131.701C94.2105 132.207 94.2594 132.728 94.3899 133.217C94.7976 134.733 95.2707 136.249 95.6784 137.765C96.8365 142.149 97.9293 146.583 98.0924 151.13C98.3208 158.009 98.3044 164.903 98.5165 171.781C98.647 176.003 98.9569 180.225 99.2505 184.446C99.6093 189.89 100.865 195.155 102.725 200.273C107.21 212.611 114.746 222.521 126 229.514C132.149 233.328 138.527 236.653 145.296 239.163C150.613 241.135 156.077 242.732 161.443 244.591C173.741 248.845 185.338 254.549 196.397 261.363C197.522 262.063 198.615 262.813 199.773 263.465C200.311 263.759 200.964 263.84 201.942 264.133C201.551 263.155 201.372 262.634 201.143 262.129ZM182.647 252.447C172.893 247.296 162.552 243.661 152.048 240.418C146.486 238.706 141.153 236.425 135.933 233.849C135.493 233.621 135.069 233.344 134.367 232.937C142.18 234.827 149.683 236.506 157.104 238.478C166.842 241.054 175.356 246.106 183.316 252.121C183.479 252.251 183.593 252.463 184.033 253.001C183.283 252.708 182.941 252.61 182.631 252.447H182.647ZM199.594 262.243C195.549 259.553 191.422 256.994 187.508 254.126C182.81 250.686 178.194 247.15 173.138 244.232C166.059 240.141 158.442 237.582 150.482 235.87C146.29 234.958 142.115 233.996 137.972 232.888C123.798 229.09 113.751 220.288 107.08 207.379C103.622 200.68 101.387 193.623 100.441 186.174C99.9681 182.49 99.7235 178.758 99.6256 175.041C99.3973 167.071 99.4788 159.101 99.1363 151.147C98.9732 147.658 98.0761 144.187 97.5052 140.715C97.4726 140.47 97.4074 140.242 97.5542 139.884C97.7336 140.145 97.9293 140.389 98.0761 140.666C98.2555 140.992 98.386 141.351 98.5165 141.709C101.175 148.588 103.817 155.482 106.525 162.36C110.228 171.765 114.322 181.023 119.802 189.564C127.957 202.261 138.706 212.416 151.151 220.842C158.311 225.7 165.537 230.492 172.616 235.479C176.335 238.103 179.776 241.086 183.544 243.71C182.158 242.488 180.788 241.265 179.401 240.059C171.898 233.507 163.645 227.998 155.327 222.57C144.823 215.724 135.313 207.754 127.272 198.089C120.536 189.988 115.48 180.893 111.386 171.276C107.683 162.572 104.29 153.722 100.751 144.953C99.9192 142.899 99.0384 140.878 98.2066 138.841C98.0272 138.4 97.8804 137.928 98.0272 137.292C98.4186 137.797 98.8427 138.286 99.1689 138.841C100.914 141.774 102.79 144.643 104.323 147.675C109.722 158.318 117.176 167.299 125.984 175.27C132.85 181.48 140.158 187.103 147.563 192.628C158.36 200.696 168.179 209.775 176.857 220.076C184.653 229.334 190.9 239.521 195.206 250.866C196.511 254.289 198.077 257.597 199.512 260.971C199.659 261.314 199.789 261.656 199.92 261.998C199.822 262.096 199.724 262.194 199.626 262.292L199.594 262.243Z" fill="#FAD676"/>
<path d="M92.6284 145.279C92.4164 148.93 92.2043 152.581 92.1717 156.232C92.1228 161.545 92.5958 166.875 92.2206 172.156C91.6335 180.567 89.0074 188.423 84.5057 195.644C80.4117 202.196 75.0618 207.526 68.9453 212.073C62.1438 217.126 55.1138 221.853 48.1981 226.743C45.67 228.519 43.1581 230.345 40.63 232.138C40.2874 232.382 39.896 232.545 39.2109 232.904C39.3904 232.203 39.423 231.795 39.6024 231.437C43.5822 223.271 46.2898 214.714 47.6272 205.733C48.6874 198.691 49.6171 191.634 51.3787 184.723C53.1892 177.535 56.1904 170.917 60.8552 165.099C63.9379 161.252 67.7057 158.188 71.9954 155.792C74.1484 154.586 76.3014 153.396 78.4707 152.255C83.3639 149.679 87.5232 146.273 90.9321 141.905C91.503 141.171 92.1391 140.47 92.7426 139.753C92.8894 139.786 93.0362 139.835 93.183 139.867C92.9872 141.676 92.71 143.469 92.6121 145.279H92.6284Z" fill="#F5F1EE"/>
<path d="M93.1992 139.867C93.0524 139.818 92.9056 139.786 92.7588 139.753C92.1553 140.47 91.5192 141.171 90.9483 141.905C87.5557 146.273 83.3802 149.679 78.487 152.255C76.3013 153.396 74.1483 154.602 72.0116 155.792C67.7219 158.188 63.9542 161.252 60.8714 165.099C56.2066 170.917 53.2217 177.535 51.3949 184.723C49.6497 191.634 48.7037 198.691 47.6435 205.733C46.306 214.714 43.5984 223.271 39.6186 231.437C39.4555 231.795 39.4066 232.203 39.2272 232.904C39.8959 232.545 40.3037 232.382 40.6462 232.138C43.1744 230.345 45.6862 228.519 48.2144 226.743C55.1301 221.853 62.16 217.126 68.9615 212.073C75.078 207.526 80.428 202.196 84.5219 195.644C89.0237 188.423 91.6497 180.567 92.2369 172.156C92.5957 166.875 92.139 161.545 92.188 156.232C92.2206 152.581 92.4326 148.93 92.6446 145.279C92.7425 143.469 93.0198 141.676 93.2155 139.867H93.1992ZM91.2909 168.44C91.2582 180.681 87.0827 191.422 79.3841 200.843C75.3064 205.831 70.3316 209.857 65.1612 213.638C60.7247 216.898 56.1413 219.946 51.6396 223.092C48.9973 224.95 46.3713 226.824 43.7452 228.699C43.2396 229.057 42.7177 229.416 41.8043 230.035C42.0326 229.22 42.0979 228.78 42.261 228.373C44.7565 222.293 46.8606 216.083 48.0676 209.596C48.7526 205.945 49.2093 202.245 49.7965 198.577C51.1177 190.281 52.5204 182.017 56.2718 174.373C60.0722 166.663 65.4874 160.502 73.1208 156.411C73.5122 156.199 73.8874 155.971 74.2788 155.759C79.6614 152.842 85.2233 150.168 89.3173 145.328C89.4314 145.425 89.5456 145.523 89.6598 145.605C89.3336 146.273 89.0237 146.941 88.6975 147.609C84.734 155.466 81.5697 163.648 78.3891 171.83C73.3654 184.723 66.8738 196.833 58.7347 208.047C57.9192 209.156 57.1689 210.313 56.647 211.682C57.0547 211.193 57.4788 210.72 57.8703 210.215C67.3468 197.974 74.7029 184.56 80.167 170.102C83.2171 162.067 86.5118 154.145 90.2959 146.42C90.5895 145.817 90.9157 145.213 91.3398 144.415C91.5029 144.806 91.6008 144.969 91.6008 145.099C91.4866 149.761 91.3235 154.439 91.2582 159.1C91.2093 162.197 91.2909 165.294 91.2909 168.391V168.44Z" fill="#FAD676"/>
<path d="M209.918 98.2715C209.331 103.259 207.227 107.66 204.047 111.425C200.67 115.435 196.984 119.184 193.282 122.9C190.965 125.231 188.454 127.366 185.909 129.452C178.7 135.369 170.267 138.629 161.247 140.519C155.408 141.742 149.52 142.296 143.55 142.051C143.11 142.051 142.669 142.051 142.229 142.051C142.131 142.051 142.05 142.182 141.838 142.345C142.131 142.671 142.392 142.997 142.718 143.274C150.596 150.185 156.126 158.677 159.845 168.407C160.84 170.999 161.916 173.558 162.683 176.231C163.498 179.1 163.596 182.066 162.927 185.033C162.291 187.804 160.693 189.792 158.116 190.998C153.01 193.378 147.889 193.394 142.718 191.161C139.782 189.89 137.189 188.081 134.759 186.076C130.844 182.849 126.75 179.882 122.314 177.421C116.768 174.324 112.756 169.825 109.836 164.267C107.389 159.606 105.579 154.7 103.736 149.794C102.301 145.963 100.604 142.214 98.8427 138.514C97.9945 136.722 96.7875 135.059 95.1239 133.592C94.9118 134.489 94.7161 135.206 94.5856 135.939C94.0963 138.71 92.7751 141.008 90.7526 142.964C86.7565 146.843 81.9285 149.011 76.546 150.038C66.3029 151.961 56.4349 150.103 46.779 146.778C39.113 144.138 32.4745 139.818 26.9942 133.82C23.9441 130.463 21.4159 126.746 20.5188 122.215C20.2089 120.634 20.16 118.939 20.3394 117.325C20.6004 114.978 22.8349 113.136 25.3794 112.941C26.7658 112.843 28.1685 112.827 29.5549 112.908C34.758 113.202 39.8796 112.582 45.1806 111.621C44.7239 111.392 44.414 111.181 44.0551 111.066C33.2575 107.595 24.4823 101.173 17.273 92.5504C10.4062 84.3193 5.02367 75.2243 1.87571 64.9068C0.0815329 58.9575 -0.277302 52.8453 0.179397 46.7004C0.342504 44.4348 0.897067 42.2181 2.08775 40.2133C4.07765 36.8557 6.96464 36.1059 10.2431 38.2248C11.5643 39.0724 12.7223 40.1807 13.8804 41.2402C17.7297 44.8097 21.5138 48.4282 25.3631 52.014C30.1421 56.4637 33.9425 61.6143 36.5033 67.6451C37.172 69.1935 37.8408 70.7419 38.5258 72.3067C38.64 72.2578 38.7542 72.2252 38.8683 72.1926C38.591 70.3345 38.2648 68.4926 38.0039 66.6345C37.3025 61.5002 36.7969 56.3659 37.2536 51.1665C37.645 46.6352 37.906 42.104 38.1017 37.5565C38.3301 32.4548 38.3953 27.3369 38.6237 22.2352C38.7215 19.9044 38.9662 17.5736 39.2924 15.2754C39.4066 14.4441 39.8633 13.5965 40.3689 12.8957C41.2171 11.7221 42.2609 11.6406 43.2396 12.7164C43.9083 13.4498 44.5444 14.33 44.838 15.2591C45.8167 18.2418 46.8932 21.2409 47.4314 24.3215C48.5242 30.4663 49.3235 36.6438 50.1716 42.8212C50.5631 45.6899 50.8077 48.5749 51.0687 51.1176C51.9984 47.1568 52.814 42.8375 54.0699 38.6486C56.4023 30.8249 59.3709 23.2294 63.9378 16.3837C66.9227 11.8851 70.299 7.71248 74.8334 4.63191C77.4268 2.87159 80.118 1.42095 83.4291 1.66544C84.6361 1.74693 85.68 2.10552 86.4792 2.96938C88.9258 5.56097 91.0625 8.33186 91.7149 11.9992C92.2858 15.2265 92.2206 18.3885 91.3235 21.5343C91.0299 22.5449 90.8015 23.588 90.5079 24.729C91.2256 24.7942 91.7802 24.8431 92.0248 24.8594C94.1941 23.5228 96.1188 22.333 98.0108 21.1594C99.7235 18.2418 101.387 15.2754 103.181 12.3904C105.546 8.59265 108.662 5.44688 112.266 2.80639C114.566 1.17646 117.013 0.133301 119.883 0.133301C121.4 0.133301 122.705 0.557083 124.01 1.30685C126.424 2.69229 128.887 3.96364 131.301 5.34908C133.16 6.42484 135.003 7.51689 136.749 8.77194C139.929 11.0538 142.082 14.1344 143.257 17.867C144.056 20.3934 144.822 22.9197 145.622 25.4461C145.736 25.7884 145.915 26.1144 146.16 26.6849C146.551 25.8699 146.812 25.2342 147.155 24.6475C148.264 22.8056 149.259 20.8986 150.548 19.2035C152.064 17.1661 154.201 15.9762 156.762 15.5199C159.763 14.982 163.107 16.3348 164.509 19.0405C165.325 20.5889 165.782 22.3167 166.402 23.9629C167.168 25.9677 167.755 28.054 168.734 29.9448C170.822 34.0522 171.996 38.4041 172.502 42.9516C172.779 45.3802 172.893 47.8414 173.105 50.5308C173.382 50.0255 173.595 49.6669 173.807 49.292C174.736 47.6458 175.519 45.9018 176.628 44.3696C178.015 42.4626 179.858 42.2181 181.75 43.6199C182.745 44.3533 183.626 45.3313 184.343 46.3419C186.806 49.8951 187.948 53.9536 188.47 58.2078C189.905 69.7803 186.708 80.4726 182.158 90.8716C179.173 97.6847 175.177 103.895 170.495 109.681C170.186 110.072 169.876 110.463 169.549 110.855C169.598 110.92 169.631 111.001 169.68 111.066C169.99 110.887 170.332 110.724 170.626 110.512C172.844 108.931 174.997 107.252 177.264 105.785C181.195 103.243 185.077 100.684 188.617 97.5706C192.417 94.2292 196.886 91.9799 201.926 91.0835C203.084 90.8716 204.356 90.8064 205.498 91.0346C208.989 91.7192 210.375 94.653 209.951 98.2715H209.918Z" fill="#F5F1EE"/>
<path d="M205.466 91.0183C204.324 90.7901 203.052 90.8716 201.894 91.0672C196.854 91.9636 192.385 94.2129 188.584 97.5543C185.045 100.667 181.163 103.226 177.232 105.769C174.948 107.252 172.795 108.915 170.593 110.496C170.3 110.708 169.957 110.871 169.647 111.05C169.598 110.985 169.566 110.903 169.517 110.838C169.827 110.447 170.137 110.056 170.463 109.665C175.128 103.878 179.14 97.6684 182.125 90.8553C186.676 80.4563 189.889 69.764 188.437 58.1915C187.915 53.9536 186.774 49.8951 184.311 46.3256C183.609 45.2987 182.712 44.337 181.717 43.6036C179.825 42.2018 177.982 42.4463 176.596 44.3533C175.487 45.8692 174.704 47.6132 173.774 49.2757C173.562 49.6506 173.35 50.0255 173.073 50.5145C172.861 47.8251 172.746 45.3639 172.469 42.9353C171.947 38.3878 170.789 34.0359 168.701 29.9284C167.739 28.0377 167.136 25.9514 166.369 23.9466C165.749 22.3004 165.292 20.5726 164.477 19.0242C163.058 16.3185 159.731 14.9657 156.729 15.5036C154.169 15.9599 152.048 17.1498 150.515 19.1872C149.243 20.8986 148.231 22.8056 147.122 24.6312C146.78 25.2179 146.519 25.8536 146.127 26.6686C145.883 26.0981 145.703 25.7721 145.589 25.4298C144.79 22.9034 144.023 20.377 143.224 17.8507C142.05 14.1181 139.897 11.0375 136.716 8.75564C134.971 7.50059 133.128 6.40854 131.268 5.33278C128.871 3.94734 126.391 2.67599 123.978 1.29055C122.705 0.557083 121.4 0.133301 119.884 0.133301C117.013 0.133301 114.566 1.17646 112.348 2.80639C108.743 5.44688 105.628 8.59265 103.263 12.3904C101.469 15.2754 99.8051 18.2581 98.0925 21.1594C96.2004 22.333 94.2758 23.5228 92.1064 24.8594C91.8455 24.8431 91.3072 24.7942 90.5895 24.729C90.8831 23.588 91.1115 22.5449 91.4051 21.5343C92.3022 18.3722 92.3674 15.2265 91.7965 11.9992C91.1441 8.31556 89.0074 5.56097 86.5608 2.96938C85.7616 2.12182 84.7177 1.74693 83.5107 1.66544C80.1996 1.43725 77.5084 2.87159 74.915 4.63191C70.3806 7.71248 67.0043 11.8851 64.0195 16.3837C59.4525 23.2294 56.4839 30.8249 54.1515 38.6486C52.8956 42.8538 52.0963 47.1731 51.1503 51.1176C50.873 48.5749 50.6447 45.6899 50.2532 42.8212C49.4051 36.6438 48.6059 30.45 47.513 24.3215C46.9585 21.2409 45.8983 18.2418 44.9196 15.2591C44.6261 14.33 43.9736 13.4498 43.3212 12.7164C42.3589 11.6406 41.315 11.7221 40.4505 12.8957C39.9449 13.5965 39.4882 14.4441 39.374 15.2754C39.0478 17.5736 38.8031 19.9044 38.7053 22.2352C38.4769 27.3369 38.4117 32.4548 38.1833 37.5565C37.9713 42.0877 37.7266 46.6352 37.3352 51.1665C36.8948 56.3659 37.3841 61.5002 38.0855 66.6345C38.3464 68.4926 38.6563 70.3507 38.9499 72.1926C38.8358 72.2415 38.7216 72.2741 38.6074 72.3067C37.9387 70.7582 37.2536 69.2098 36.5849 67.6451C34.0241 61.6143 30.2237 56.4637 25.4447 52.014C21.5954 48.4445 17.8113 44.8097 13.962 41.2402C12.8039 40.1644 11.6296 39.0724 10.3247 38.2248C7.04625 36.1059 4.15926 36.872 2.16936 40.2133C0.978679 42.2181 0.424116 44.4348 0.26101 46.7004C-0.195689 52.8453 0.179456 58.9412 1.97363 64.8742C5.10528 75.1916 10.5041 84.2867 17.3709 92.5178C24.5639 101.156 33.3554 107.562 44.153 111.034C44.5119 111.148 44.8218 111.36 45.2785 111.588C39.9775 112.566 34.856 113.169 29.6529 112.876C28.2664 112.794 26.8637 112.81 25.4773 112.908C22.9329 113.104 20.6983 114.946 20.4373 117.293C20.2579 118.906 20.3068 120.602 20.6167 122.183C21.5138 126.714 24.042 130.43 27.0921 133.788C32.5725 139.786 39.2109 144.105 46.8769 146.746C56.5328 150.071 66.4008 151.929 76.6439 150.005C82.0428 148.995 86.8707 146.811 90.8505 142.932C92.873 140.976 94.1942 138.677 94.6835 135.907C94.814 135.173 95.0097 134.456 95.2218 133.559C96.8855 135.026 98.0925 136.673 98.9406 138.482C100.702 142.182 102.382 145.931 103.834 149.761C105.677 154.667 107.487 159.589 109.934 164.235C112.854 169.809 116.866 174.308 122.412 177.388C126.848 179.85 130.942 182.816 134.857 186.043C137.303 188.064 139.88 189.874 142.816 191.129C147.971 193.362 153.092 193.362 158.214 190.966C160.791 189.76 162.389 187.787 163.025 185C163.71 182.034 163.612 179.067 162.781 176.198C162.014 173.542 160.938 170.966 159.943 168.375C156.224 158.644 150.694 150.136 142.816 143.241C142.506 142.964 142.245 142.638 141.936 142.312C142.148 142.149 142.229 142.035 142.327 142.019C142.767 142.003 143.208 141.986 143.648 142.019C149.618 142.263 155.506 141.709 161.345 140.487C170.365 138.596 178.798 135.336 186.007 129.419C188.551 127.333 191.063 125.198 193.379 122.867C197.082 119.151 200.752 115.386 204.145 111.392C207.325 107.627 209.413 103.226 210.016 98.2389C210.44 94.6204 209.054 91.6866 205.564 91.002L205.466 91.0183ZM175.911 48.1837C175.911 47.9392 176.009 47.6947 176.074 47.4502C176.514 45.7877 177.281 44.2229 179.059 43.8481C180.739 43.4895 181.864 44.7934 182.81 45.9833C185.028 48.7542 186.219 52.014 186.969 55.4369C188.437 62.25 187.883 68.9979 186.252 75.6806C182.484 91.0998 175.03 104.465 163.547 115.451C160.693 118.189 157.3 120.373 154.136 122.802C153.81 123.046 153.418 123.193 153.059 123.389C152.994 123.307 152.929 123.209 152.864 123.128C153.859 122.199 154.87 121.286 155.881 120.357C165.227 111.849 171.915 101.678 174.851 89.3068C175.666 85.9003 176.188 82.3307 176.221 78.8427C176.27 72.9749 175.715 67.1072 175.617 61.2394C175.552 56.8875 175.813 52.5356 175.943 48.1837H175.911ZM174.753 50.0744C174.753 51.0361 174.753 51.688 174.753 52.3237C174.736 54.5241 174.704 56.7245 174.704 58.9412C174.704 59.1857 174.769 59.4465 174.785 59.691C175.014 64.9394 175.372 70.1715 175.421 75.4035C175.487 83.4391 174.019 91.1976 170.642 98.5812C165.162 110.561 156.55 119.754 145.703 127.007C141.772 129.631 137.369 131.245 132.736 132.109C130.534 132.516 128.202 132.777 126.033 131.75C125.755 131.62 125.511 131.424 124.858 131.017C130.273 129.599 134.596 127.023 138.624 123.959C142.506 121.009 146.046 117.651 149.161 113.87C149.553 113.381 149.977 112.892 150.45 112.484C161.476 103.21 168.147 91.4095 170.985 77.3758C172.225 71.2309 172.42 64.972 172.485 58.7293C172.518 55.5021 173.171 53.0409 174.769 50.0744H174.753ZM146.437 28.1681C147.758 25.2342 148.982 22.2352 151.184 19.7903C153.027 17.7366 155.212 16.3185 158.099 16.4163C160.693 16.4978 162.764 17.5247 163.857 20.0022C164.444 21.3224 164.819 22.7242 165.341 24.077C166.206 26.31 166.956 28.5919 168.016 30.7271C169.762 34.2804 170.789 38.0292 171.409 41.9084C172.224 46.9286 172.273 51.9325 171.523 56.9853C171.115 59.7725 171.458 62.6738 171.393 65.5099C171.115 77.9299 167.641 89.372 160.709 99.7221C158.638 102.819 156.224 105.655 153.581 108.296C153.467 108.23 153.353 108.165 153.239 108.116C153.549 107.578 153.842 107.041 154.152 106.503C157.953 99.8851 160.84 92.909 162.34 85.4113C163.4 80.114 163.612 74.8005 163.025 69.4054C162.34 63.0813 160.791 57.0016 158.311 51.1665C155.734 45.0705 152.113 39.7243 146.829 35.7962C146.633 33.4654 146.437 31.4606 146.291 29.4558C146.258 29.032 146.258 28.5267 146.421 28.1518L146.437 28.1681ZM146.209 36.5949C150.531 39.8547 153.745 44.0437 156.126 48.8846C159.225 55.1761 161.28 61.7773 161.9 68.7534C162.226 72.4534 162.438 76.2185 162.177 79.9021C161.802 85.1342 160.35 90.187 158.475 95.1094C153.728 107.562 146.16 117.831 134.987 125.279C132.084 127.219 129.001 128.784 125.674 129.892C123.782 130.528 122.118 130.267 120.308 129.045C120.764 128.849 121.042 128.702 121.351 128.604C127.794 126.763 132.769 122.72 137.14 117.863C145.181 108.948 149.846 98.353 152.358 86.7479C153.516 81.418 153.875 76.0066 153.141 70.5626C152.766 67.8244 152.456 65.0698 151.918 62.3478C151.053 57.9633 149.161 53.9536 146.715 50.2374C145.785 48.8357 144.611 47.548 143.371 46.3745C141.414 44.5326 139.032 43.8644 136.374 44.5978C136.08 44.6793 135.786 44.7445 135.379 44.8423C134.335 42.5441 133.389 40.3926 135.379 38.127C135.786 37.6543 135.868 36.8557 136.031 36.1874C136.455 34.4108 137.091 33.8729 138.902 33.824C141.707 33.7425 144.056 34.9323 146.209 36.5623V36.5949ZM115.692 41.2076C116.801 40.4252 118.04 39.5124 119.313 39.3169C124.173 38.5671 128.854 39.2843 133.16 41.6803C133.585 42.9516 133.992 44.1415 134.433 45.4291C133.014 46.9123 131.627 48.5586 130.045 49.9766C126.571 53.0735 124.108 56.8223 122.412 61.1253C121.727 62.8694 121.025 64.5971 120.128 66.3411C119.655 62.7879 119.182 59.2835 118.057 55.9096C116.931 52.5356 115.349 49.3898 113.294 46.4397C113.963 44.5978 113.963 42.4626 115.708 41.2239L115.692 41.2076ZM112.511 45.0216C111.516 44.06 110.668 43.245 109.82 42.4137C107.129 39.7732 103.997 38.29 100.131 38.5019C98.3697 38.5997 96.5919 38.3715 94.8303 38.4041C93.7701 38.4041 92.6773 38.5182 91.6497 38.779C90.6874 39.0235 89.7903 39.5124 88.567 40.0177C88.8606 39.4146 88.9748 38.9257 89.2684 38.616C90.6548 37.1816 92.0086 35.6658 93.5581 34.3945C95.2218 33.0253 96.9181 31.7377 97.913 29.5373C99.3647 30.4663 100.621 31.3139 101.909 32.0963C103.981 33.335 106.166 34.1989 108.662 34.3293C111.532 34.4923 113.653 36.8557 113.669 39.708C113.669 41.5336 113.278 43.2776 112.511 45.0216ZM122.868 32.5689C123.961 32.0963 124.858 32.6341 125.739 33.0742C127.256 33.8403 128.724 34.7041 130.224 35.4865C131.611 36.2037 132.997 36.8883 134.384 37.5891C133.992 38.4367 133.568 39.3332 133.177 40.1481C130.208 39.3495 127.272 38.5508 123.847 37.638C122.852 36.3341 122.444 34.5738 122.868 32.5526V32.5689ZM126.016 56.317C128.235 52.4378 131.823 49.6669 135.02 46.6352C136.961 44.7934 139.522 44.9564 141.838 46.5374C143.746 47.8577 145.149 49.6343 146.356 51.5902C149.748 57.0505 151.608 63.0161 152.081 69.4217C152.228 71.4917 152.358 73.578 152.423 75.648C152.619 82.4122 151.282 88.932 148.998 95.2724C146.127 103.259 142.311 110.659 136.569 116.999C132.002 122.052 126.783 126.111 120.128 128.083C119.068 128.409 118.089 128.523 117.013 128.132C113.343 126.86 109.494 126.404 105.661 126.306C103.23 126.241 100.8 126.844 98.3534 127.154C98.0598 127.186 97.7662 127.203 97.1464 127.268C98.0272 125.801 98.7449 124.546 99.5115 123.34C104.78 114.995 109.428 106.323 113.359 97.2609C116.442 90.1544 118.448 82.7545 119.329 75.0613C120.112 68.2807 122.673 62.1359 126.016 56.317ZM99.8703 20.0022C102.969 14.1507 106.46 8.62524 111.777 4.46892C113.898 2.80639 116.132 1.48614 118.889 1.14386C120.471 0.948267 121.873 1.25795 123.244 2.02402C125.951 3.52356 128.642 5.0231 131.399 6.45743C136.83 9.27722 140.924 13.1891 142.735 19.2687C143.795 22.773 145.002 26.2285 145.459 29.8633C145.654 31.4117 145.622 32.9764 145.72 34.9649C144.855 34.3945 144.186 34.1663 143.893 33.7099C141.642 30.0425 138.2 27.7769 134.514 25.9677C128.039 22.7893 121.188 20.4911 114.061 19.3176C110.016 18.6493 105.873 18.9916 101.86 20.1489C101.208 20.3445 100.539 20.4585 99.7888 20.6378C99.8377 20.3282 99.8214 20.1489 99.8866 20.0022H99.8703ZM95.7763 23.7347C100.327 21.1105 105.269 20.1163 110.472 20.1326C113.212 20.1326 115.871 20.54 118.481 21.3061C123.57 22.8056 128.626 24.3215 133.454 26.5708C136.178 27.8421 138.527 29.6188 140.778 31.5747C141.202 31.9333 141.528 32.3896 142.197 33.1394C138.902 32.7482 135.721 32.0637 134.938 36.4482C134.09 36.1548 133.356 36.0081 132.72 35.6658C130.975 34.7693 129.23 33.8729 127.566 32.8623C124.858 31.1998 122.069 30.939 119.035 31.8844C116.997 32.52 114.876 32.8786 112.788 33.3024C109.559 33.9707 106.492 33.3676 103.622 31.8844C102.007 31.0531 100.49 29.9936 98.9569 28.9994C98.5328 28.7223 98.0272 28.4126 97.8478 27.9888C97.1628 26.31 95.8416 25.4624 93.8027 25.0224C94.6346 24.4682 95.1728 24.0607 95.7437 23.7184L95.7763 23.7347ZM93.6233 26.1144C95.287 26.4241 96.4451 27.125 96.9018 29.3906C96.2167 30.2218 95.5643 31.4769 94.5367 32.1778C90.9973 34.5901 88.5344 37.8825 86.0226 41.2565C81.7002 47.0427 77.4431 52.829 74.7519 59.6095C71.9464 66.6671 70.3154 73.8877 70.2828 81.5321C70.2501 92.1103 72.0117 102.265 76.7092 111.8C79.3515 117.179 82.9398 121.905 87.0501 126.257C87.3763 126.616 87.7026 126.991 87.8657 127.61C87.2785 127.301 86.6913 127.023 86.1204 126.681C81.113 123.715 76.0078 120.928 71.1635 117.7C68.7822 116.119 66.8086 113.87 64.8839 111.686C59.0773 105.117 55.913 97.2935 54.3309 88.7527C53.5969 84.7756 53.1729 80.766 53.2218 76.7075C53.3033 70.8071 54.1515 65.0209 56.0109 59.3976C58.5228 51.7695 62.2742 44.7934 67.461 38.6486C72.5499 32.6015 78.8132 28.2496 86.6587 26.5056C88.9422 26.0003 91.242 25.6743 93.607 26.0981L93.6233 26.1144ZM75.0292 6.63673C76.9375 4.43632 79.2373 2.83899 82.3037 2.65969C84.0327 2.5619 85.3049 3.11608 86.4303 4.46892C88.2082 6.55523 89.8719 8.62524 90.5406 11.3798C91.2746 14.3789 91.4703 17.3454 90.5895 20.3445C90.1328 21.9092 89.7577 23.4739 89.3336 25.0387C83.315 25.7232 78.2097 28.054 73.5449 31.4769C69.4183 34.5086 66.0257 38.2411 63.2692 42.5441C61.5892 45.152 60.1212 47.874 58.5717 50.5471C58.2618 51.0687 57.9845 51.6065 57.6909 52.1281C57.5604 52.0955 57.4136 52.0629 57.2831 52.0303C57.4626 49.7973 57.5278 47.548 57.8377 45.3313C58.8327 37.8499 60.8389 30.6456 63.8237 23.7184C66.5639 17.3943 70.5111 11.8362 75.0129 6.66933L75.0292 6.63673ZM52.1779 51.688C53.4991 41.7129 56.7449 32.3244 61.1488 23.3109C63.6606 18.1603 66.9228 13.515 70.8862 9.37501C71.0494 9.19572 71.2614 9.04903 71.4408 8.88603C71.5224 8.93493 71.6039 9.00013 71.6855 9.06533C70.7231 10.3856 69.7771 11.7221 68.7985 13.0424C63.3507 20.3933 60.3006 28.7875 58.2618 37.5891C56.9896 43.1309 56.3045 48.7705 56.3045 54.4752C56.3045 55.1598 56.174 55.8607 55.9457 56.5126C53.4338 63.5376 52.1942 70.7745 52.1942 78.2396C51.9169 72.9097 51.4765 67.5799 51.4113 62.25C51.3624 58.7293 51.7049 55.1924 52.1616 51.7043L52.1779 51.688ZM40.3363 19.6273C40.4831 17.4432 40.9072 15.2754 41.8859 13.2868C42.049 13.2379 42.2284 13.1891 42.3915 13.1565C42.8808 13.9388 43.5496 14.656 43.8268 15.4873C44.7729 18.4211 45.8494 21.3387 46.4039 24.3541C47.5783 30.9227 48.6059 37.5076 49.4214 44.1252C49.9596 48.4282 50.0575 52.7964 50.2859 57.132C50.4653 60.7831 50.5305 64.4504 50.6447 68.1014C50.661 68.7697 50.6447 69.438 50.6447 70.5137C49.4214 64.4178 48.4428 58.7293 47.089 53.1061C45.9146 48.2815 44.414 43.5221 42.8808 38.7953C40.842 32.5363 39.9286 26.1633 40.369 19.611L40.3363 19.6273ZM38.2975 49.9929C38.7379 45.5432 38.901 41.0609 39.2109 36.5949C39.3251 34.8345 39.5371 33.0742 39.7329 30.8738C40.0917 32.357 40.3037 33.4328 40.6136 34.4923C42.3589 40.5393 44.3162 46.5538 45.833 52.6497C47.1868 58.1426 48.1655 63.7332 49.1278 69.3076C50.2532 75.8762 50.873 82.5589 52.2595 89.0624C53.7274 95.957 56.8754 102.281 60.7573 108.149C62.209 110.349 64.1989 112.191 65.9441 114.18C66.3519 114.652 66.7923 115.109 67.2163 115.565C64.8513 115.141 62.7146 114.424 60.8715 112.843C53.809 106.829 48.9973 99.3146 45.7189 90.7412C42.995 83.6021 40.5647 76.3815 39.3251 68.8186C38.3138 62.5923 37.6614 56.3333 38.2975 49.9766V49.9929ZM39.2109 108.279C31.5449 104.645 24.8901 99.7384 19.3282 93.3654C11.6785 84.5963 5.75771 74.8331 2.5445 63.5702C1.35382 59.365 0.782951 55.0294 0.880815 50.6775C0.929747 48.1185 1.43538 45.5432 2.00625 43.0331C2.26722 41.8595 3.0012 40.7023 3.76781 39.7243C5.12159 37.9477 6.85052 37.6217 8.82412 38.6323C9.70489 39.0887 10.553 39.6917 11.3196 40.3437C12.5919 41.4684 13.7663 42.7234 15.0222 43.8807C17.6482 46.3419 20.209 48.8846 22.9492 51.2154C28.348 55.7792 32.4909 61.2394 35.541 67.6288C38.9173 74.7027 41.6412 82.0211 44.1857 89.4046C47.3173 98.4508 52.0963 106.454 59.4361 112.778C59.5666 112.892 59.6645 113.071 59.9255 113.43C52.7325 112.093 45.7189 111.36 39.2109 108.279ZM85.1744 145.865C81.896 147.74 78.3239 148.913 74.6214 149.305C61.2956 150.739 48.9158 147.805 37.4004 141.025C36.3892 140.422 35.4595 139.704 34.2198 138.857C36.6338 139.232 38.6727 139.46 40.6789 139.867C43.5985 140.47 46.4855 139.916 49.3562 139.607C53.0097 139.215 56.647 138.775 60.3169 139.036C63.628 139.264 66.727 140.421 69.7934 141.562C72.9903 142.752 76.1383 144.089 79.5635 144.464C81.7492 144.708 83.9511 144.757 86.3651 144.904C85.9084 145.262 85.5822 145.621 85.1744 145.849V145.865ZM93.8843 134.603C93.4439 137.015 92.3837 139.085 90.6711 140.894C87.9472 143.73 84.5546 144.073 81.0315 143.535C77.541 142.997 74.1321 142.133 70.8047 140.845C67.9993 139.77 65.0633 138.792 62.1111 138.351C59.2078 137.911 56.2066 138.042 53.2544 138.188C50.2369 138.335 47.2521 138.938 44.2346 139.085C38.7542 139.346 33.6 138.026 29.4082 134.44C24.8901 130.56 21.6769 125.752 21.3018 119.558C21.0734 115.989 22.8839 114.147 26.456 113.968C28.0381 113.886 29.6202 113.968 31.1208 113.968C35.068 114.277 38.8521 113.511 42.6688 113.055C46.6812 112.566 50.7263 112.713 54.7387 113.446C63.7748 115.109 71.8975 118.923 79.5635 123.812C83.5596 126.355 87.5068 128.963 91.927 130.789C94.1127 131.685 94.3573 132.353 93.9332 134.619L93.8843 134.603ZM93.7864 130.463C92.7752 129.794 92.0412 129.436 91.454 128.914C81.374 119.966 74.9965 108.964 72.5499 95.6473C71.3756 89.2579 71.0494 82.836 71.5876 76.4141C72.24 68.6556 74.8008 61.4024 78.4055 54.5241C80.4932 50.5308 82.9888 46.7982 86.2672 43.6688C87.1806 42.8049 88.1593 41.9899 89.1705 41.2402C91.1278 39.7895 93.3134 39.2354 95.7763 39.4961C97.5379 39.6754 99.3158 39.6591 101.094 39.6102C103.426 39.545 105.416 40.3274 107.243 41.6803C110.423 44.0274 112.658 47.1405 114.55 50.5308C117.633 56.0725 119.003 62.1033 118.889 68.3459C118.774 74.2789 117.698 80.114 116.197 85.8677C114.028 94.1803 110.325 101.841 106.313 109.371C103.85 113.984 101.094 118.466 98.435 122.981C96.9996 125.41 95.4664 127.79 93.8027 130.479L93.7864 130.463ZM151.755 154.944C155.245 159.72 157.463 165.196 159.649 170.657C160.628 173.102 161.443 175.644 162.063 178.187C162.634 180.599 162.471 183.077 161.786 185.489C161.198 187.559 159.845 189.01 157.953 189.955C153.337 192.253 148.656 192.465 143.86 190.509C140.778 189.254 138.054 187.412 135.525 185.31C131.48 181.952 127.191 178.92 122.624 176.329C117.633 173.493 113.979 169.418 111.239 164.43C108.466 159.378 106.476 153.983 104.535 148.571C103.638 146.077 102.611 143.632 101.567 141.204C100.36 138.4 98.6796 135.874 96.6734 133.559C95.9884 132.761 95.3849 131.897 94.6835 131C96.282 128.442 98.6307 128.034 100.931 127.675C107.536 126.632 113.881 127.887 120.014 130.283C133.03 135.369 143.567 143.698 151.787 154.944H151.755ZM208.907 98.3041C208.157 103.194 205.971 107.432 202.905 111.197C200.915 113.642 198.762 115.973 196.527 118.206C193.624 121.107 190.59 123.894 187.557 126.665C180.005 133.543 170.985 137.374 161.101 139.509C154.691 140.894 148.231 141.285 141.707 141.008C140.924 140.976 140.044 140.764 139.407 140.356C136.357 138.335 133.372 136.2 130.355 134.114C130.208 134.016 130.11 133.837 129.817 133.511C138.005 132.696 145.165 129.631 151.885 125.475C157.741 121.857 163.482 118.091 168.75 113.577C172.567 110.3 176.938 107.644 181.032 104.693C183.43 102.949 185.877 101.238 188.144 99.3472C192.189 95.9733 196.544 93.2839 201.779 92.2407C202.823 92.0288 203.932 91.9473 204.976 92.0614C207.782 92.3385 209.429 95.1257 208.94 98.3367L208.907 98.3041Z" fill="#FAD676"/>
<path d="M107.063 126.681C118.84 122.932 126.049 113.952 132.818 104.123C132.247 106.454 126.718 114 122.852 117.912C118.758 122.052 114.224 124.986 108.596 127.121C121.563 131.767 130.518 141.008 137.76 152.239C129.784 141.318 120.781 131.701 107.031 127.464C107.226 127.871 107.243 128.002 107.308 128.034C114.158 131.473 119.361 136.771 123.765 142.883C126.718 146.974 129.376 151.277 132.149 155.498C132.589 156.167 132.916 156.9 133.095 157.715C132.801 157.275 132.524 156.835 132.231 156.395C128.349 150.397 124.418 144.431 119.704 139.036C117.078 136.021 114.126 133.331 110.847 131.05C108.45 129.371 105.921 127.985 102.969 127.545C102.659 127.496 102.366 127.366 102.072 127.252C101.974 127.219 101.925 127.105 101.828 127.007C104.763 126.812 107.357 125.703 109.771 124.106C118.415 118.352 124.809 110.708 129.246 101.336C132.589 94.2783 134.628 86.8295 136.455 79.2992C136.618 78.6309 136.781 77.9626 137.238 77.3433C136.961 78.8917 136.732 80.4401 136.374 81.9723C134.367 90.725 131.725 99.2495 127.125 107.057C122.33 115.19 115.92 121.661 107.601 126.209C107.389 126.323 107.226 126.518 107.031 126.681H107.063Z" fill="#FAD676"/>
<path d="M80.0528 122.9C70.3968 113.185 64.6065 101.613 63.1712 87.9866C60.9693 66.9442 71.1308 49.4713 78.6011 42.1855C68.831 54.0351 63.2854 67.5473 63.6279 82.9501C63.9704 98.2552 69.826 111.523 80.0528 122.916V122.9Z" fill="#FAD676"/>
<path d="M90.9157 130.3C81.5534 126.975 72.0932 127.219 62.6493 127.138C70.0869 125.98 77.4757 126.665 84.8644 127.708C84.897 127.561 84.9297 127.415 84.9623 127.268C82.8256 126.649 80.7052 125.915 78.5359 125.442C69.8423 123.535 61.0508 123.177 52.1941 123.715C48.9809 123.91 45.7677 124.008 42.5382 123.91C45.2132 123.649 47.8718 123.275 50.5631 123.144C54.7875 122.932 59.0283 122.737 63.2528 122.818C70.3968 122.949 77.4594 123.796 84.2609 126.16C85.0275 126.437 85.7941 126.73 86.5607 127.007C88.2244 127.61 89.6435 128.556 90.932 130.283L90.9157 130.3Z" fill="#FAD676"/>
<path d="M135.232 126.013C155.196 106.552 163.71 83.9118 154.772 56.0889C156.387 59.2835 157.235 62.4945 157.936 65.7055C158.784 69.5847 159.209 73.5617 159.094 77.5388C158.687 92.0615 153.859 105.019 144.822 116.396C141.984 119.966 138.853 123.242 135.232 126.013Z" fill="#FAD676"/>
<path d="M191.732 115.386C191.406 115.712 191.112 116.07 190.737 116.331C181.195 123.34 171.181 129.534 160.089 133.853C154.315 136.102 148.329 137.585 142.148 138.188C139.897 138.417 137.613 138.221 135.297 137.911C136.064 137.814 136.83 137.667 137.597 137.651C149.879 137.341 161.052 133.348 171.703 127.545C178.308 123.943 184.67 119.966 190.819 115.63C191.047 115.467 191.308 115.321 191.553 115.174C191.602 115.239 191.667 115.304 191.716 115.386H191.732Z" fill="#FAD676"/>
<path d="M86.8381 66.667C85.9084 72.7303 84.8971 78.6633 84.0816 84.6288C83.2824 90.5781 82.8257 96.5762 83.2987 102.574C83.9185 110.48 85.729 118.124 89.4967 125.198C90.247 126.616 91.1767 127.952 92.0249 129.322C91.927 129.403 91.8128 129.485 91.715 129.566C90.981 128.621 90.1655 127.708 89.5293 126.697C87.1154 122.802 85.6474 118.515 84.4404 114.131C82.4505 106.992 82.0591 99.6731 82.6136 92.371C83.2171 84.2214 84.2936 76.1043 86.3814 68.1665C86.5119 67.6776 86.6913 67.2212 86.8544 66.6833L86.8381 66.667Z" fill="#FAD676"/>
<path d="M58.539 111.393C57.6582 110.887 57.0547 110.578 56.4675 110.219C49.2908 105.818 42.9623 100.439 37.5145 94.0338C31.6916 87.188 26.2275 80.0978 21.4648 72.4698C21.0407 71.7852 20.6493 71.068 20.4698 70.2205C20.7961 70.6605 21.1223 71.1006 21.4322 71.557C27.1898 80.0326 33.3227 88.2149 40.2058 95.8267C45.0664 101.205 50.6935 105.671 56.8264 109.534C57.3646 109.877 57.8539 110.252 58.3596 110.626C58.4248 110.675 58.4248 110.855 58.539 111.376V111.393Z" fill="#FAD676"/>
<path d="M96.5755 57.9795C96.0046 60.4081 95.4011 62.8367 94.8792 65.2816C93.4112 72.0947 91.7964 78.8915 90.5731 85.7698C89.8228 89.9751 89.7413 94.2944 89.2683 98.5485C88.7627 103.031 89.0399 107.513 89.3662 111.995C89.5945 115.174 90.1817 118.336 90.6547 121.84C89.7739 120.064 89.6924 118.401 89.3988 116.804C88.2407 110.235 88.3875 103.585 88.6811 96.9675C88.9584 90.4966 89.9533 84.0584 91.3724 77.718C92.7425 71.5894 94.3409 65.5098 95.8415 59.3975C95.972 58.8923 96.1677 58.4033 96.3308 57.9143C96.4124 57.9306 96.4939 57.9632 96.5755 57.9795Z" fill="#FAD676"/>
<path d="M7.78018 58.762C10.4225 64.2059 12.8854 69.7477 15.7398 75.0776C21.579 85.9818 29.3592 95.2724 39.374 102.64C40.7114 103.634 42.1468 104.498 43.3538 105.72C41.9837 104.873 40.5646 104.107 39.2598 103.178C29.0493 95.8592 21.1876 86.4708 15.2994 75.4362C13.1953 71.4917 11.3685 67.3843 9.4928 63.3258C8.80775 61.8588 8.31843 60.2941 7.74756 58.7783C7.76387 58.7783 7.78018 58.7783 7.79649 58.7783L7.78018 58.762Z" fill="#FAD676"/>
<path d="M134.4 109.094C135.933 106.454 137.581 103.862 139 101.157C142.767 94.0175 145.198 86.4383 146.242 78.4353C147.155 71.4429 146.796 64.4831 144.839 57.67C144.708 57.2136 144.611 56.7409 144.513 56.2846C144.643 56.252 144.757 56.2194 144.888 56.1868C145.442 58.2242 146.127 60.2453 146.535 62.3153C147.269 66.162 147.644 70.0575 147.367 73.9856C146.551 85.444 143.143 96.0549 136.912 105.753C136.194 106.861 135.428 107.953 134.677 109.029C134.628 109.094 134.482 109.094 134.4 109.127V109.094Z" fill="#FAD676"/>
<path d="M169.615 122.704C168.962 123.128 168.326 123.568 167.657 123.943C158.621 129.077 149.145 133.136 138.934 135.32C136.847 135.776 134.759 136.233 132.541 135.581C134.645 135.222 136.765 134.945 138.853 134.505C141.006 134.048 143.159 133.527 145.263 132.891C147.367 132.255 149.438 131.473 151.51 130.691C153.565 129.908 155.604 129.061 157.643 128.181C159.665 127.3 161.688 126.404 163.678 125.442C165.651 124.497 167.576 123.486 169.517 122.492C169.566 122.557 169.598 122.623 169.647 122.688L169.615 122.704Z" fill="#FAD676"/>
<path d="M102.284 78.4677C102.725 76.2673 103.214 74.0832 103.622 71.8665C104.943 64.6296 106.346 57.409 107.471 50.1395C107.863 47.6131 107.504 44.9726 107.504 42.381C107.504 42.0388 107.536 41.6965 107.732 41.3379C108.433 43.4242 108.776 45.5431 108.564 47.7109C107.585 57.5557 105.498 67.1886 102.986 76.7563C102.839 77.3431 102.643 77.9136 102.48 78.5003C102.415 78.5003 102.366 78.4677 102.301 78.4677H102.284Z" fill="#FAD676"/>
<path d="M162.487 83.2434C165.504 70.3507 168.261 57.4253 168.114 44.0762C168.962 56.3496 166.842 68.2644 163.988 80.0977C163.727 81.206 163.27 82.2655 162.911 83.3575C162.781 83.3249 162.634 83.276 162.503 83.2434H162.487Z" fill="#FAD676"/>
<path d="M175.47 122.835C187.051 116.576 196.478 107.872 204.536 97.5869C197.017 108.491 187.556 117.179 175.47 122.835Z" fill="#FAD676"/>
<path d="M129.588 78.207C130.746 68.5904 132.263 58.9738 131.203 49.1942C131.317 49.1616 131.448 49.1127 131.562 49.0801C131.774 49.455 132.133 49.8298 132.149 50.221C132.312 52.9104 132.638 55.6324 132.459 58.3218C132.182 62.5759 131.627 66.83 131.04 71.0515C130.697 73.4638 130.078 75.8273 129.572 78.207H129.588Z" fill="#FAD676"/>
<path d="M63.4323 43.6851C63.155 40.523 73.9037 20.6378 78.2424 16.1555C75.5185 20.8334 72.8109 25.2016 70.3806 29.7165C67.9503 34.2315 65.7973 38.9094 63.4323 43.6851Z" fill="#FAD676"/>
<path d="M99.7397 108.687C104.698 95.9244 109.396 83.0806 111.206 69.3892C110.113 83.2762 105.285 96.0874 99.7397 108.687Z" fill="#FAD676"/>
<path d="M184.767 101.89C184.392 102.509 184.099 103.194 183.642 103.748C182.484 105.166 181.326 106.6 180.07 107.921C175.421 112.859 170.495 117.472 164.917 121.368C171.686 115.06 178.7 108.996 184.327 101.548C184.474 101.662 184.621 101.776 184.767 101.89Z" fill="#FAD676"/>
<path d="M67.5263 110.268C60.8552 99.2494 57.593 87.5302 60.1864 74.6375C58.2292 87.3998 61.5565 99.1027 67.5263 110.268Z" fill="#FAD676"/>
<path d="M118.106 162.148C122.509 169.402 127.419 176.264 132.557 182.979C132.589 183.028 132.475 183.191 132.426 183.305C129.8 181.822 119.916 167.315 118.106 162.165V162.148Z" fill="#FAD676"/>
<path d="M34.3176 85.5254C40.7114 92.5504 46.7137 99.8688 54.2003 105.769C54.1351 105.867 54.0535 105.981 53.9883 106.079C53.238 105.59 52.4062 105.199 51.7537 104.612C49.8128 102.9 47.8066 101.238 46.0776 99.3146C42.2446 95.0442 38.5584 90.6271 34.8233 86.2589C34.6275 86.0307 34.4807 85.7699 34.3176 85.5254Z" fill="#FAD676"/>
<path d="M161.639 42.9516C162.242 38.9582 162.927 34.9975 163.4 31.0205C163.873 27.1249 164.134 23.1968 164.493 19.3013C165.831 22.2514 163.939 38.0292 161.639 42.9679V42.9516Z" fill="#FAD676"/>
<path d="M25.4447 64.6949C22.5414 60.5386 18.4474 48.8846 18.9367 46.293C19.9154 48.1837 20.2416 50.3189 20.9592 52.3237C21.7095 54.3937 22.4109 56.48 23.1612 58.5501C23.9115 60.6038 24.6781 62.6412 25.4447 64.6949Z" fill="#FAD676"/>
<path d="M121.237 64.9067C123.635 57.735 123.064 50.4981 121.629 43.2612C124.026 48.7541 124.385 61.5328 121.237 64.9067Z" fill="#FAD676"/>
<path d="M141.25 156.917C145.247 162.116 147.889 168 150.499 173.884C150.384 173.949 150.27 173.998 150.156 174.063C148.753 171.211 147.383 168.326 145.915 165.49C144.415 162.605 142.8 159.769 141.234 156.917H141.25Z" fill="#FAD676"/>
<path d="M158.181 30.8086C157.985 35.9592 157.17 41.012 156.028 46.0159C155.995 46.1951 155.702 46.3092 155.18 46.3092C156.175 41.1424 157.17 35.9755 158.181 30.8086Z" fill="#FAD676"/>
<path d="M125.217 2.46411C126.506 4.69712 126.31 10.5975 124.744 15.471C124.907 11.2168 125.054 6.94642 125.217 2.46411Z" fill="#FAD676"/>
<path d="M109.575 57.8982C109.803 52.878 109.999 48.1023 110.211 43.5059C111.353 45.5107 111.222 49.9441 109.575 57.8982Z" fill="#FAD676"/>
<path d="M134.123 26.1471C135.346 22.17 135.346 18.0952 135.362 13.7759C136.635 17.2965 135.917 24.6638 134.123 26.1471Z" fill="#FAD676"/>
<path d="M110.048 19.7415C113.848 21.4692 115.724 24.8594 117.339 28.4616C115.153 25.3484 113.131 22.1049 110.048 19.7415Z" fill="#FAD676"/>
<path d="M124.858 58.0285C125.902 54.247 125.282 50.4004 125.168 46.5701C126.082 50.4004 126.783 54.2307 124.858 58.0285Z" fill="#FAD676"/>
<path d="M68.7332 36.5134C69.8749 33.2372 71.93 30.4663 73.8058 27.5977C73.92 27.6629 74.0178 27.7117 74.132 27.7769C72.4683 30.7597 70.8046 33.7588 69.1409 36.7416C69.0104 36.6601 68.8636 36.5949 68.7332 36.5134Z" fill="#FAD676"/>
<path d="M134.71 57.898C134.449 54.2633 134.172 50.6285 133.911 46.9938C134.057 46.9938 134.221 46.9775 134.367 46.9612C135.362 50.5796 134.808 54.2796 134.71 57.8817V57.898Z" fill="#FAD676"/>
<path d="M15.2505 43.1797C15.8703 46.1462 16.4901 49.1126 17.1099 52.0791C15.7724 49.243 14.908 46.3092 14.6959 43.2286C14.8753 43.2286 15.0711 43.196 15.2505 43.196V43.1797Z" fill="#FAD676"/>
<path d="M98.5654 35.0954C96.4777 36.6927 94.4062 38.3064 92.3184 39.8874C92.2043 39.9689 91.9759 39.8874 91.454 39.8548C93.7212 37.7522 95.9557 36.1549 98.5817 35.0791L98.5654 35.0954Z" fill="#FAD676"/>
<path d="M118.35 24.778C117.062 23.0666 115.741 21.3225 114.37 19.4807C116.083 20.0186 117.926 22.545 118.35 24.778Z" fill="#FAD676"/>
<path d="M126.832 28.0216C127.68 26.4568 128.74 25.1529 130.681 24.8921C129.393 25.9352 128.104 26.9784 126.832 28.0216Z" fill="#FAD676"/>
<path d="M127.762 9.79873C127.941 8.0547 128.12 6.31068 128.3 4.56665C128.43 4.58295 128.561 4.59925 128.691 4.61555C129.05 6.42477 128.398 8.1036 127.778 9.79873H127.762Z" fill="#FAD676"/>
</g>
<defs>
<clipPath id="clip0_46_647">
<rect width="210" height="264" fill="white" transform="translate(0 0.133301)"/>
</clipPath>
</defs>
</svg>
