<svg width="120" height="153" viewBox="0 0 120 153" fill="none" xmlns="http://www.w3.org/2000/svg">
<g clip-path="url(#clip0_46_696)">
<path d="M1.0337 40.2308C5.27588 39.158 9.5083 38.0853 13.7602 37.0711C16.7444 36.3592 19.7773 36.4567 22.7517 37.0808C24.8094 37.5099 26.8281 38.1731 28.8273 38.8362C30.3486 39.3336 31.8699 39.6846 33.4888 39.6164C36.1706 39.5091 38.8525 39.4506 41.5343 39.3921C42.217 39.3823 42.8899 39.4603 43.8456 39.5189C43.3287 39.1288 43.0361 38.9045 42.7436 38.6802C40.5396 37.0126 38.3551 35.3254 36.1316 33.6968C34.7956 32.7119 33.44 31.7269 31.9967 30.9077C29.4514 29.4742 27.0524 27.8456 24.7606 26.0414C22.0788 23.9252 19.5628 21.6432 17.4953 18.9028C14.6282 15.1093 13.1654 10.7208 12.0049 6.19582C11.8878 5.71796 11.9853 5.1816 11.9853 4.72325C12.8338 4.47944 13.2044 4.9768 13.5944 5.36689C15.3791 7.17103 17.193 8.94592 18.8899 10.8183C20.4599 12.5542 22.0398 14.3096 23.3661 16.2308C26.5745 20.9118 29.9585 25.4758 33.5473 29.8642C34.7956 31.3856 36.0439 32.9069 37.653 34.0772C40.8712 36.4079 44.0894 38.7289 47.3173 41.0499C47.5026 41.1865 47.7367 41.245 48.0975 41.4108C47.3368 40.0942 46.7224 38.9142 46.0008 37.8122C44.9183 36.1739 43.8553 34.5063 42.6168 32.9947C41.0467 31.093 39.6131 29.1036 38.3259 27.0069C36.0048 23.2328 34.6395 19.1271 34.2885 14.7484C34.0544 11.9301 34.23 9.08245 34.269 6.24458C34.269 5.70821 34.464 5.16209 34.5713 4.64523C35.3612 4.5282 35.41 5.07432 35.5465 5.46441C36.2877 7.63913 37.0678 9.80411 37.731 12.0178C38.1601 13.4612 38.9207 14.5827 40.091 15.4994C42.6851 17.518 45.2499 19.5855 47.8342 21.6237C51.0231 24.1397 53.783 27.0166 55.4213 30.8004C56.2795 32.7704 56.9817 34.8086 57.7814 36.8078C57.9764 37.2954 58.2202 37.7732 58.5128 38.2023C59.3612 39.4506 60.2487 40.6794 61.1263 41.9081C61.2531 42.0837 61.4189 42.2397 61.5652 42.4055C61.4677 41.284 61.1946 40.2698 61.0288 39.2458C60.4925 36.0471 59.4977 33.0434 57.8009 30.2543C56.6306 28.3137 55.5871 26.295 54.5729 24.2665C53.3441 21.7797 52.4274 19.1662 52.2031 16.3966C51.9886 13.8025 51.9496 11.1889 51.9398 8.57534C51.9398 6.42987 52.0471 4.27465 52.1836 2.12918C52.2226 1.43678 52.1544 0.617599 52.9931 0.0324707C53.2661 0.500573 53.5489 0.890658 53.744 1.31975C54.9727 4.0406 56.1723 6.77119 57.4108 9.49204C59.7318 14.5827 60.4437 19.9756 60.4437 25.505C60.4437 28.0016 60.473 30.4981 60.5217 32.9849C60.5412 33.9211 60.629 34.8768 60.7948 35.8033C62.0528 42.7566 64.3738 49.3588 67.514 55.6781C67.8066 56.273 68.2356 56.8386 68.694 57.3067C70.2738 58.9256 71.9025 60.5152 73.5213 62.1048C73.6773 62.2608 73.8724 62.3876 74.0479 62.5339C74.1162 62.4851 74.1747 62.4364 74.243 62.3974C73.4238 59.618 72.5558 56.8581 71.7952 54.069C71.3758 52.5477 71.0443 50.9874 70.8297 49.427C70.6347 48.0422 70.7127 46.6282 71.1515 45.2726C71.6196 43.8 72.0877 42.3275 72.6046 40.8647C72.7704 40.377 73.0337 39.8407 73.8334 40.221C74.1747 42.1227 74.4965 44.0438 74.2625 46.0138C74.0869 47.5449 73.8626 49.0759 73.6968 50.6168C73.375 53.4449 73.4433 56.2828 73.9309 59.0816C74.3112 61.3246 74.9061 63.4896 76.2714 65.3913C77.7147 67.4197 79.0508 69.5359 80.4258 71.6131C80.6014 71.8764 80.7671 72.1495 81.0695 72.6371C81.0012 71.9447 80.9622 71.5449 80.9232 71.1255C80.8061 69.6237 80.5526 68.1121 80.6209 66.6103C80.7086 64.6794 80.8257 62.7777 80.5721 60.8468C80.2405 58.3405 80.0552 55.8147 79.7919 53.3084C79.4799 50.2852 79.4701 47.262 79.9382 44.2584C80.8354 38.4656 82.8346 33.0142 85.2531 27.709C85.887 26.3145 86.7745 25.0174 87.5936 23.7009C87.8374 23.3108 88.1398 22.8427 88.8029 23.0573C89.154 24.1495 88.7249 25.2125 88.5981 26.2755C88.208 29.4937 87.6814 32.6924 87.3498 35.9203C87.0183 39.1873 86.5892 42.4347 85.7992 45.6237C84.824 49.5733 83.7318 53.4937 82.6786 57.4238C81.7033 61.0808 80.9914 64.7769 81.1962 68.59C81.2352 69.3019 81.323 70.0138 81.401 70.7354C81.6156 72.6956 81.9667 74.607 82.8931 76.3819C83.449 77.4449 83.9073 78.5761 84.3852 79.6879C86.8135 85.3051 88.8419 91.0784 90.8411 96.8712C90.9484 97.193 91.1142 97.505 91.2604 97.8171C91.436 97.3197 91.4457 96.8711 91.4262 96.4225C91.3287 93.9163 91.8163 91.4685 92.2161 89.0109C92.5575 86.9337 92.8208 84.837 93.0061 82.7306C93.2401 80.1365 93.2694 77.5229 93.5327 74.9289C93.874 71.5449 94.6834 68.2486 95.6489 64.9817C97.102 60.0764 99.2377 55.4441 101.295 50.7728C101.676 49.9049 102.076 49.0467 102.524 48.2178C102.719 47.8569 103.07 47.5741 103.538 47.028C103.704 47.6521 103.85 47.974 103.88 48.3153C103.928 48.9589 103.88 49.6026 103.928 50.2462C104.25 54.859 104.338 59.4522 103.431 64.0162C102.67 67.8878 101.588 71.6424 99.5985 75.0849C98.6135 76.7818 97.6676 78.5079 96.7216 80.234C93.5327 85.9878 91.5628 92.0633 91.8748 98.7241C91.9041 99.4652 92.0113 100.236 92.2356 100.938C93.1426 103.854 94.1373 106.75 95.0345 109.676C96.6729 115.02 98.3697 120.345 100.486 125.523C100.632 125.884 100.818 126.225 100.983 126.566C101.539 124.713 102.076 122.958 102.602 121.183C103.061 119.672 103.587 118.17 103.928 116.629C104.748 112.933 104.767 109.139 105.06 105.375C105.225 103.308 105.313 101.23 105.577 99.1727C106.123 94.7939 107.4 90.62 109.243 86.6119C111.633 81.414 114.49 76.4697 117.503 71.6229C117.864 71.0475 118.284 70.5111 118.713 69.9748C119.005 69.6042 119.376 69.3311 119.98 69.7895C119.98 70.082 120.019 70.4526 119.98 70.8135C119.844 71.7789 119.707 72.7639 119.503 73.7098C118.245 79.3758 116.996 85.0516 115.699 90.7078C114.412 96.3055 112.725 101.767 110.287 107.004C108.034 111.831 105.196 116.366 103.246 121.339C102.466 123.329 101.871 125.318 101.588 127.425C101.559 127.678 101.559 127.971 101.646 128.195C102.163 129.404 102.709 130.604 103.246 131.803C103.714 130.896 103.938 129.999 104.202 129.121C104.728 127.298 105.401 125.542 106.649 124.07C108.707 121.651 111.233 120.081 114.441 119.633C115.904 119.428 117.299 119.603 118.693 119.954C118.947 120.023 119.152 120.237 119.59 120.51C119.044 120.783 118.732 120.969 118.401 121.095C117.201 121.544 115.972 121.924 114.783 122.402C112.998 123.124 111.184 123.807 109.477 124.684C106.835 126.04 105.05 128.185 104.27 131.091C103.948 132.291 103.958 133.442 104.592 134.592C107.215 139.322 109.828 144.062 113.281 148.265C114.071 149.23 114.9 150.147 115.709 151.093C115.758 151.152 115.816 151.21 115.865 151.259H114.958C113.008 149.328 111.418 147.095 109.907 144.832C106.464 139.664 103.451 134.251 101.022 128.517C100.72 127.815 100.232 127.132 99.6863 126.586C98.0284 124.909 96.039 123.66 94.0008 122.48C87.9057 118.96 81.206 117.614 74.282 117.195C71.3368 117.019 68.3819 117.117 65.427 117.156C60.746 117.224 56.2893 116.19 51.9886 114.415C51.2572 114.113 50.5745 113.703 49.8919 113.303C49.6773 113.177 49.5603 112.894 49.3945 112.689C49.4335 112.611 49.4725 112.523 49.5116 112.445C49.9504 112.445 50.3892 112.475 50.8281 112.445C52.2226 112.358 53.6269 112.348 55.002 112.123C58.9419 111.48 62.8135 110.514 66.8411 110.3C69.7375 110.144 72.5851 110.193 75.4132 110.7C81.1182 111.704 86.1698 114.084 90.49 118.033C93.2791 120.579 96.234 122.948 99.1207 125.396C99.2962 125.542 99.5107 125.64 99.8131 125.825C99.7545 125.552 99.7448 125.445 99.7155 125.347C98.0382 120.452 96.3803 115.556 94.6542 110.68C94.3909 109.92 93.952 109.159 93.4254 108.554C91.0946 105.882 88.1495 104.049 84.9508 102.625C81.5863 101.123 77.9878 100.421 74.399 99.6798C70.1861 98.8216 66.1487 97.5343 62.5502 95.0865C58.9516 92.6387 55.8992 89.6058 52.9931 86.4071C52.798 86.1828 52.7103 85.8512 52.5737 85.5684C53.3539 84.9638 54.017 85.3734 54.6119 85.5587C58.4543 86.6899 62.2869 87.8114 66.0902 89.0499C68.4209 89.8106 70.7322 90.6688 72.9459 91.6928C78.5144 94.2673 83.1759 98.1097 87.4669 102.44C88.2665 103.239 89.1052 104.01 89.9536 104.761C91.0069 105.687 92.0796 106.575 93.1523 107.472C93.2986 107.598 93.4644 107.686 93.796 107.901C93.6302 107.335 93.5424 106.965 93.4352 106.614C92.7135 104.429 91.9918 102.245 91.2604 100.06C89.0174 93.3994 86.7257 86.7582 83.9951 80.2828C83.605 79.3466 83.0491 78.5859 82.269 77.9423C80.8257 76.7525 79.2653 75.8065 77.5587 75.0361C74.4965 73.6611 71.2198 73.349 67.9528 73.1442C63.7692 72.8907 59.566 72.8712 55.3726 72.6274C53.0808 72.4908 50.7891 72.208 48.5266 71.8082C43.4067 70.911 38.755 68.7363 34.23 66.2592C33.8691 66.0642 33.4986 65.8399 33.1865 65.5766C33.0207 65.44 32.9817 65.167 32.7769 64.7281C34.1129 64.8451 35.2247 64.9914 36.3462 65.0304C38.043 65.089 39.7497 65.1962 41.4368 65.0792C44.0991 64.9037 46.7224 64.9914 49.3165 65.6058C52.1836 66.2787 54.7777 67.605 57.284 69.0873C59.9171 70.6477 62.7159 71.7594 65.7196 72.247C68.538 72.6956 71.3856 72.9199 74.3405 73.2612C74.0284 73.0272 73.8139 72.8321 73.5701 72.6761C70.898 71.028 68.2454 69.3604 65.5538 67.7415C62.2381 65.7423 60.3462 62.7777 59.527 59.0621C59.4392 58.6525 59.3027 58.1454 59.8781 57.8529C60.4437 57.8529 60.6875 58.3015 60.9996 58.672C63.1158 61.1881 65.2417 63.7041 67.3385 66.2397C70.4786 70.043 74.3405 72.8809 78.768 75.0069C79.7822 75.4945 80.6891 76.1966 81.6448 76.8013C81.9374 76.9866 82.2105 77.1816 82.6786 77.4839C82.542 77.1036 82.503 76.967 82.4445 76.8305C80.5721 72.8907 78.4559 69.1068 75.7545 65.6643C71.6391 60.4079 66.6461 56.078 61.4384 51.9626C61.0678 51.67 60.59 51.436 60.1316 51.3384C56.6111 50.6265 53.1003 50.6168 49.5896 51.5335C47.6977 52.0211 45.7667 52.4112 43.8358 52.6842C40.4811 53.1523 37.1263 53.0548 33.8301 52.2161C29.6757 51.1531 25.7261 49.5538 22.03 47.3693C21.5619 47.0865 21.0158 46.8427 20.8988 46.0625C21.2011 45.9358 21.4742 45.7505 21.7862 45.7017C24.8387 45.1848 27.9008 45.5457 30.9435 45.7797C33.206 45.9553 35.371 46.6769 37.5164 47.3986C40.3738 48.3543 43.2604 49.2905 46.2738 49.6123C48 49.7976 49.7359 49.8756 51.4717 49.9829C52.9346 50.0707 54.4169 50.1097 55.8797 50.2169C57.0304 50.3047 58.1714 50.4608 59.3222 50.5875C59.371 50.529 59.4197 50.4705 59.4685 50.412C59.2539 50.2657 59.0394 50.1194 58.8346 49.9634C54.6119 46.9597 50.3892 43.9561 46.1568 40.9622C45.2694 40.338 44.2552 40.0162 43.1824 39.9772C40.0032 39.8504 36.8533 40.0162 33.7424 40.8061C30.3096 41.6741 26.8573 42.4933 23.3953 43.2539C21.2401 43.7318 19.0361 43.7708 16.8517 43.5172C14.4916 43.2344 12.1511 42.8151 9.80087 42.4933C6.85572 42.0837 3.90082 41.7131 0.945928 41.3035C0.643612 41.2645 0.351051 41.0792 0.0584875 40.9622C0.0584875 40.8744 0.0487312 40.7769 0.0389791 40.6891C0.380304 40.5233 0.711881 40.2893 1.07271 40.2015L1.0337 40.2308ZM52.4567 44.6972C55.6164 46.8427 58.6786 49.1247 61.7407 51.397C63.1353 52.4307 64.4226 53.6107 65.7586 54.7224C65.9927 54.9077 66.2267 55.093 66.5875 55.2198C66.5095 55.0052 66.4315 54.7809 66.3437 54.5762C65.271 52.0016 64.1495 49.4368 63.1255 46.8427C62.0333 44.0634 60.3852 41.6448 58.581 39.3043C56.4453 36.5542 53.8025 34.3502 50.9549 32.4096C46.7322 29.5229 43.5628 25.7586 41.2612 21.2239C41.1052 20.9215 40.9297 20.6387 40.7541 20.3462C42.3632 26.7436 43.9236 33.1605 47.2978 38.924C48.6339 41.206 50.2235 43.1857 52.4469 44.6972H52.4567Z" fill="#F5F1EE"/>
<path d="M1.03369 40.2308C5.27587 39.158 9.50829 38.0853 13.7602 37.0711C16.7444 36.3592 19.7773 36.4567 22.7517 37.0808C24.8094 37.5099 26.8281 38.1731 28.8273 38.8362C30.3486 39.3336 31.8699 39.6846 33.4888 39.6164C36.1706 39.5091 38.8525 39.4506 41.5343 39.3921C42.217 39.3823 42.8899 39.4603 43.8456 39.5189C43.3287 39.1288 43.0361 38.9045 42.7436 38.6802C40.5396 37.0126 38.3551 35.3254 36.1316 33.6968C34.7956 32.7119 33.44 31.7269 31.9967 30.9077C29.4514 29.4742 27.0524 27.8456 24.7606 26.0414C22.0788 23.9252 19.5627 21.6432 17.4953 18.9028C14.6282 15.1093 13.1653 10.7208 12.0048 6.19582C11.8878 5.71796 11.9853 5.1816 11.9853 4.72325C12.8338 4.47944 13.2044 4.9768 13.5944 5.36689C15.3791 7.17103 17.193 8.94592 18.8898 10.8183C20.4599 12.5542 22.0398 14.3096 23.3661 16.2308C26.5745 20.9118 29.9585 25.4758 33.5473 29.8642C34.7956 31.3856 36.0438 32.9069 37.653 34.0772C40.8712 36.4079 44.0894 38.7289 47.3173 41.0499C47.5026 41.1865 47.7367 41.245 48.0975 41.4108C47.3368 40.0942 46.7224 38.9142 46.0008 37.8122C44.9183 36.1739 43.8553 34.5063 42.6168 32.9947C41.0467 31.093 39.6131 29.1036 38.3258 27.0069C36.0048 23.2328 34.6395 19.1271 34.2885 14.7484C34.0544 11.9301 34.23 9.08245 34.269 6.24458C34.269 5.70821 34.464 5.16209 34.5713 4.64523C35.3612 4.5282 35.41 5.07432 35.5465 5.46441C36.2877 7.63914 37.0678 9.80411 37.731 12.0178C38.1601 13.4612 38.9207 14.5827 40.091 15.4994C42.6851 17.518 45.2499 19.5855 47.8342 21.6237C51.0231 24.1397 53.783 27.0166 55.4213 30.8005C56.2795 32.7704 56.9817 34.8086 57.7814 36.8078C57.9764 37.2954 58.2202 37.7732 58.5128 38.2023C59.3612 39.4506 60.2487 40.6794 61.1263 41.9081C61.2531 42.0837 61.4189 42.2397 61.5652 42.4055C61.4677 41.284 61.1946 40.2698 61.0288 39.2458C60.4925 36.0471 59.4977 33.0434 57.8009 30.2543C56.6306 28.3137 55.5871 26.295 54.5729 24.2665C53.3441 21.7797 52.4274 19.1662 52.2031 16.3966C51.9886 13.8025 51.9496 11.1889 51.9398 8.57534C51.9398 6.42987 52.0471 4.27465 52.1836 2.12918C52.2226 1.43678 52.1544 0.617599 52.9931 0.0324707C53.2661 0.500573 53.5489 0.890659 53.744 1.31975C54.9727 4.0406 56.1723 6.77119 57.4108 9.49204C59.7318 14.5827 60.4437 19.9756 60.4437 25.505C60.4437 28.0016 60.4729 30.4981 60.5217 32.9849C60.5412 33.9211 60.629 34.8768 60.7948 35.8033C62.0528 42.7566 64.3738 49.3588 67.514 55.6781C67.8066 56.273 68.2356 56.8386 68.694 57.3068C70.2738 58.9256 71.9024 60.5152 73.5213 62.1048C73.6773 62.2608 73.8724 62.3876 74.0479 62.5339C74.1162 62.4851 74.1747 62.4364 74.243 62.3974C73.4238 59.618 72.5558 56.8582 71.7952 54.069C71.3758 52.5477 71.0443 50.9874 70.8297 49.427C70.6347 48.0422 70.7127 46.6282 71.1515 45.2726C71.6196 43.8 72.0877 42.3275 72.6046 40.8647C72.7704 40.377 73.0337 39.8407 73.8334 40.221C74.1747 42.1227 74.4965 44.0439 74.2625 46.0138C74.0869 47.5449 73.8626 49.0759 73.6968 50.6168C73.375 53.4449 73.4433 56.2828 73.9309 59.0816C74.3112 61.3246 74.9061 63.4896 76.2714 65.3913C77.7147 67.4197 79.0508 69.5359 80.4258 71.6131C80.6014 71.8764 80.7671 72.1495 81.0695 72.6371C81.0012 71.9447 80.9622 71.5449 80.9232 71.1255C80.8061 69.6237 80.5526 68.1121 80.6209 66.6103C80.7086 64.6794 80.8257 62.7777 80.5721 60.8468C80.2405 58.3405 80.0552 55.8147 79.7919 53.3084C79.4799 50.2852 79.4701 47.2621 79.9382 44.2584C80.8354 38.4656 82.8346 33.0142 85.2531 27.709C85.887 26.3145 86.7745 25.0174 87.5936 23.7009C87.8374 23.3108 88.1397 22.8427 88.8029 23.0573C89.154 24.1495 88.7249 25.2125 88.5981 26.2755C88.208 29.4937 87.6814 32.6924 87.3498 35.9203C87.0183 39.1873 86.5892 42.4347 85.7992 45.6237C84.824 49.5733 83.7318 53.4937 82.6786 57.4238C81.7033 61.0808 80.9914 64.7769 81.1962 68.59C81.2352 69.3019 81.323 70.0138 81.401 70.7354C81.6156 72.6956 81.9667 74.607 82.8931 76.3819C83.449 77.4449 83.9073 78.5762 84.3852 79.6879C86.8135 85.3051 88.8419 91.0784 90.8411 96.8712C90.9484 97.193 91.1142 97.505 91.2604 97.8171C91.436 97.3198 91.4457 96.8712 91.4262 96.4226C91.3287 93.9163 91.8163 91.4685 92.2161 89.0109C92.5575 86.9337 92.8208 84.837 93.0061 82.7306C93.2401 80.1365 93.2694 77.5229 93.5327 74.9289C93.874 71.5449 94.6834 68.2486 95.6489 64.9817C97.102 60.0764 99.2377 55.4441 101.295 50.7728C101.676 49.9049 102.076 49.0467 102.524 48.2178C102.719 47.8569 103.07 47.5741 103.538 47.028C103.704 47.6521 103.85 47.974 103.88 48.3153C103.928 48.9589 103.88 49.6026 103.928 50.2462C104.25 54.859 104.338 59.4522 103.431 64.0162C102.67 67.8878 101.588 71.6424 99.5985 75.0849C98.6135 76.7818 97.6676 78.5079 96.7216 80.234C93.5327 85.9878 91.5627 92.0634 91.8748 98.7241C91.9041 99.4652 92.0113 100.236 92.2356 100.938C93.1426 103.854 94.1373 106.75 95.0345 109.676C96.6729 115.02 98.3697 120.345 100.486 125.523C100.632 125.884 100.818 126.225 100.983 126.566C101.539 124.713 102.076 122.958 102.602 121.183C103.061 119.672 103.587 118.17 103.928 116.629C104.748 112.933 104.767 109.139 105.06 105.375C105.225 103.308 105.313 101.23 105.577 99.1727C106.123 94.794 107.4 90.62 109.243 86.6119C111.633 81.414 114.49 76.4697 117.503 71.6229C117.864 71.0475 118.284 70.5111 118.713 69.9748C119.005 69.6042 119.376 69.3311 119.98 69.7895C119.98 70.082 120.019 70.4526 119.98 70.8135C119.844 71.7789 119.707 72.7639 119.503 73.7098C118.245 79.3758 116.996 85.0516 115.699 90.7078C114.412 96.3055 112.725 101.767 110.287 107.004C108.034 111.831 105.196 116.366 103.246 121.339C102.466 123.329 101.871 125.318 101.588 127.425C101.559 127.678 101.559 127.971 101.646 128.195C102.163 129.404 102.709 130.604 103.246 131.803C103.714 130.896 103.938 129.999 104.202 129.121C104.728 127.298 105.401 125.542 106.649 124.07C108.707 121.651 111.233 120.081 114.441 119.633C115.904 119.428 117.299 119.603 118.693 119.954C118.947 120.023 119.152 120.237 119.59 120.51C119.044 120.783 118.732 120.969 118.401 121.095C117.201 121.544 115.972 121.924 114.783 122.402C112.998 123.124 111.184 123.807 109.477 124.684C106.835 126.04 105.05 128.185 104.27 131.091C103.948 132.291 103.958 133.442 104.592 134.592C107.215 139.322 109.828 144.062 113.281 148.265C114.071 149.23 114.9 150.147 115.709 151.093C115.758 151.152 115.816 151.21 115.865 151.259C116.08 151.493 116.265 151.737 115.992 152.185C115.66 151.893 115.368 151.659 115.104 151.405C115.056 151.356 115.007 151.308 114.968 151.269C113.017 149.338 111.428 147.104 109.916 144.842C106.474 139.673 103.46 134.261 101.032 128.527C100.73 127.824 100.242 127.142 99.696 126.596C98.0382 124.918 96.0487 123.67 94.0105 122.49C87.9155 118.969 81.2157 117.624 74.2917 117.204C71.3466 117.029 68.3917 117.126 65.4368 117.165C60.7558 117.234 56.299 116.2 51.9983 114.425C51.2669 114.123 50.5843 113.713 49.9016 113.313C49.6871 113.186 49.5701 112.904 49.4043 112.699C49.4433 112.621 49.4823 112.533 49.5213 112.455C49.9601 112.455 50.399 112.484 50.8378 112.455C52.2324 112.367 53.6367 112.358 55.0118 112.133C58.9516 111.49 62.8232 110.524 66.8508 110.31C69.7472 110.154 72.5949 110.202 75.423 110.709C81.128 111.714 86.1796 114.093 90.4998 118.043C93.2889 120.588 96.2438 122.958 99.1304 125.406C99.3059 125.552 99.5205 125.65 99.8228 125.835C99.7643 125.562 99.7545 125.455 99.7253 125.357C98.0479 120.462 96.3901 115.566 94.6639 110.69C94.4006 109.929 93.9618 109.169 93.4352 108.564C91.1044 105.892 88.1593 104.058 84.9606 102.635C81.5961 101.133 77.9975 100.431 74.4087 99.6895C70.1958 98.8313 66.1584 97.5441 62.5599 95.0963C58.9614 92.6485 55.9089 89.6156 53.0028 86.4169C52.8078 86.1926 52.72 85.861 52.5835 85.5782C53.3636 84.9736 54.0268 85.3831 54.6217 85.5684C58.464 86.6997 62.2966 87.8212 66.0999 89.0597C68.4307 89.8204 70.7419 90.6786 72.9557 91.7025C78.5241 94.2771 83.1857 98.1194 87.4766 102.449C88.2763 103.249 89.115 104.019 89.9634 104.77C91.0166 105.697 92.0894 106.584 93.1621 107.481C93.3084 107.608 93.4742 107.696 93.8057 107.911C93.64 107.345 93.5522 106.974 93.4449 106.623C92.7233 104.439 92.0016 102.254 91.2702 100.07C89.0272 93.4092 86.7354 86.7679 84.0048 80.2925C83.6148 79.3563 83.0589 78.5957 82.2787 77.952C80.8354 76.7623 79.2751 75.8163 77.5684 75.0459C74.5063 73.6708 71.2296 73.3588 67.9626 73.154C63.7789 72.9004 59.5757 72.8809 55.3823 72.6371C53.0906 72.5006 50.7988 72.2178 48.5363 71.8179C43.4165 70.9207 38.7647 68.746 34.2397 66.269C33.8789 66.0739 33.5083 65.8496 33.1962 65.5863C33.0304 65.4498 32.9914 65.1767 32.7866 64.7379C34.1227 64.8549 35.2344 65.0012 36.3559 65.0402C38.0528 65.0987 39.7594 65.206 41.4465 65.089C44.1089 64.9134 46.7322 65.0012 49.3263 65.6156C52.1934 66.2885 54.7874 67.6148 57.2937 69.0971C59.9268 70.6574 62.7257 71.7692 65.7293 72.2568C68.5477 72.7054 71.3953 72.9297 74.3502 73.271C74.0382 73.0369 73.8236 72.8419 73.5798 72.6859C70.9077 71.0378 68.2552 69.3701 65.5636 67.7513C62.2478 65.7521 60.3559 62.7875 59.5367 59.0719C59.449 58.6623 59.3124 58.1552 59.8878 57.8626C60.4534 57.8626 60.6972 58.3112 61.0093 58.6818C63.1255 61.1979 65.2515 63.7139 67.3482 66.2495C70.4884 70.0528 74.3502 72.8907 78.7777 75.0166C79.7919 75.5042 80.6989 76.2064 81.6546 76.811C81.9471 76.9963 82.2202 77.1914 82.6883 77.4937C82.5518 77.1133 82.5128 76.9768 82.4543 76.8403C80.5818 72.9004 78.4656 69.1166 75.7643 65.6741C71.6489 60.4177 66.6558 56.0877 61.4482 51.9723C61.0776 51.6798 60.5997 51.4457 60.1414 51.3482C56.6209 50.6363 53.1101 50.6265 49.5993 51.5432C47.7074 52.0308 45.7765 52.4209 43.8456 52.694C40.4908 53.1621 37.1361 53.0646 33.8399 52.2259C29.6855 51.1629 25.7358 49.5636 22.0398 47.3791C21.5717 47.0963 21.0256 46.8525 20.9085 46.0723C21.2109 45.9455 21.4839 45.7602 21.796 45.7115C24.8484 45.1946 27.9106 45.5554 30.9532 45.7895C33.2157 45.965 35.3807 46.6867 37.5262 47.4083C40.3836 48.364 43.2702 49.3002 46.2836 49.6221C48.0097 49.8074 49.7456 49.8854 51.4815 49.9927C52.9443 50.0804 54.4266 50.1194 55.8894 50.2267C57.0402 50.3145 58.1812 50.4705 59.332 50.5973C59.3807 50.5388 59.4295 50.4803 59.4782 50.4217C59.2637 50.2755 59.0491 50.1292 58.8443 49.9731C54.6217 46.9695 50.399 43.9658 46.1666 40.9719C45.2791 40.3478 44.2649 40.026 43.1922 39.987C40.013 39.8602 36.863 40.026 33.7521 40.8159C30.3193 41.6838 26.8671 42.503 23.4051 43.2637C21.2499 43.7415 19.0459 43.7805 16.8614 43.527C14.5014 43.2442 12.1609 42.8248 9.81061 42.503C6.86547 42.0934 3.91057 41.7228 0.955675 41.3133C0.653359 41.2742 0.360791 41.089 0.0682269 40.9719C0.0682269 40.8842 0.0584781 40.7866 0.0487259 40.6989C0.390051 40.5331 0.721621 40.299 1.08245 40.2113L1.03369 40.2308ZM31.8114 28.655C28.6322 24.7931 25.7651 20.7167 22.9175 16.6208C21.5912 14.6997 20.0113 12.9443 18.451 11.1987C16.8907 9.45303 15.2035 7.81467 13.5652 6.13731C13.2824 5.84474 12.9703 5.58143 12.6777 5.30837C12.6095 5.36689 12.5315 5.41565 12.4534 5.47416C13.7407 11.0426 15.7009 16.299 19.6603 20.5997C22.7322 23.935 26.2722 26.6948 30.056 29.1523C30.2998 29.3084 30.5729 29.4156 30.8947 29.4644C25.6481 24.5786 20.4404 19.6928 16.7346 13.4612C21.1328 19.4392 26.3405 24.6176 32.1527 29.2694C32.0357 29.0646 31.9577 28.8403 31.8114 28.6647V28.655ZM59.8488 23.7204C59.7513 21.731 59.5367 19.7318 59.2637 17.7521C58.8638 14.8167 57.8594 12.0471 56.6891 9.33601C55.6261 6.87847 54.5436 4.42093 53.4612 1.96339C53.3441 1.69033 53.1881 1.43678 52.9541 0.997932C52.8078 1.5343 52.6517 1.89513 52.6225 2.26571C52.3202 5.43515 52.2324 8.59484 52.4957 11.774C52.6225 13.2369 52.681 14.7094 52.7785 16.182C52.8955 18.0837 53.4612 19.8878 54.1243 21.653C55.4213 25.1442 57.3718 28.3039 59.1564 31.5416C59.1857 31.6001 59.2734 31.6294 59.5075 31.7854C58.4933 25.388 57.089 19.2149 56.182 12.954C57.6448 18.542 58.5225 24.247 59.8878 29.8838C59.8878 27.8261 59.9658 25.7586 59.8683 23.7009L59.8488 23.7204ZM73.5603 47.7204C73.8626 45.4579 73.8334 43.2149 73.4628 40.9427C72.5851 41.6936 71.3953 45.809 71.3953 48.013C71.3953 50.6265 72.0097 53.6985 73.0532 55.3758C73.0532 54.6249 73.0044 53.8642 73.0532 53.1231C73.1897 51.3189 73.3165 49.5148 73.5506 47.7204H73.5603ZM93.5522 84.1836C96.3315 77.4059 98.3892 70.4039 100.232 63.3238C100.31 63.3433 100.388 63.3628 100.466 63.3921C100.008 65.3133 99.579 67.2539 99.0816 69.1653C98.5843 71.0963 98.0382 73.0174 97.453 74.9289C96.8582 76.8695 96.1853 78.7809 95.6879 80.7899C95.8634 80.5363 96.0487 80.2925 96.195 80.0292C97.1702 78.3226 98.1259 76.6062 99.1109 74.8996C101.198 71.2913 102.397 67.3612 103.022 63.2751C103.392 60.8565 103.597 58.399 103.675 55.961C103.743 53.7765 103.558 51.5822 103.47 49.388C103.46 49.1052 103.353 48.8224 103.256 48.3348C102.992 48.7639 102.807 48.9882 102.69 49.2515C100.047 55.2198 97.2677 61.1393 95.6391 67.4977C94.9175 70.3161 94.3031 73.1442 94.1081 76.0601C93.952 78.4299 93.6887 80.7996 93.4839 83.1597C93.4547 83.4912 93.4839 83.8326 93.5619 84.1836H93.5522ZM105.177 115.546C105.284 115.41 105.411 115.283 105.499 115.127C108.317 109.832 111.213 104.536 112.91 98.7533C114.256 94.1698 115.29 89.4888 116.411 84.837C117.26 81.3263 118.02 77.7862 118.8 74.256C119.025 73.232 119.2 72.1885 119.376 71.145C119.415 70.9402 119.347 70.7257 119.308 70.3356C118.976 70.7159 118.732 70.9402 118.557 71.2133C114.451 77.8252 110.433 84.4957 107.868 91.9073C106.981 94.4819 106.396 97.1345 106.152 99.8456C105.889 102.81 105.694 105.785 105.46 108.759C105.352 110.105 105.206 111.451 105.079 112.806C105.147 112.845 105.216 112.874 105.284 112.913C107.839 105.404 109.555 97.6318 112.189 90.1422C109.965 98.6363 107.888 107.169 105.177 115.546ZM106.035 126.576C108.463 124.089 111.633 122.968 114.792 121.837C115.885 121.447 116.977 121.066 118.215 120.637C113.759 119.018 107.673 122.129 105.84 126.615C105.908 126.605 105.996 126.615 106.025 126.576H106.035ZM85.4384 115.03C82.2202 113.225 78.8167 111.958 75.1694 111.304C72.351 110.797 69.5229 110.778 66.6948 110.924C63.5254 111.08 60.4144 111.694 57.3035 112.309C55.2068 112.718 53.0711 112.972 50.8866 113.304C51.0914 113.45 51.2864 113.606 51.501 113.723C54.4559 115.293 57.6253 115.615 60.863 115.078C64.169 114.523 67.4262 113.713 70.7224 113.099C72.234 112.816 73.7846 112.592 75.3254 112.572C78.3974 112.523 81.2645 113.46 84.0244 114.757C84.785 115.117 85.5359 115.527 86.2868 115.917C86.3259 115.849 86.3649 115.781 86.4136 115.712C86.0918 115.488 85.7895 115.234 85.4482 115.039L85.4384 115.03ZM91.1727 120.169C87.3401 117.663 83.41 115.351 78.963 114.064C75.5205 113.069 72.1072 113.284 68.6745 114.123C66.5193 114.649 64.3445 115.137 62.1601 115.566C61.1361 115.771 60.0731 115.8 59.0199 115.898C59.0199 115.985 59.0101 116.063 59.0004 116.151C60.2682 116.297 61.5359 116.561 62.8135 116.58C66.1389 116.648 69.4742 116.541 72.7996 116.629C78.3389 116.775 83.7415 117.711 88.9687 119.584C89.7293 119.857 90.4705 120.179 91.4067 120.559C91.2409 120.296 91.2117 120.218 91.1629 120.179L91.1727 120.169ZM86.8915 102.605C82.6591 98.568 78.1633 94.9012 72.8679 92.3169C69.7667 90.8053 66.5095 89.7618 63.2035 88.8061C60.1609 87.9284 57.1475 86.963 54.1146 86.0463C53.9098 85.978 53.6952 85.9585 53.4612 85.9098C53.4612 86.0463 53.4319 86.1341 53.4612 86.1731C56.6404 89.8594 60.1706 93.1458 64.3836 95.6326C67.3482 97.3783 70.6054 98.3145 73.9211 99.0751C76.6712 99.709 79.4213 100.382 82.1617 101.035C82.2982 101.065 82.4445 101.084 82.581 101.113C82.6103 101.045 82.6298 100.967 82.6591 100.899C76.5445 97.2807 69.835 94.8622 63.6619 91.3807C71.5319 94.9792 79.6554 98.0414 86.9988 102.83C86.9695 102.752 86.9597 102.654 86.9012 102.596L86.8915 102.605ZM55.3043 68.824C53.0028 67.5953 50.633 66.5128 48.0292 66.0544C45.8935 65.6838 43.7383 65.5473 41.6026 65.7619C39.2133 66.0057 36.8533 65.8789 34.4933 65.518C34.425 65.518 34.3567 65.5571 34.1324 65.6253C41.5928 70.1113 49.5603 72.325 58.2105 72.1007C57.1475 71.8569 56.0747 71.6326 55.0215 71.3693C51.696 70.5404 48.3803 69.7115 45.0548 68.8728C44.8403 68.8143 44.655 68.6972 44.4697 68.5412C47.5416 69.2044 50.6135 69.9163 53.6952 70.5306C56.7866 71.1353 59.8196 72.091 63.028 72.2373C60.1999 71.6814 57.7911 70.1698 55.3043 68.8435V68.824ZM60.1804 58.7403C60.1511 59.0231 60.0829 59.1889 60.1219 59.3352C61.0191 62.7679 62.8525 65.518 65.9439 67.3612C66.8021 67.8683 67.6603 68.3852 68.5185 68.8923L68.6062 68.7558C65.8269 65.4498 63.0475 62.1536 60.1804 58.7403ZM84.668 37.744C84.746 37.7537 84.824 37.7635 84.902 37.783C83.9756 44.1121 83.0394 50.451 82.1129 56.7801C82.1812 56.7899 82.2495 56.8094 82.308 56.8191C82.7858 55.132 83.2637 53.4352 83.7318 51.748C84.6875 48.3738 85.6237 44.9996 86.1406 41.5278C86.4526 39.4408 86.6574 37.3441 86.9207 35.2474C87.2523 32.5948 87.5839 29.9423 87.935 27.2897C88.0812 26.1779 88.286 25.076 88.4616 23.9642C88.3836 23.9154 88.2958 23.8764 88.2178 23.8277C87.8277 24.4226 87.4278 24.9979 87.0573 25.6026C85.5359 28.1479 84.5412 30.9272 83.4977 33.6773C82.2007 37.1101 81.1865 40.6209 80.5916 44.2389C80.4258 45.2824 80.338 46.3356 80.299 47.3888C80.143 51.2507 80.4453 55.0833 80.9134 58.9159C80.9914 59.54 80.9914 60.1641 81.089 60.7883C82.1714 53.0841 83.1077 45.3701 84.668 37.7537V37.744ZM39.184 50.373C35.9073 49.9634 32.6989 49.1345 29.5294 48.1885C34.542 48.9492 39.4766 50.3047 44.7623 50.295C41.6026 49.3295 38.6282 48.4031 35.6343 47.5156C34.4445 47.1645 33.2352 46.7842 32.0162 46.6379C29.9195 46.3844 27.8033 46.2868 25.6968 46.1698C24.7509 46.1113 23.8049 46.1503 22.859 46.1796C22.5079 46.1893 22.1666 46.3063 21.8252 46.4916C30.2998 51.631 39.1938 54.1178 49.0825 51.1337C45.7375 50.8898 42.4412 50.7826 39.184 50.373ZM37.2044 12.3592C36.9215 10.594 36.1511 8.90691 35.5855 7.19054C35.4392 6.74194 35.2442 6.30309 35.0101 5.70821C33.7618 15.4408 35.9658 24.013 42.334 31.3856C41.505 29.5034 40.6566 27.6213 39.8667 25.7196C39.0573 23.7789 38.3063 21.8187 37.5262 19.8586C37.6042 19.8293 37.6822 19.7903 37.7602 19.761C39.4473 23.5644 41.1345 27.3775 42.8118 31.1808C42.8898 31.1613 42.9679 31.1418 43.0361 31.1125C43.0361 31.0052 43.0654 30.8882 43.0361 30.7907C41.7781 26.568 40.5201 22.3454 39.2621 18.1227C39.1938 17.9081 39.1158 17.6936 39.0573 17.479C38.5501 15.7334 37.5067 14.2218 37.2044 12.3494V12.3592ZM54.807 30.9077C53.4709 27.8748 51.3742 25.388 48.8484 23.3011C45.6204 20.629 42.3145 18.0642 39.028 15.4311C39.0085 15.4896 38.9305 15.6066 38.9597 15.6651C40.9004 19.4197 42.7046 23.2621 45.4059 26.568C47.3856 28.9768 49.8236 30.8492 52.4274 32.5266C50.1357 29.7082 47.8342 26.8898 45.5424 24.0715C45.64 23.974 45.7472 23.8764 45.8447 23.7789C49.1995 28.0211 52.7688 32.078 56.5331 35.9496C56.6209 35.9008 56.7086 35.8521 56.7964 35.8033C56.143 34.1747 55.5189 32.5266 54.8167 30.9175L54.807 30.9077ZM52.4664 44.707C55.6261 46.8525 58.6883 49.1345 61.7505 51.4067C63.145 52.4404 64.4323 53.6204 65.7684 54.7322C66.0024 54.9175 66.2365 55.1028 66.5973 55.2295C66.5193 55.015 66.4413 54.7907 66.3535 54.5859C65.2808 52.0113 64.1593 49.4465 63.1353 46.8525C62.043 44.0731 60.3949 41.6546 58.5908 39.3141C56.4551 36.564 53.8122 34.36 50.9646 32.4193C46.7419 29.5327 43.5725 25.7684 41.271 21.2336C41.115 20.9313 40.9394 20.6485 40.7639 20.3559C42.373 26.7533 43.9333 33.1702 47.3076 38.9337C48.6436 41.2157 50.2332 43.1954 52.4567 44.707H52.4664ZM4.38842 41.1962C6.73869 41.5375 9.0792 41.9081 11.4392 42.2202C13.7602 42.5225 16.0715 42.8443 18.4022 43.0199C20.9866 43.2149 23.5221 42.7956 26.0187 42.1422C28.2421 41.5668 30.4656 41.0012 32.8549 40.3966C29.8317 39.7334 26.9646 40.26 24.0975 40.2015C20.5867 40.143 17.0662 40.1235 13.5554 40.0942V39.8602C18.49 39.7627 23.4343 39.6554 28.5347 39.5481C28.3104 39.3823 28.2031 39.2653 28.0666 39.2165C24.1755 37.6855 20.1381 36.8663 15.9837 37.3441C13.3019 37.6562 10.6591 38.3584 8.00647 38.9532C6.31935 39.3336 4.64198 39.8114 2.96461 40.2503C2.61353 40.3478 2.27221 40.4843 1.93089 40.8256C2.75982 40.9524 3.579 41.0694 4.40793 41.1962H4.38842Z" fill="#FAD676"/>
</g>
<defs>
<clipPath id="clip0_46_696">
<rect width="120" height="152.202" fill="white" transform="matrix(-1 0 0 1 120 0.0324707)"/>
</clipPath>
</defs>
</svg>
