<svg width="72" height="175" viewBox="0 0 72 175" fill="none" xmlns="http://www.w3.org/2000/svg">
<g clip-path="url(#clip0_46_639)">
<path d="M0.973976 56.2517C2.21019 58.3199 3.88345 59.1085 5.73152 59.2488C6.69302 59.3189 7.67949 59.2838 8.6285 59.1261C9.6899 58.9508 10.5016 59.3714 11.2508 60.4055C14.1727 64.384 17.1072 68.345 20.0666 72.2709C21.7274 74.4617 23.4381 76.5649 25.1238 78.7031C25.5109 79.1939 25.923 79.6496 26.3351 80.1228C26.2851 80.2455 26.2352 80.3506 26.1852 80.4733C25.9854 80.4558 25.7607 80.4733 25.5734 80.3857C21.6025 78.3351 17.5068 77.1608 13.3111 76.6C11.8252 76.4072 10.8262 75.303 9.90218 73.8483C9.26534 72.8318 8.6285 71.7977 7.91675 70.8863C7.0052 69.7471 5.88137 69.3089 4.68261 69.5894C4.28303 69.677 3.74609 69.9048 3.5463 70.308C2.72216 72.0606 2.34755 74.0937 2.872 76.0742C3.40894 78.0722 4.48282 79.5269 6.19354 79.299C7.1925 79.1588 8.21643 78.966 9.16545 78.5103C11.1259 77.5464 13.1363 77.3185 15.1467 77.6866C17.2445 78.0897 19.3049 78.7382 21.5525 79.3341C19.4422 81.0166 17.5317 82.5589 15.6212 84.0837C14.385 83.891 13.1113 83.5229 11.8252 83.5054C10.1769 83.5054 9.46514 84.8724 9.66493 87.2911C10.3892 88.4128 11.3257 88.4303 12.3122 88.0798C13.9105 87.5365 15.2341 86.3096 16.4578 84.8374C18.1311 82.8218 19.9917 81.262 22.1269 80.4558C22.6889 80.2454 23.3507 80.3156 23.9376 80.4558C27.2841 81.2795 29.5942 84.3116 31.717 87.7643C33.9022 91.3397 35.9625 95.0027 37.5983 99.1214C37.9729 100.068 38.1602 101.295 38.1478 102.399C38.0853 106.395 37.9854 110.408 37.7232 114.405C37.411 119.049 36.9115 123.676 36.4745 128.321C36.437 128.706 36.2997 129.092 36.1374 129.758C35.7503 127.76 35.4381 126.06 35.0884 124.342C34.3642 120.802 33.1904 117.524 31.8668 114.352C30.9802 112.249 30.8054 110.04 31.155 107.692C31.6171 104.572 32.3288 101.523 32.2164 98.2802C32.1665 96.9832 32.0291 95.844 31.0052 95.3708C29.3444 96.5626 29.4069 98.1049 31.2674 102.399C30.9178 104.975 30.5806 107.552 30.1811 110.496C29.7565 109.707 29.4318 109.076 29.0947 108.463C28.0957 106.553 27.1342 104.572 26.0728 102.749C24.7617 100.489 23.9001 97.9647 23.4131 95.1429C23.2008 93.8986 22.9011 92.6367 22.4391 91.55C21.4027 89.0788 19.8293 87.8169 17.744 87.8519C16.795 87.8519 15.9833 88.3251 15.5213 89.4468C14.9969 90.7263 14.4599 92.0933 14.2477 93.4955C13.8356 96.177 14.7721 98.5431 16.6077 99.5596C17.5317 100.068 18.5682 100.436 19.5546 100.471C22.4017 100.576 24.7867 102.066 26.5099 105.151C28.3829 108.516 30.0312 112.126 31.7669 115.631C31.9043 115.912 32.0042 116.227 32.1041 116.525C32.129 116.613 32.0666 116.771 32.0541 116.858C29.5567 115.018 27.0343 113.213 24.5494 111.285C23.9875 110.847 23.5505 110.04 23.1009 109.339C22.4516 108.34 21.9272 107.131 21.2029 106.272C20.5161 105.466 19.692 104.765 18.8304 104.397C17.1072 103.661 15.7711 104.94 15.359 107.341C15.2091 108.183 14.9844 109.006 14.7596 109.83C14.1852 111.933 14.5348 113.756 15.821 115.053C17.3694 116.578 19.0052 116.963 20.7034 115.491C20.9532 115.281 21.2154 115.088 21.4402 114.825C22.8886 113.002 24.5744 113.195 26.2352 113.809C28.5577 114.685 30.6056 116.385 32.4162 118.576C32.9157 119.172 33.3403 119.995 33.6025 120.837C34.6889 124.325 35.4755 127.952 35.7128 131.773C35.7877 132.965 35.7503 134.227 35.5505 135.384C34.8262 139.502 33.9147 143.498 32.7534 147.354H33.8647C34.4516 145.199 35.1259 143.06 35.488 140.834C36.2497 136.313 37.7856 132.352 39.6337 128.583C42.5557 122.607 46.1644 117.472 49.7607 112.336C50.7346 110.934 52.1956 110.829 53.4943 110.321C54.3808 109.97 55.3174 109.883 56.154 109.392C57.2154 108.779 58.2643 108.025 59.2008 107.078C60.487 105.764 61.0489 103.959 60.3496 101.715C60.2747 101.47 60.2248 101.19 60.1998 100.927C59.9001 98.473 58.8262 97.0533 57.128 96.6502C55.4672 96.2646 54.0936 97.2461 53.0198 98.9812C52.1207 100.418 51.871 102.241 51.6837 104.064C51.5713 105.133 51.4214 106.202 51.2841 107.271C50.9969 109.409 49.923 110.829 48.949 112.301C47.3382 114.738 45.6774 117.139 44.0291 119.54C43.9417 119.68 43.7919 119.733 43.5796 119.908C43.5796 119.417 43.5796 119.049 43.5796 118.663C43.5796 117.121 43.7294 115.544 43.5671 114.036C43.3423 111.951 43.5172 110.146 44.5536 108.551C45.3403 107.341 45.8023 105.957 45.4402 104.257C44.3288 103.047 43.1301 103.398 42.5182 105.186C42.0812 106.448 42.0187 107.78 42.206 109.164C42.5057 111.355 42.8678 113.546 42.9802 115.772C43.155 119.049 42.5806 122.011 40.9448 124.605C39.7711 126.48 38.872 128.689 37.8481 130.757C37.5858 131.3 37.3361 131.878 37.0739 132.422C36.999 132.387 36.9115 132.334 36.8366 132.299C37.1613 129.092 37.5484 125.902 37.8106 122.677C38.1852 118.225 38.4599 113.774 38.8221 109.322C38.9344 108.007 39.0968 106.64 39.4589 105.413C39.9334 103.713 40.6576 102.154 41.1946 100.506C41.7315 98.8761 42.6056 97.807 43.7294 97.0183C47.1759 94.5996 50.7971 92.9346 54.6056 92.3212C56.7534 91.9707 58.9386 92.0057 61.1113 91.8655C62.1353 91.7954 62.8845 92.3387 63.3215 93.6882C63.5463 94.3543 63.8335 95.0027 64.1457 95.6162C65.6566 98.5431 68.1041 98.5781 69.7274 97.4915C70.6889 96.843 71.3382 95.8265 71.4006 94.179C71.4381 93.3202 71.6878 92.4789 71.8502 91.6201C72.4495 88.4654 70.5765 85.7488 68.3038 86.4323C66.8304 86.8704 65.6067 87.9396 64.5328 89.3417C63.4339 90.7964 62.1977 91.3222 60.6993 91.182C54.718 90.5861 49.0864 92.3738 43.7544 96.1945C43.6295 96.2822 43.4922 96.2997 43.155 96.4399C43.3673 95.8615 43.4547 95.4409 43.642 95.1254C45.0531 92.8119 46.4017 90.3582 47.95 88.2375C52.0083 82.6816 56.0416 77.1082 59.4006 70.6234C59.8127 69.8172 60.4121 69.1512 61.0239 68.6254C62.385 67.4687 63.8335 66.5047 65.2071 65.348C66.1186 64.5943 67.0302 63.7706 67.7919 62.7716C69.3902 60.6684 69.4776 57.9693 68.9032 55.2352C68.4912 53.2722 66.9677 52.6238 65.2445 53.43C63.2591 54.3589 61.948 56.3043 61.3361 59.0384C60.9615 60.7035 60.7617 62.4736 60.7118 64.2087C60.6618 66.1366 60.2497 67.7841 59.4381 69.2914C55.7794 76.0216 51.6087 82.0682 47.1883 87.7994C47.0884 87.922 46.9511 87.9746 46.7763 88.1148C46.7763 87.8519 46.7513 87.6416 46.8012 87.4839C48.6868 81.5775 49.873 75.3731 50.7471 69.0285C51.2841 65.1201 52.6826 62.0004 54.7305 59.3539C55.3049 58.6178 55.8793 57.8817 56.3788 57.0755C56.7284 56.5146 57.0656 55.8661 57.2154 55.1826C57.7898 52.5011 57.3777 50.2927 55.0177 50.3278C54.8304 50.3278 54.6306 50.3278 54.3933 50.3278C53.5567 49.0484 52.5203 48.6628 51.384 49.3814C50.0728 50.2226 49.461 51.8701 49.3861 53.798C49.3361 54.9197 49.5734 56.0765 49.7482 57.1982C49.8481 57.8466 50.0354 58.4951 50.2477 59.1085C51.0468 61.4045 51.1342 63.7881 50.6847 66.2418C50.0229 69.9224 49.3985 73.6029 48.7367 77.2835C48.6743 77.6691 48.512 78.0021 48.3621 78.4928C47.1134 76.3721 45.7898 74.4792 44.7908 72.2884C44.2539 71.1142 44.2289 69.4667 44.0541 68.012C43.8418 66.347 43.5796 64.7871 42.0812 64.2788C41.769 64.4892 41.3944 64.7521 41.0697 64.9624C40.5702 67.3109 41.3819 68.9409 42.3309 70.4306C43.1301 71.6925 44.0541 72.8142 44.9032 74.0236C46.1644 75.8288 47.3007 77.7567 48.1249 80.1052C47.6254 83.0146 46.9386 85.8364 45.8897 88.4478C45.128 90.3407 44.2289 92.1109 43.4173 93.9511C42.1811 96.7904 40.9823 99.6648 39.7711 102.522C39.5338 103.065 39.334 103.643 39.1093 104.204C39.0094 104.169 38.9095 104.134 38.8096 104.081C38.8096 100.436 38.8845 96.7729 38.7971 93.1274C38.6223 86.3447 38.1103 79.597 37.1987 72.9194C36.7867 69.9224 36.999 66.9604 37.1738 63.9984C37.2362 62.8592 37.5109 61.7375 37.5609 60.5983C37.6733 58.425 38.4225 56.6899 39.5088 55.2878C40.8574 53.5351 42.2685 51.8701 43.7294 50.3278C45.2404 48.7329 46.8637 47.3658 48.3746 45.7884C49.0989 45.0348 49.7731 44.1059 50.3101 43.0718C50.9969 41.7749 50.847 40.8284 49.9854 39.4614C48.8741 39.0057 48.0749 39.847 47.5505 41.0212C46.8012 42.6687 46.2144 44.4739 45.59 46.2091C45.4152 46.6823 45.3403 47.2256 45.2903 47.4534C42.9802 50.0298 40.8325 52.431 38.6223 54.8847C38.6472 54.6042 38.6223 54.2537 38.6847 53.9382C40.308 45.9286 43.1176 38.7778 46.6889 32.1704C47.1134 31.3992 47.7627 30.8033 48.3871 30.3476C49.8356 29.2785 51.3965 28.4372 52.8075 27.2805C53.7565 26.5093 54.6306 25.4753 55.3673 24.336C56.2664 22.969 56.6035 21.2339 55.9792 19.4286C55.3673 17.676 54.2435 17.2378 52.9448 17.2378C50.1103 17.2378 48.4995 19.1132 48.1124 23.004C47.9875 24.2134 47.8876 25.4402 47.8876 26.6495C47.8876 28.1568 47.5505 29.4538 46.8762 30.593C44.0541 35.3952 41.769 40.6532 39.9584 46.3142C39.8835 46.5421 39.7461 46.7349 39.4089 47.3308C39.4464 43.3698 39.0843 39.9521 37.4859 36.7798C37.9105 35.4128 38.2976 33.9581 38.7971 32.591C39.7336 29.9971 39.4964 29.0507 37.5734 27.9465C35.7752 28.7352 35.0385 30.2425 35.563 32.6436C35.9376 34.3787 36.4745 36.0788 37.1488 37.6211C39.0593 41.9501 39.3465 46.6297 38.4974 51.3443C37.5858 56.4095 36.6243 61.422 36.2997 66.7326C36.1374 65.9964 36 65.2603 35.8252 64.5417C34.7388 60.1251 33.6774 55.6734 32.5536 51.2742C31.6046 47.5235 30.8678 43.7203 31.2924 39.7243C31.8668 34.2735 32.9282 28.9981 34.7263 24.0556C34.9761 23.3546 35.3507 22.7236 35.6628 22.0927C36.6493 22.0927 37.5234 22.1628 38.3725 22.0927C40.3455 21.8999 41.7565 20.4452 42.4807 17.9038C43.205 15.345 42.6056 13.1191 41.282 11.2263C41.1821 11.086 41.0697 10.9458 40.9698 10.8056C39.2591 8.33439 37.6233 8.28181 35.8377 10.6128C34.1269 12.8562 33.64 15.9759 34.7013 18.9729C35.2508 20.5503 35.2258 21.7772 34.564 23.3195C32.666 27.7011 31.5172 32.5209 30.8928 37.9892C30.668 37.2005 30.4433 36.7974 30.4433 36.3767C30.3184 29.6466 30.1811 22.9339 30.1311 16.2038C30.1311 15.4326 30.5307 14.5738 30.8928 13.8903C31.3798 12.9614 32.0666 12.2428 32.5661 11.3314C33.7898 9.10555 34.5515 6.66937 33.8897 3.77751C33.4651 1.93723 32.5661 0.815536 31.1925 0.517586C30.5182 0.377375 29.8564 0.20211 29.1821 0.167057C27.4464 0.0268455 26.2601 1.51659 26.1103 3.98783C25.9605 6.30132 26.3725 8.43955 27.1342 10.4551C27.359 11.051 27.5713 11.6995 27.9084 12.1727C29.4443 14.4161 29.7066 17.0976 29.6191 20.0771C29.4943 24.2134 29.4818 28.3671 29.6191 32.5209C29.7315 35.9736 30.1311 39.3913 30.3933 42.8265C30.4183 43.0894 30.3933 43.3523 30.3933 43.9306C30.1311 43.4749 29.9188 43.2471 29.8314 42.9491C27.2591 35.0973 24.2372 27.596 21.0655 20.2173C20.2414 18.3069 20.1041 16.3089 20.3413 14.1356C20.5536 12.1902 20.8033 10.2272 20.7534 8.28181C20.7159 6.84464 20.3538 5.33736 19.8793 4.05793C19.0302 1.77949 17.1446 0.903169 15.384 1.70939C14.1103 2.28776 12.8241 2.86613 11.5629 3.51461C10.1269 4.25072 9.27783 6.70443 9.56503 9.08802C10.052 13.0315 12.6993 16.6069 15.5838 17.1677C15.7711 17.2028 15.9709 17.1852 16.1706 17.2203C18.206 17.5533 19.7419 18.7802 20.8658 21.3565C24.6368 30.0146 27.7836 39.0933 30.743 48.3473C30.8179 48.5751 30.8429 48.8205 30.9677 49.4164C30.6306 49.0133 30.4683 48.8906 30.3559 48.6978C26.2102 41.5821 20.9906 36.3767 15.3465 31.8899C14.8345 31.4868 14.41 30.7858 14.0479 30.1022C13.1238 28.4372 12.3371 26.6495 11.3507 25.0546C10.539 23.7577 9.45265 23.004 8.16649 22.8814C5.89385 22.671 4.60769 24.9144 5.29448 27.964C6.0437 31.3116 7.40478 32.5735 10.2768 31.7497C12.512 31.1013 14.36 31.7497 16.1582 33.4849C18.0687 35.3251 20.0291 37.0778 21.9646 38.9005C22.2268 39.1459 22.4641 39.4789 22.8762 39.9872C22.2643 39.9872 21.8897 40.0748 21.5401 39.9872C20.0416 39.5315 18.5432 39.4964 17.0947 40.1624C15.8834 40.7233 14.8221 40.3728 13.7607 39.6191C13.3361 39.3036 12.8866 39.0407 12.4495 38.7778C11.7003 38.3222 11.0385 38.4799 10.5016 39.3737C10.4141 41.3718 10.9636 42.4058 12.3122 42.4409C13.2112 42.4584 14.1228 42.1429 15.0218 41.9151C15.4464 41.8099 15.8585 41.5996 16.2705 41.3893C18.8928 40.0047 21.5026 40.4954 24.0624 41.6872C24.6368 41.9501 25.1863 42.4935 25.6483 43.0543C27.8834 45.7884 29.8689 48.838 31.5671 52.2732C33.0531 55.2878 33.7149 58.7931 34.4891 62.2107C36.0624 69.1512 37.0489 76.2494 37.4485 83.5229C37.6733 87.7117 37.8606 91.9181 38.0603 96.1069C38.0853 96.6677 38.0603 97.2461 38.0603 98.1049C37.7482 97.7369 37.6233 97.6317 37.5484 97.4915C33.0905 88.6932 29.5692 79.2289 26.8595 69.1337C26.435 67.5388 26.0603 65.9263 25.5234 64.4015C24.3746 61.1241 24.3871 57.759 24.7617 54.2712C24.9365 52.6062 24.924 50.8711 24.8241 49.1886C24.6493 46.4544 23.0385 44.0358 21.4027 43.8079C19.8044 43.5801 18.5557 44.3688 17.719 46.3318C16.8574 48.3473 16.8699 50.4329 17.8564 52.2557C18.5806 53.5877 19.5297 54.6919 20.4287 55.8136C20.9781 56.4796 21.7024 56.8652 22.2019 57.5662C22.9011 58.5652 23.7128 59.6168 24.025 60.8787C26.0104 68.8357 28.2331 76.635 30.9303 84.1539C30.9927 84.3116 30.9802 84.5394 31.0302 84.9951C30.7679 84.8023 30.6181 84.7147 30.5057 84.5745C27.5338 80.6836 24.5994 76.7051 21.5775 72.8843C19.4547 70.2028 18.668 66.68 18.2185 62.9819C18.0812 61.8251 18.4683 60.4756 18.7555 59.2663C19.2175 57.3384 19.18 56.8126 17.9188 55.13C17.3569 55.2702 16.6077 55.2702 15.9709 55.6383C14.5224 56.4971 14.2352 58.6353 15.2716 60.3179C15.4339 60.5808 15.5962 60.8437 15.8085 61.0014C17.9813 62.6138 17.8064 65.8036 18.5681 68.3625C18.4807 68.4501 18.4058 68.5202 18.3309 68.6079C17.9688 68.1872 17.5817 67.8192 17.2445 67.3635C15.6087 65.1376 13.9854 62.8943 12.3621 60.6684C11.4506 59.424 11.0635 57.8466 10.9136 56.1115C10.6889 53.5527 10.027 51.2567 8.76586 49.3288C7.96669 48.0844 7.00519 47.2256 5.83142 46.8225C4.18313 46.2792 2.75962 46.6297 1.71071 48.6803C1.42351 49.2236 1.11133 49.7494 0.824134 50.2927C-0.337157 52.5186 -0.312185 54.0434 0.949002 56.1641L0.973976 56.2517Z" fill="#F5F1EE"/>
<path d="M0.836585 50.3804C1.12379 49.8371 1.43596 49.3113 1.72316 48.768C2.77207 46.7174 4.20808 46.3493 5.84387 46.9101C7.01765 47.2957 7.96666 48.1721 8.77831 49.4164C10.027 51.3443 10.6888 53.6228 10.9261 56.1992C11.0759 57.9168 11.463 59.4941 12.3746 60.7561C13.9979 62.9819 15.6212 65.2253 17.257 67.4512C17.5941 67.9068 17.9812 68.2924 18.3433 68.6955C18.4308 68.6079 18.5057 68.5378 18.5806 68.4502C17.8189 65.8913 17.9937 62.684 15.821 61.0891C15.6087 60.9313 15.4464 60.6509 15.284 60.4055C14.2476 58.723 14.5223 56.5848 15.9833 55.726C16.6201 55.3579 17.3694 55.3579 17.9313 55.2177C19.1925 56.9002 19.2299 57.426 18.7679 59.3539C18.4807 60.5457 18.0811 61.8953 18.231 63.0695C18.6805 66.7676 19.4672 70.2904 21.59 72.972C24.6118 76.7928 27.5463 80.7537 30.5182 84.6621C30.6306 84.8024 30.7804 84.8725 31.0426 85.0828C30.9927 84.6096 31.0052 84.3992 30.9427 84.2415C28.2455 76.7227 26.0229 68.9059 24.0374 60.9664C23.7252 59.722 22.9136 58.6529 22.2143 57.6539C21.7148 56.9353 20.9781 56.5672 20.4412 55.9012C19.5421 54.7795 18.5806 53.6929 17.8688 52.3433C16.8824 50.5031 16.8699 48.4174 17.7315 46.4194C18.5681 44.4564 19.8168 43.6678 21.4152 43.8956C23.0509 44.141 24.6618 46.5421 24.8366 49.2762C24.949 50.9588 24.9615 52.6939 24.7742 54.3589C24.3995 57.8642 24.3871 61.2293 25.5359 64.4892C26.0728 66.014 26.4349 67.6264 26.872 69.2213C29.5816 79.299 33.103 88.7809 37.5608 97.5791C37.6358 97.7194 37.7606 97.8245 38.0728 98.1926C38.0728 97.3338 38.0978 96.7554 38.0728 96.1946C37.873 91.9882 37.6857 87.7994 37.4609 83.6106C37.0614 76.3546 36.0749 69.2389 34.5015 62.2984C33.7273 58.8807 33.0655 55.3754 31.5796 52.3609C29.8813 48.9432 27.8959 45.8761 25.6607 43.142C25.1987 42.5811 24.6493 42.0378 24.0749 41.7749C21.515 40.5831 18.9053 40.0924 16.283 41.4769C15.8834 41.6873 15.4589 41.8976 15.0343 42.0027C14.1352 42.2306 13.2237 42.5461 12.3246 42.5285C10.976 42.4935 10.4266 41.4594 10.514 39.4614C11.0509 38.5851 11.7128 38.4098 12.462 38.8655C12.9115 39.1284 13.3486 39.4088 13.7731 39.7068C14.8345 40.4779 15.8959 40.8285 17.1071 40.2501C18.5556 39.5841 20.0541 39.6191 21.5525 40.0748C21.9021 40.18 22.2768 40.0748 22.8886 40.0748C22.4641 39.5666 22.2393 39.2336 21.9771 38.9882C20.0416 37.183 18.0936 35.4128 16.1706 33.5725C14.3725 31.8374 12.5244 31.1889 10.2892 31.8374C7.41723 32.6611 6.05615 31.3992 5.30693 28.0517C4.62015 25.0021 5.90631 22.7412 8.17894 22.969C9.4651 23.0917 10.5515 23.8453 11.3631 25.1423C12.3371 26.7197 13.1363 28.5249 14.0603 30.1899C14.4349 30.8559 14.847 31.557 15.359 31.9776C21.0031 36.4644 26.2226 41.6697 30.3683 48.7855C30.4807 48.9783 30.6306 49.101 30.9802 49.5041C30.8553 48.9082 30.8303 48.6628 30.7554 48.4349C27.8085 39.1985 24.6618 30.1023 20.8782 21.4442C19.7544 18.8678 18.2185 17.641 16.1831 17.308C15.9958 17.2729 15.796 17.2904 15.5962 17.2554C12.7242 16.6945 10.0645 13.1191 9.57748 9.17567C9.29028 6.79207 10.1394 4.33837 11.5754 3.60226C12.8366 2.95378 14.1227 2.37541 15.3964 1.79703C17.1571 0.990815 19.0426 1.86714 19.8917 4.14558C20.3662 5.42501 20.7284 6.94981 20.7658 8.36946C20.8158 10.3149 20.5785 12.2779 20.3538 14.2233C20.1165 16.379 20.2539 18.3946 21.078 20.305C24.2622 27.6836 27.2716 35.2025 29.8439 43.0368C29.9438 43.3347 30.1436 43.5626 30.4058 44.0183C30.4058 43.4399 30.4183 43.177 30.4058 42.9141C30.1436 39.4789 29.744 36.0613 29.6316 32.6086C29.4942 28.4723 29.5067 24.3185 29.6316 20.1648C29.719 17.1853 29.4568 14.5037 27.9209 12.2603C27.5962 11.7871 27.3839 11.1386 27.1467 10.5427C26.385 8.52719 25.9729 6.38897 26.1227 4.07547C26.2851 1.60424 27.4589 0.114492 29.1945 0.254704C29.8688 0.307283 30.5431 0.465021 31.205 0.605233C32.5785 0.903183 33.4776 2.02488 33.9021 3.86515C34.564 6.75702 33.8022 9.1932 32.5785 11.4191C32.079 12.3304 31.3923 13.049 30.9053 13.9779C30.5431 14.6439 30.1436 15.5203 30.1436 16.2914C30.1935 23.0216 30.3184 29.7342 30.4557 36.4644C30.4557 36.885 30.6805 37.2881 30.9053 38.0768C31.5421 32.591 32.6784 27.7888 34.5764 23.4072C35.2383 21.8824 35.2757 20.638 34.7138 19.0606C33.6524 16.0636 34.1394 12.9263 35.8501 10.7005C37.6358 8.36946 39.284 8.42204 40.9823 10.8933C41.0822 11.0335 41.1945 11.1737 41.2944 11.3139C42.6306 13.2068 43.2174 15.4326 42.4932 17.9915C41.769 20.5328 40.3579 21.97 38.385 22.1803C37.5234 22.2679 36.6493 22.1803 35.6753 22.1803C35.3631 22.8288 34.9885 23.4422 34.7388 24.1433C32.9406 29.0857 31.8793 34.3612 31.3048 39.8119C30.8803 43.808 31.617 47.6112 32.566 51.3619C33.6899 55.761 34.7513 60.1952 35.8376 64.6294C36.0124 65.348 36.1623 66.0841 36.3121 66.8202C36.6493 61.5272 37.6108 56.4971 38.5098 51.432C39.359 46.7174 39.0718 42.0203 37.1613 37.7088C36.487 36.1664 35.95 34.4664 35.5754 32.7312C35.0634 30.3126 35.7877 28.8228 37.5858 28.0341C39.5213 29.1558 39.7461 30.1023 38.8095 32.6787C38.3101 34.0457 37.923 35.5004 37.4984 36.8675C39.0842 40.0398 39.4464 43.4574 39.4214 47.4184C39.7461 46.8225 39.8959 46.6297 39.9708 46.4019C41.7814 40.7233 44.079 35.4654 46.8886 30.6806C47.5629 29.5414 47.8876 28.2445 47.9001 26.7372C47.9001 25.5279 48.0124 24.301 48.1248 23.0917C48.5119 19.2008 50.1103 17.3255 52.9573 17.3255C54.2684 17.3255 55.3798 17.7636 55.9916 19.5163C56.616 21.3215 56.2788 23.0391 55.3798 24.4237C54.643 25.5629 53.769 26.597 52.8199 27.3681C51.4089 28.5249 49.848 29.3486 48.3995 30.4353C47.7752 30.891 47.1259 31.4869 46.7013 32.258C43.13 38.848 40.3205 46.0163 38.6971 54.0259C38.6347 54.3414 38.6472 54.6919 38.6347 54.9723C40.8449 52.5186 42.9927 50.1175 45.3028 47.5411C45.3527 47.3133 45.4276 46.7699 45.6025 46.2967C46.2393 44.5441 46.8137 42.7564 47.5629 41.1089C48.0874 39.9521 48.8865 39.1109 49.9979 39.549C50.8595 40.9161 51.0093 41.8625 50.3225 43.1595C49.7856 44.176 49.1113 45.1224 48.3871 45.8761C46.8761 47.4535 45.2403 48.8205 43.7419 50.4154C42.2809 51.9578 40.8574 53.6228 39.5213 55.3754C38.4474 56.7775 37.6982 58.5127 37.5733 60.6859C37.5109 61.8252 37.2487 62.9469 37.1862 64.0861C37.0239 67.0656 36.7991 70.01 37.2112 73.007C38.1227 79.6671 38.6222 86.4148 38.8095 93.2151C38.9094 96.8606 38.822 100.524 38.822 104.169C38.9219 104.204 39.0218 104.239 39.1217 104.292C39.334 103.731 39.5463 103.153 39.7835 102.609C40.9948 99.7524 42.1935 96.8781 43.4297 94.0388C44.2289 92.181 45.1404 90.4108 45.9021 88.5355C46.9511 85.924 47.6378 83.1198 48.1373 80.1929C47.3132 77.8444 46.1769 75.9164 44.9157 74.1112C44.0666 72.9019 43.1425 71.7802 42.3434 70.5183C41.3943 69.0285 40.5952 67.3986 41.0822 65.05C41.4068 64.8222 41.7814 64.5768 42.0936 64.3665C43.5921 64.8748 43.8543 66.4346 44.0666 68.0996C44.2539 69.5543 44.2663 71.2193 44.8033 72.3761C45.8022 74.5669 47.1259 76.4598 48.3746 78.5805C48.5369 78.0897 48.6867 77.7392 48.7492 77.3711C49.411 73.6906 50.0353 70.01 50.6972 66.3295C51.1342 63.8758 51.0593 61.5097 50.2601 59.1962C50.0478 58.6003 49.8605 57.9518 49.7606 57.2858C49.5858 56.1641 49.3486 55.0074 49.3985 53.8857C49.4734 51.9753 50.0853 50.3103 51.3964 49.469C52.5327 48.7504 53.5692 49.136 54.4058 50.4154C54.6555 50.4154 54.8428 50.4154 55.0301 50.4154C57.3902 50.3804 57.8147 52.5887 57.2278 55.2703C57.078 55.9538 56.7409 56.6023 56.3912 57.1631C55.8793 57.9869 55.3049 58.7055 54.7429 59.4416C52.6951 62.0881 51.2965 65.2078 50.7596 69.1162C49.898 75.4432 48.7117 81.6476 46.8137 87.5715C46.7637 87.7293 46.8012 87.9396 46.7887 88.2025C46.9635 88.0798 47.1134 88.0097 47.2008 87.887C51.6212 82.1559 55.7918 76.0917 59.4505 69.3791C60.2622 67.8893 60.6743 66.2243 60.7242 64.2964C60.7742 62.5613 60.9739 60.7736 61.3486 59.1261C61.9604 56.392 63.2716 54.4465 65.257 53.5176C66.9677 52.7114 68.5036 53.3599 68.9157 55.3228C69.4901 58.057 69.3902 60.7561 67.8043 62.8592C67.0426 63.8758 66.1186 64.682 65.2195 65.4356C63.846 66.5748 62.3975 67.5563 61.0364 68.7131C60.4245 69.2213 59.8251 69.9049 59.4131 70.7111C56.0666 77.1783 52.0208 82.7518 47.9625 88.3252C46.4141 90.4459 45.078 92.8996 43.6545 95.2131C43.4672 95.5286 43.3798 95.9492 43.1675 96.5276C43.5046 96.3873 43.6545 96.3698 43.7669 96.2822C49.0863 92.4439 54.7304 90.6737 60.7117 91.2696C62.2102 91.4098 63.4339 90.884 64.5452 89.4293C65.6191 88.0272 66.8428 86.9581 68.3163 86.52C70.5889 85.8364 72.462 88.5705 71.8626 91.7078C71.7003 92.5491 71.4505 93.3903 71.4131 94.2666C71.3381 95.9141 70.6888 96.9307 69.7398 97.5791C68.1165 98.6483 65.6691 98.6307 64.1581 95.7038C63.846 95.1079 63.5588 94.4594 63.334 93.7759C62.8845 92.4264 62.1477 91.883 61.1238 91.9532C58.9511 92.0934 56.7658 92.0583 54.6181 92.4088C50.797 93.0398 47.1758 94.6873 43.7419 97.1059C42.6181 97.8946 41.744 98.9462 41.207 100.594C40.6576 102.259 39.9459 103.819 39.4713 105.501C39.1217 106.728 38.9469 108.095 38.8345 109.41C38.4599 113.861 38.1977 118.313 37.8231 122.765C37.5483 125.972 37.1737 129.179 36.8491 132.387C36.924 132.439 37.0114 132.474 37.0863 132.509C37.3486 131.949 37.5983 131.388 37.8605 130.844C38.872 128.776 39.771 126.55 40.9573 124.693C42.5806 122.099 43.155 119.137 42.9927 115.859C42.8803 113.651 42.5182 111.443 42.2185 109.252C42.0312 107.867 42.0936 106.535 42.5307 105.273C43.1425 103.486 44.3538 103.135 45.4526 104.344C45.8147 106.044 45.3652 107.429 44.566 108.638C43.5296 110.233 43.3548 112.038 43.5796 114.124C43.7419 115.631 43.6045 117.209 43.5921 118.751C43.5921 119.119 43.5921 119.505 43.5921 119.995C43.8043 119.82 43.9542 119.75 44.0416 119.627C45.6899 117.226 47.3381 114.825 48.9615 112.389C49.9354 110.899 51.0218 109.48 51.2965 107.359C51.4464 106.29 51.5837 105.221 51.6961 104.152C51.8959 102.329 52.1332 100.524 53.0322 99.0689C54.1186 97.3163 55.4797 96.3523 57.1404 96.7379C58.8387 97.1235 59.9126 98.5606 60.2122 101.014C60.2497 101.277 60.2872 101.558 60.3621 101.803C61.0489 104.046 60.4994 105.852 59.2133 107.166C58.2892 108.113 57.2278 108.866 56.1665 109.48C55.3298 109.953 54.3808 110.058 53.5067 110.409C52.2206 110.917 50.7596 111.039 49.7731 112.424C46.1644 117.542 42.5556 122.695 39.6462 128.671C37.8106 132.439 36.2622 136.4 35.5005 140.922C35.1259 143.148 34.4641 145.304 33.8772 147.442C31.6045 155.714 28.3329 163.286 25.3236 171.033C24.9989 171.856 24.5993 172.645 24.1498 173.364C23.9126 173.732 23.488 173.889 23.1633 174.135C22.489 172.925 22.489 171.856 22.8387 170.822C23.3631 169.297 23.8876 167.773 24.5369 166.353C25.6857 163.847 26.8969 161.375 28.1456 158.957C30.0312 155.329 31.5421 151.473 32.7533 147.442C33.9146 143.586 34.8262 139.59 35.5504 135.471C35.7502 134.315 35.7877 133.053 35.7128 131.861C35.4755 128.058 34.6763 124.43 33.6025 120.924C33.3402 120.083 32.9157 119.259 32.4162 118.663C30.5931 116.49 28.5577 114.773 26.2351 113.896C24.5744 113.265 22.8761 113.09 21.4401 114.913C21.2278 115.176 20.9531 115.351 20.7034 115.579C19.0052 117.051 17.3694 116.683 15.821 115.141C14.5223 113.861 14.1852 112.021 14.7596 109.918C14.9843 109.094 15.2091 108.288 15.359 107.429C15.771 105.01 17.1071 103.748 18.8303 104.485C19.6795 104.853 20.5161 105.554 21.2029 106.36C21.9271 107.219 22.4516 108.428 23.1009 109.427C23.5504 110.128 23.9875 110.934 24.5494 111.372C27.0218 113.3 29.5442 115.106 32.0541 116.946C32.0666 116.858 32.129 116.718 32.104 116.613C32.0166 116.297 31.9042 115.982 31.7669 115.719C30.0312 112.214 28.3829 108.603 26.5098 105.238C24.7866 102.136 22.4016 100.664 19.5546 100.559C18.5681 100.524 17.5317 100.156 16.6077 99.6473C14.7721 98.6307 13.8231 96.2647 14.2476 93.5831C14.4724 92.1635 14.9968 90.7964 15.5213 89.5345C15.9833 88.4303 16.795 87.9571 17.744 87.9396C19.8293 87.9045 21.4027 89.1664 22.4391 91.6377C22.9011 92.7243 23.2008 93.9862 23.4131 95.2306C23.9001 98.0524 24.7492 100.576 26.0728 102.837C27.1342 104.677 28.0957 106.64 29.0947 108.551C29.4193 109.182 29.7565 109.795 30.181 110.584C30.5806 107.639 30.9178 105.063 31.2674 102.487C29.4068 98.1926 29.3444 96.6502 31.0052 95.4584C32.0291 95.9141 32.1665 97.0709 32.2164 98.3678C32.3288 101.61 31.6045 104.66 31.155 107.78C30.8179 110.128 30.9927 112.319 31.8668 114.44C33.1904 117.594 34.3642 120.872 35.0884 124.43C35.438 126.13 35.7502 127.847 36.1373 129.845C36.2996 129.179 36.437 128.794 36.4745 128.408C36.899 123.764 37.411 119.154 37.7232 114.492C37.9854 110.514 38.0853 106.5 38.1477 102.487C38.1602 101.4 37.9729 100.173 37.5983 99.2091C35.975 95.0904 33.9021 91.4098 31.7169 87.852C29.5941 84.3992 27.284 81.3672 23.9375 80.5434C23.3506 80.4032 22.6888 80.3156 22.1269 80.5434C19.9916 81.3496 18.1311 82.9095 16.4578 84.925C15.2341 86.3973 13.9105 87.6241 12.3121 88.1674C11.3257 88.5004 10.3891 88.4829 9.66489 87.3787C9.45261 84.9601 10.1769 83.593 11.8251 83.593C13.1113 83.593 14.3975 83.9611 15.6212 84.1714C17.5317 82.6466 19.4422 81.1218 21.5525 79.4217C19.3173 78.8434 17.2445 78.1774 15.1467 77.7742C13.1238 77.3887 11.1259 77.6165 9.16541 78.598C8.22889 79.0537 7.20495 79.264 6.19351 79.3867C4.48279 79.6145 3.40891 78.1598 2.87197 76.1618C2.34751 74.1813 2.73461 72.1483 3.54626 70.3956C3.74606 69.975 4.27051 69.7647 4.68258 69.677C5.89382 69.3966 7.01765 69.8348 7.91671 70.974C8.62847 71.8678 9.26531 72.9194 9.90214 73.936C10.8262 75.3906 11.8251 76.4948 13.3111 76.6876C17.5067 77.2485 21.6025 78.4227 25.5733 80.4733C25.7606 80.5785 25.9854 80.5259 26.1852 80.561C26.2351 80.4383 26.2851 80.3331 26.335 80.2104C25.9354 79.7372 25.5234 79.2815 25.1238 78.7908C23.4256 76.6526 21.7148 74.5494 20.0666 72.3586C17.1071 68.4326 14.1727 64.4717 11.2507 60.4932C10.5015 59.4766 9.67738 59.0385 8.62847 59.2137C7.66697 59.3715 6.69299 59.4065 5.73149 59.3364C3.88341 59.1962 2.21015 58.4075 0.973942 56.3394C-0.287244 54.2187 -0.312216 52.6939 0.849074 50.468L0.836585 50.3804ZM18.231 58.6178C18.4432 57.724 18.4682 56.8476 17.8189 56.2517C17.3194 55.7961 16.2705 56.1641 15.6836 56.9528C15.1966 57.6013 15.0718 58.4426 15.4713 59.1436C15.9958 60.055 16.6701 60.8086 17.3569 61.7375C17.7065 60.4756 17.9937 59.5643 18.2185 58.6178H18.231ZM24.0874 49.3463C23.7877 46.805 22.7388 45.2101 20.8033 44.5616C20.3288 44.842 19.7044 45.0874 19.205 45.5606C17.8813 46.8225 17.4693 49.3989 18.3309 51.3443C18.7804 52.3609 19.4547 53.2021 20.0416 54.096C20.2414 54.3939 20.4786 54.6218 20.7159 54.8672C21.6899 55.8486 22.6639 56.8126 23.6628 57.7766C24.1623 54.9723 24.4245 52.1856 24.0999 49.3463H24.0874ZM11.0759 39.8996C11.5255 41.7924 11.9001 41.9677 14.2726 41.179C13.1238 40.3377 12.2996 39.1634 11.0759 39.8996ZM11.4006 26.7547C10.5889 25.3701 9.57748 24.3361 8.30381 23.8979C7.46718 23.6 6.7804 23.9505 6.21848 24.8268C5.68154 25.6681 5.63159 26.5619 5.90631 27.6486C6.64304 30.4353 7.69195 31.3642 9.76479 30.926C10.8886 30.6982 12.0249 30.558 13.3111 30.3652C12.6618 29.1208 12.0624 27.8939 11.3881 26.7547H11.4006ZM19.3798 4.91674C18.6056 2.70841 16.9448 1.93724 15.3215 2.93625C14.3475 3.53215 13.4235 4.12805 12.3371 4.33837C11.0759 4.58374 10.3766 5.96833 10.3017 7.79108C10.2268 9.64889 10.6514 11.2613 11.5005 12.6459C12.6368 14.4862 14.0104 15.7481 15.771 16.1687C16.9948 16.4667 18.1935 16.9399 19.5421 17.3605C19.7044 14.3109 19.9292 11.349 19.9791 8.40451C19.9916 7.24776 19.7419 5.98586 19.3673 4.91674H19.3798ZM31.8917 10.9283C32.8657 9.35094 33.4651 7.54571 33.3777 5.38996C33.3028 3.14657 32.2913 1.58671 30.693 1.34134C30.1685 1.27124 29.6316 1.28876 29.1071 1.27124C27.6961 1.21866 26.9968 2.07746 26.872 4.11053C26.7471 6.19617 27.0468 8.15914 27.7835 9.94684C28.3579 11.3314 29.0322 12.6284 29.7565 14.1707C30.5806 12.9088 31.2549 11.9449 31.8793 10.9283H31.8917ZM36.0499 20.9184C38.385 22.1453 40.9448 20.6205 41.8564 17.5183C42.2809 16.0811 42.1935 14.679 41.5816 13.4521C41.0322 12.348 40.3704 11.3314 39.6711 10.4025C39.0718 9.59631 38.335 9.7891 37.6358 10.1922C35.5255 11.4191 34.4016 14.9244 35.1633 17.9564C35.4131 18.9204 35.7252 19.8318 36.0499 20.9184ZM38.4224 31.7322C38.847 30.4703 38.6722 29.5589 37.9854 29.1558C37.2861 28.7527 36.4495 29.4187 36.2747 30.6806C36.0499 32.3106 36.2622 33.8529 37.1238 35.3953C37.6233 33.9931 38.0353 32.8714 38.4224 31.7147V31.7322ZM53.9063 25.0196C54.2435 24.6515 54.5431 24.1959 54.8179 23.7226C55.4922 22.5484 55.8668 21.2164 55.2924 19.7967C54.7304 18.4121 53.694 18.009 52.6576 18.1492C50.7221 18.4121 49.2237 19.9369 48.924 22.4432C48.6618 24.599 48.5868 26.8073 48.4245 29.2084C50.5098 28.0341 52.2955 26.7372 53.9063 25.0196ZM49.8355 42.6863C50.2226 41.8801 50.5098 40.9687 49.6233 40.3202C48.1748 41.0738 47.001 43.3523 46.514 46.507C47.8501 45.4905 49.0114 44.3688 49.8355 42.6687V42.6863ZM42.8928 66.0666C42.718 65.6459 42.156 65.5408 41.5067 65.1201C41.4318 67.8192 42.3309 69.1337 43.4047 70.6234C43.7294 68.8182 43.4297 67.3635 42.9053 66.049L42.8928 66.0666ZM51.7585 62.351C53.1446 60.388 54.4932 58.4776 55.8418 56.5497C56.079 56.2167 56.2663 55.8136 56.4287 55.393C57.4027 52.9217 56.8158 51.5371 54.8054 51.5196H54.2185C53.5567 50.8887 52.9948 50.3804 52.5452 49.9422C50.2226 50.7134 49.8605 53.8156 50.3225 56.1992C50.5223 57.2508 50.822 58.2498 51.0593 59.2838C51.2965 60.3004 51.5213 61.3169 51.7585 62.351ZM66.3309 63.2448C67.7169 62.0355 68.5286 60.2127 68.5286 57.8467C68.5286 55.6909 68.079 54.7971 66.6555 54.0785C63.4089 54.8496 61.848 58.2498 61.4984 62.4386C61.3735 63.9108 61.2736 65.383 61.1113 67.3986C63.0718 65.8563 64.745 64.6469 66.3184 63.2448H66.3309ZM65.0447 95.5286C66.2809 97.509 67.9791 97.9472 69.4776 96.6327C70.0395 96.142 70.5515 95.2306 70.7762 94.3543C71.1134 92.9697 71.1883 91.4624 71.3881 89.9376C70.4765 87.4313 69.2154 86.6777 67.4172 87.9922C65.9687 89.0438 64.6701 90.4809 63.2091 91.8305C63.846 93.145 64.3704 94.4419 65.0572 95.5636L65.0447 95.5286ZM56.5536 108.13C56.9656 107.955 57.3527 107.657 57.7148 107.324C60.4994 104.73 60.1748 103.696 59.0634 99.6648C58.5764 97.8771 56.8158 97.2286 55.4422 97.9297C53.7065 98.806 52.9073 100.734 52.5452 103.1C52.2081 105.326 51.8959 107.569 51.5338 110.111C53.257 109.445 54.9178 108.831 56.5536 108.148V108.13ZM45.1155 105.449C44.5161 104.327 44.0666 104.467 43.6295 104.888C42.8678 105.606 42.7055 106.903 43.1175 109.515C43.8543 108.007 44.4786 106.728 45.103 105.449H45.1155ZM23.5504 172.014C25.1488 169.403 26.1352 166.3 27.1592 163.181C25.6233 165.827 23.9375 168.421 23.5504 172.014ZM20.8158 107.184C20.0416 106.009 19.0801 105.256 17.8688 105.396C16.9573 105.501 16.4578 106.062 16.1956 107.254C15.9708 108.27 15.7086 109.287 15.4464 110.286C15.0218 111.898 15.284 113.195 16.258 114.229C17.5567 115.596 18.9802 115.684 20.4412 114.527C21.4776 113.703 22.5265 112.897 23.7128 111.986C22.7388 110.373 21.8147 108.726 20.8033 107.201L20.8158 107.184ZM22.5889 94.512C21.9271 91.6903 20.7783 89.6221 18.5931 88.9035C17.5317 88.553 16.6826 88.9386 16.1706 90.0778C15.5837 91.3573 15.1092 92.8295 14.822 94.3017C14.5348 95.7564 15.5463 97.807 16.8824 98.5431C17.9063 99.1039 19.0176 99.3668 20.0915 99.6823C21.4027 100.05 22.7263 100.313 23.9875 100.611C23.5379 98.6307 23.0634 96.5801 22.5889 94.5295V94.512ZM30.9802 96.4925C30.3434 98.2452 30.4183 98.8411 31.6295 100.786C31.5421 99.0338 31.9916 97.5791 30.9802 96.4925ZM10.1644 86.3622C11.2882 87.7643 13.1363 87.2911 14.6847 85.1704C12.7617 83.6807 10.9386 84.1539 10.1644 86.3622ZM8.75334 73.4277C7.95417 72.1132 7.06759 70.9915 5.85636 70.5183C4.67009 70.0451 3.85844 70.7812 3.68362 72.4813C3.59621 73.3401 3.52129 74.2164 3.43388 75.1628C4.27051 78.0722 5.36937 78.931 7.5421 78.1774C8.57852 77.8093 9.72732 77.7217 10.6264 76.5123C9.9396 75.3906 9.35271 74.4092 8.75334 73.4452V73.4277ZM1.54835 55.5857C2.39746 57.0054 3.54626 57.8817 4.80745 58.0219C6.61806 58.2322 8.45365 58.0745 10.3517 58.0745C10.1519 54.9197 9.63992 52.1155 8.04158 49.9948C7.45469 49.2236 6.74294 48.5576 6.0062 48.137C4.42036 47.2607 3.38393 47.7514 2.29757 49.6092C2.02285 50.0824 1.74814 50.5557 1.48591 51.0464C0.52441 52.8341 0.536899 53.8682 1.56083 55.5682L1.54835 55.5857Z" fill="#FAD676"/>
</g>
<defs>
<clipPath id="clip0_46_639">
<rect width="72" height="173.827" fill="white" transform="matrix(-1 0 0 1 72 0.219727)"/>
</clipPath>
</defs>
</svg>
