<svg width="133" height="48" viewBox="0 0 133 48" fill="none" xmlns="http://www.w3.org/2000/svg">
<g clip-path="url(#clip0_15_644)">
<path d="M132.933 29.2319C132.836 29.5709 132.792 29.9229 132.712 30.2662C132.53 31.044 132.113 31.6611 131.394 32.0565C130.05 32.7952 128.6 33.0429 127.069 32.8908C124.35 32.6214 121.844 31.6437 119.324 30.7094C119.169 30.6529 119.014 30.5964 118.81 30.6181C118.947 30.7268 119.089 30.8354 119.227 30.9441C120.234 31.7045 121.272 32.4345 122.243 33.2341C123.68 34.4204 124.807 35.8588 125.659 37.5057C126.045 38.2488 126.302 39.031 126.368 39.8653C126.408 40.3737 126.306 40.8126 125.783 41.1037C125.503 41.2602 125.286 41.5557 125.095 41.8294C124.896 42.1206 124.78 42.4639 124.599 42.7724C124.253 43.3677 123.716 43.7284 123.037 43.824C122.673 43.8762 122.292 43.7849 121.831 43.7501C121.511 43.3938 121.152 42.994 120.735 42.5334C120.784 43.0418 120.833 43.4807 120.859 43.924C120.872 44.1586 120.877 44.3933 120.846 44.6236C120.757 45.2102 120.322 45.4883 119.737 45.358C119.271 45.2537 118.916 44.9842 118.668 44.6149C118.264 44.0109 117.9 43.3808 117.528 42.755C117.377 42.4986 117.248 42.2292 117.031 41.9946C117.146 42.5856 117.288 43.1678 117.368 43.7632C117.439 44.2759 117.581 44.7757 117.448 45.3102C117.266 46.0489 116.862 46.6051 116.219 46.9832C115.638 47.3221 115.008 47.5177 114.316 47.5394C114.001 47.5481 113.647 47.6176 113.389 47.7784C112.604 48.2738 111.384 47.8957 110.91 47.2091C110.346 46.3965 110.058 45.4883 109.907 44.5323C109.836 44.0717 109.801 43.6067 109.743 43.0809C109.57 43.5242 109.424 43.9153 109.259 44.2977C108.9 45.1494 108.386 45.8968 107.738 46.566C107.121 47.2004 106.412 47.522 105.511 47.2135C105.281 47.3134 105.063 47.409 104.846 47.509C103.768 47.987 102.357 47.761 101.723 46.5703C101.639 46.4096 101.51 46.2618 101.381 46.1315C100.605 45.3493 100.379 44.3933 100.463 43.346C100.556 42.1727 101.058 41.1429 101.639 40.1434C101.736 39.9739 101.834 39.8045 101.936 39.635C101.909 39.6133 101.883 39.5959 101.856 39.5741C101.723 39.7132 101.599 39.8566 101.457 39.987C100.792 40.5953 100.162 41.2515 99.4475 41.7947C98.3829 42.6029 97.1453 42.9679 95.779 42.8897C95.3088 42.8637 94.9007 42.729 94.5547 42.4335C94.1866 42.1119 93.743 41.9424 93.3038 41.7469C92.6828 41.4688 92.084 41.1342 91.4985 40.7865C91.0726 40.5301 90.9129 40.1086 90.8952 39.6219C90.8819 39.17 90.7976 38.7137 90.8242 38.2662C90.842 37.9229 90.9484 37.5752 91.0771 37.2493C91.2013 36.9408 91.4009 36.667 91.5251 36.302C91.3299 36.3889 91.1436 36.4889 90.944 36.5671C90.3185 36.8235 89.6887 37.019 88.9967 36.8408C88.4378 36.6974 88.0163 36.3889 87.6748 35.9326C87.4353 35.6111 87.1647 35.2982 86.8719 35.0201C86.3263 34.503 85.9936 33.925 86.0247 33.1472C86.0468 32.6084 86.0602 32.0739 86.2598 31.5611C86.3041 31.4525 86.3485 31.3308 86.344 31.2222C86.3086 30.6399 86.5259 30.1706 86.9828 29.7969C86.9384 29.736 86.9207 29.6795 86.8808 29.6621C85.6698 29.0972 85.2351 28.0413 85.0089 26.8506C84.929 26.4335 85.1331 26.138 85.4702 25.912C85.6521 25.7903 85.8339 25.6643 86.0335 25.5296C86.0335 25.2732 86.0335 25.0212 86.0335 24.7735C86.0247 24.2216 86.2376 23.7567 86.6102 23.3569C87.1026 22.8224 87.6792 22.4052 88.3712 22.1575C89.8572 21.6274 91.3787 21.2276 92.9534 21.0277C94.0491 20.8886 95.1447 20.8191 96.2448 20.8495C96.5686 20.8582 96.8924 20.8973 97.2295 20.8322C96.5908 20.7279 95.9565 20.5932 95.3133 20.5236C93.7785 20.3628 92.2348 20.2542 90.7 20.0978C88.9922 19.924 87.4574 19.3634 86.2731 18.0771C85.9226 17.6947 85.692 17.2776 85.5988 16.7474C85.4924 16.1521 85.7541 15.774 86.1666 15.4438C86.7078 15.0092 87.3554 14.7659 88.0208 14.5877C89.2495 14.2618 90.5048 14.2966 91.7557 14.4269C93.5789 14.6138 95.3177 15.1309 97.0211 15.774C97.1098 15.8088 97.2074 15.8218 97.305 15.8479C97.3183 15.8262 97.3271 15.8045 97.3404 15.7827C97.1763 15.6784 97.0078 15.5741 96.8392 15.4785C95.7258 14.8354 94.6479 14.1445 93.7119 13.2624C92.8958 12.4976 92.2038 11.6372 91.7691 10.6116C91.4674 9.90331 91.2944 9.17327 91.5073 8.39978C91.6227 7.97827 91.8045 7.62194 92.1505 7.33514C92.3147 7.20043 92.4211 7.00054 92.5542 6.82673C92.5941 6.77458 92.6119 6.70505 92.6429 6.64422C93.2063 5.49267 93.7874 5.46659 94.7721 5.6013C95.7081 5.73167 96.5331 6.14449 97.3094 6.6616C98.8442 7.68713 100.135 8.96904 101.337 10.3422C101.954 11.0462 102.517 11.7892 103.107 12.5193C103.209 12.6453 103.315 12.7713 103.484 12.8626C103.449 12.7583 103.422 12.6496 103.369 12.554C102.845 11.5676 102.335 10.5725 101.794 9.59913C101.191 8.51711 100.65 7.40902 100.37 6.20098C99.9886 4.55405 100.339 3.06355 101.404 1.73819C101.696 1.37317 103.555 0.204237 103.945 0.0869096C104.433 -0.0564907 104.899 0.034764 105.36 0.178164C106.252 0.456274 106.913 1.02553 107.427 1.77295C108.226 2.93319 108.692 4.23683 109.042 5.57958C109.397 6.93102 109.654 8.30418 109.783 9.69473C109.858 10.5334 109.92 11.3721 109.991 12.2108C109.996 12.2846 110.022 12.3585 110.142 12.4367C110.2 12.1369 110.258 11.837 110.311 11.5372C110.55 10.2075 110.852 8.89951 111.442 7.66974C111.797 6.93102 112.223 6.24443 112.782 5.64041C113.46 4.90603 114.272 4.46279 115.328 4.54536C115.98 4.59316 116.636 4.56274 117.279 4.65834C117.936 4.75828 118.579 4.95383 119.098 5.41445C119.2 5.5057 119.378 5.52743 119.524 5.56219C120.411 5.7534 120.93 6.6138 120.624 7.45682C120.504 7.78273 120.3 8.08691 120.127 8.39109C120.003 8.60837 119.857 8.80826 119.688 9.07333C120.145 8.88647 120.526 8.71266 120.917 8.5736C121.09 8.51276 121.289 8.49538 121.471 8.50842C122.114 8.55187 122.421 8.90386 122.398 9.53829C122.385 9.95546 122.363 10.377 122.372 10.7941C122.39 11.7501 122.137 12.6236 121.596 13.4188C121.462 13.6143 121.325 13.8055 121.227 14.0619C121.352 13.9967 121.476 13.9402 121.596 13.8664C122.531 13.2841 123.512 12.8148 124.607 12.5975C125.552 12.4106 126.479 12.3976 127.398 12.7322C128.409 13.1016 128.994 13.8707 128.977 14.9267C128.968 15.6219 129.114 16.2607 129.438 16.8691C129.811 17.5731 130.055 18.2944 129.828 19.1027C129.784 19.2591 129.797 19.4416 129.824 19.6067C129.904 20.1456 129.691 20.5845 129.305 20.9191C128.777 21.3753 128.205 21.7751 127.642 22.1923C127.455 22.3313 127.251 22.4443 127.069 22.6051C127.828 22.3965 128.573 22.4356 129.301 22.679C129.607 22.7833 129.913 22.918 130.179 23.0961C130.742 23.4742 131.057 23.9913 130.933 24.7083C131.106 24.8213 131.279 24.9039 131.412 25.0255C131.705 25.3036 132.037 25.5687 132.246 25.899C132.556 26.39 132.41 26.8463 131.856 27.0505C131.283 27.2591 130.671 27.4025 130.068 27.4851C129.363 27.585 128.644 27.5894 127.93 27.7241C128.662 27.7892 129.389 27.8544 130.121 27.924C130.751 27.9848 131.385 28.0543 132.011 28.1325C132.162 28.1499 132.312 28.2064 132.454 28.2672C132.991 28.4889 133.08 28.7061 132.925 29.2493L132.933 29.2319Z" fill="white"/>
<path d="M132.463 28.2492C132.321 28.1927 132.171 28.1362 132.02 28.1145C131.39 28.0363 130.76 27.9711 130.13 27.9059C129.403 27.8364 128.671 27.7712 127.939 27.706C128.657 27.5757 129.376 27.567 130.077 27.467C130.68 27.3801 131.292 27.2411 131.864 27.0325C132.419 26.8283 132.565 26.372 132.255 25.881C132.046 25.5464 131.714 25.2813 131.421 25.0075C131.288 24.8815 131.115 24.7989 130.942 24.6903C131.066 23.9733 130.751 23.4518 130.188 23.0781C129.922 22.9 129.616 22.7653 129.309 22.661C128.582 22.4176 127.837 22.3785 127.078 22.5871C127.26 22.4263 127.464 22.309 127.65 22.1743C128.209 21.7571 128.786 21.353 129.314 20.901C129.7 20.5664 129.913 20.1276 129.833 19.5887C129.806 19.4236 129.793 19.2411 129.837 19.0846C130.064 18.2764 129.824 17.555 129.447 16.8511C129.123 16.2427 128.977 15.6039 128.986 14.9087C128.999 13.8571 128.418 13.0879 127.406 12.7142C126.493 12.3796 125.561 12.3926 124.616 12.5795C123.521 12.7968 122.54 13.2661 121.604 13.8484C121.489 13.9222 121.36 13.9787 121.236 14.0439C121.334 13.7919 121.471 13.5963 121.604 13.4008C122.146 12.6056 122.398 11.7321 122.381 10.7761C122.372 10.359 122.394 9.93744 122.407 9.52028C122.429 8.88584 122.123 8.52951 121.48 8.4904C121.298 8.47737 121.099 8.49475 120.926 8.55558C120.535 8.69464 120.154 8.86411 119.697 9.05531C119.87 8.79024 120.012 8.59035 120.136 8.37308C120.314 8.06455 120.518 7.76471 120.633 7.4388C120.939 6.59578 120.42 5.73972 119.533 5.54418C119.387 5.51376 119.209 5.49203 119.107 5.39643C118.588 4.93581 117.945 4.74027 117.288 4.64032C116.65 4.54038 115.989 4.57514 115.337 4.52734C114.285 4.44912 113.474 4.88801 112.79 5.6224C112.232 6.22642 111.801 6.91735 111.451 7.65173C110.861 8.88149 110.555 10.1895 110.32 11.5192C110.266 11.819 110.209 12.1189 110.151 12.4187C110.031 12.3361 110.005 12.2666 110 12.1927C109.929 11.3541 109.867 10.5154 109.792 9.67671C109.668 8.28617 109.41 6.913 109.051 5.56156C108.696 4.21881 108.235 2.91952 107.436 1.75493C106.922 1.00751 106.261 0.438257 105.369 0.160148C104.908 0.0167472 104.442 -0.0745076 103.954 0.0688928C103.564 0.181875 101.705 1.3508 101.413 1.72017C100.348 3.04554 99.9975 4.53603 100.379 6.18296C100.658 7.39535 101.2 8.49909 101.803 9.58111C102.344 10.5545 102.859 11.5496 103.378 12.536C103.426 12.6316 103.453 12.7403 103.493 12.8446C103.324 12.7533 103.218 12.6273 103.116 12.5013C102.526 11.7756 101.963 11.0282 101.346 10.3242C100.144 8.95102 98.8575 7.66476 97.3183 6.64358C96.542 6.12647 95.717 5.71365 94.781 5.58329C93.7963 5.44858 93.2152 5.47465 92.6518 6.6262C92.6208 6.68704 92.603 6.75656 92.5631 6.80871C92.4345 6.98253 92.3236 7.18242 92.1594 7.31713C91.8135 7.60393 91.6316 7.96026 91.5163 8.38177C91.3033 9.15961 91.4763 9.88964 91.778 10.5936C92.2171 11.6191 92.9047 12.4795 93.7209 13.2443C94.6612 14.1265 95.7347 14.8174 96.8481 15.4605C97.0167 15.5605 97.1808 15.6648 97.3494 15.7647C97.336 15.7864 97.3272 15.8082 97.3139 15.8299C97.2207 15.8038 97.1231 15.7908 97.03 15.756C95.3266 15.1129 93.5878 14.5958 91.7647 14.4089C90.5138 14.2829 89.2584 14.2438 88.0297 14.5697C87.3643 14.7479 86.7167 14.9912 86.1755 15.4258C85.763 15.756 85.5013 16.1341 85.6077 16.7294C85.7009 17.2596 85.9316 17.6767 86.282 18.0591C87.4663 19.3454 89.0011 19.9059 90.7089 20.0798C92.2437 20.2362 93.7874 20.3448 95.3222 20.5056C95.9654 20.5708 96.5997 20.7099 97.2385 20.8141C96.9013 20.8793 96.5775 20.8446 96.2537 20.8315C95.1536 20.8011 94.058 20.8663 92.9623 21.0097C91.3876 21.2096 89.8661 21.6094 88.3801 22.1395C87.6881 22.3872 87.1115 22.8044 86.6191 23.3389C86.2465 23.743 86.0336 24.2079 86.0425 24.7555C86.0425 25.0075 86.0425 25.2596 86.0425 25.5116C85.8473 25.6463 85.6654 25.7723 85.4791 25.894C85.1375 26.12 84.9379 26.4154 85.0178 26.8326C85.2396 28.0233 85.6787 29.0792 86.8897 29.6441C86.9296 29.6615 86.9474 29.718 86.9917 29.7788C86.5393 30.1525 86.3175 30.6219 86.353 31.2041C86.3574 31.3171 86.313 31.4345 86.2687 31.5431C86.0691 32.0559 86.0602 32.5903 86.0336 33.1292C86.0025 33.907 86.3352 34.485 86.8808 35.0021C87.1736 35.2802 87.4442 35.5887 87.6837 35.9146C88.0253 36.3709 88.4467 36.6794 89.0056 36.8228C89.6976 36.9966 90.3319 36.8055 90.9529 36.5491C91.1481 36.4708 91.3388 36.3709 91.534 36.284C91.4098 36.6447 91.2102 36.9228 91.086 37.2313C90.9573 37.5529 90.8509 37.9049 90.8331 38.2481C90.8065 38.6957 90.8908 39.152 90.9041 39.6039C90.9174 40.0906 91.0771 40.5165 91.5074 40.7685C92.0929 41.1161 92.6917 41.4507 93.3128 41.7289C93.7519 41.9244 94.1955 42.0982 94.5637 42.4154C94.9097 42.7153 95.3222 42.8456 95.7879 42.8717C97.1542 42.9499 98.3873 42.5893 99.4564 41.7767C100.175 41.2335 100.8 40.5773 101.466 39.9689C101.608 39.8386 101.732 39.6952 101.865 39.5561C101.892 39.5779 101.918 39.5952 101.945 39.617C101.847 39.7864 101.75 39.9559 101.648 40.1254C101.067 41.1292 100.565 42.1591 100.472 43.328C100.388 44.3752 100.614 45.3313 101.39 46.1134C101.519 46.2438 101.648 46.3915 101.732 46.5523C102.366 47.743 103.777 47.9689 104.855 47.4909C105.072 47.3953 105.294 47.2997 105.52 47.1955C106.421 47.504 107.126 47.1868 107.747 46.548C108.395 45.8788 108.909 45.1314 109.268 44.2796C109.433 43.8972 109.574 43.5018 109.752 43.0629C109.81 43.5887 109.845 44.0537 109.916 44.5143C110.067 45.4703 110.351 46.3785 110.919 47.1911C111.393 47.8733 112.613 48.2557 113.398 47.7604C113.655 47.5996 114.01 47.5301 114.325 47.5214C115.017 47.4996 115.652 47.2997 116.228 46.9651C116.876 46.5871 117.279 46.0309 117.457 45.2921C117.59 44.7533 117.444 44.2536 117.377 43.7452C117.297 43.1542 117.155 42.5675 117.04 41.9766C117.257 42.2112 117.386 42.4806 117.537 42.737C117.909 43.3628 118.273 43.9928 118.677 44.5969C118.925 44.9662 119.28 45.24 119.746 45.3399C120.331 45.4703 120.766 45.1922 120.855 44.6056C120.89 44.3752 120.886 44.1362 120.868 43.9059C120.837 43.4627 120.793 43.0238 120.744 42.5154C121.156 42.976 121.516 43.3758 121.84 43.7321C122.301 43.7669 122.682 43.8581 123.046 43.806C123.725 43.7147 124.261 43.3497 124.607 42.7544C124.785 42.4459 124.905 42.1026 125.104 41.8114C125.291 41.5377 125.512 41.2422 125.792 41.0857C126.315 40.7902 126.417 40.3513 126.377 39.8473C126.311 39.0173 126.049 38.2351 125.668 37.4877C124.82 35.8408 123.694 34.4024 122.252 33.2161C121.276 32.4122 120.243 31.6865 119.236 30.926C119.094 30.8174 118.956 30.7088 118.819 30.6001C119.023 30.5827 119.178 30.6349 119.333 30.6914C121.853 31.6257 124.363 32.6034 127.078 32.8728C128.609 33.0249 130.055 32.7772 131.403 32.0385C132.122 31.643 132.539 31.026 132.721 30.2481C132.8 29.9049 132.845 29.5529 132.942 29.2139C133.098 28.6664 133.009 28.4535 132.472 28.2318L132.463 28.2492ZM122.478 13.6745C123.561 13.0836 124.709 12.6925 125.96 12.7272C126.448 12.7403 126.954 12.8489 127.406 13.0227C128.227 13.3356 128.706 13.9527 128.715 14.8435C128.724 15.6865 128.906 16.473 129.318 17.2161C129.642 17.7984 129.731 18.4198 129.571 19.076C129.536 19.2194 129.518 19.3888 129.558 19.5279C129.673 19.9364 129.513 20.2666 129.247 20.5447C128.946 20.8619 128.613 21.1618 128.263 21.4312C126.768 22.561 125.064 23.2693 123.232 23.6561C121.658 23.9907 120.083 24.3166 118.49 24.5425C116.517 24.825 114.516 24.8163 112.52 24.7642C112.489 24.7642 112.458 24.7424 112.467 24.7468C112.103 24.1645 111.752 23.6126 111.398 23.0521C113.057 22.2264 114.401 20.9532 115.705 19.6235C116.823 18.4806 117.945 17.3378 119.085 16.2123C120.096 15.2128 121.223 14.3611 122.483 13.6745H122.478ZM111.633 29.2139C110.967 29.3399 110.386 29.0923 109.881 28.6664C109.659 28.4795 109.433 28.2927 109.175 28.1623C108.19 27.6669 107.627 26.8674 107.361 25.8375C107.232 25.3378 107.055 24.8467 106.922 24.347C106.851 24.0732 106.793 23.7864 106.798 23.5083C106.802 22.6697 107.272 22.1482 108.111 22.2612C109.291 22.422 110.497 22.6262 111.367 23.5648C111.526 23.7386 111.708 23.9211 111.788 24.1297C112.072 24.8685 112.555 25.4768 113.003 26.1156C113.278 26.511 113.522 26.9152 113.429 27.3628C113.456 28.7055 112.724 29.014 111.633 29.2226V29.2139ZM110.031 20.8793C110.04 20.7794 110.071 20.6794 110.071 20.5795C110.089 18.8109 110.147 17.0423 110.107 15.2737C110.085 14.3524 110.195 13.466 110.4 12.5795C110.679 11.3845 110.91 10.1808 111.233 8.99882C111.5 8.03413 111.965 7.14331 112.582 6.34374C112.821 6.03522 113.088 5.74841 113.376 5.48334C113.895 4.99665 114.525 4.76199 115.252 4.78372C115.82 4.8011 116.392 4.77503 116.956 4.82718C117.719 4.8967 118.424 5.14005 119.049 5.69627C119.16 5.72669 119.324 5.7658 119.489 5.8136C120.349 6.07432 120.695 6.8174 120.269 7.60393C119.959 8.18622 119.568 8.72506 119.218 9.28562C119.098 9.48117 118.987 9.68106 118.872 9.88095C118.899 9.90702 118.921 9.92875 118.947 9.95048C119.041 9.90702 119.143 9.86792 119.231 9.81142C119.555 9.59415 119.874 9.3595 120.203 9.14657C120.566 8.91191 120.957 8.74679 121.409 8.76417C121.973 8.78589 122.252 9.1118 122.19 9.65499C122.15 10.02 122.088 10.3937 122.11 10.7544C122.186 11.9364 121.746 12.9402 121.01 13.8223C120.522 14.4089 119.972 14.9434 119.431 15.4823C118.038 16.8858 116.632 18.272 115.243 19.6756C114.272 20.6577 113.256 21.592 112.09 22.3524C111.775 22.5567 111.442 22.7348 111.136 22.913C110.683 22.7088 110.311 22.5436 109.907 22.3611C109.947 21.8744 109.987 21.379 110.027 20.8793H110.031ZM102.105 9.51159C101.519 8.42088 100.96 7.32582 100.667 6.11778C100.295 4.59252 100.636 3.21935 101.59 1.9809C101.874 1.61153 102.224 1.32473 102.681 1.1683C102.836 1.1118 102.987 1.01186 103.103 0.894531C103.79 0.190566 104.593 0.129729 105.467 0.486057C106.221 0.794585 106.793 1.3117 107.237 1.97655C107.978 3.08899 108.426 4.3231 108.763 5.60067C109.197 7.26498 109.464 8.95537 109.614 10.6675C109.81 12.8489 109.881 15.039 109.889 17.2248C109.894 18.5241 109.836 19.819 109.787 21.1183C109.774 21.5138 109.699 21.9092 109.645 22.3437C109.237 22.2134 108.865 22.0961 108.426 21.9527C108.377 21.8397 108.293 21.6789 108.23 21.5094C107.441 19.4192 106.438 17.429 105.236 15.5387C104.939 15.0694 104.7 14.561 104.442 14.0656C103.662 12.5491 102.907 11.0151 102.1 9.51159H102.105ZM95.1403 14.0439C93.9826 13.2357 92.9889 12.2579 92.3058 11.0151C91.9776 10.4198 91.7159 9.79839 91.7159 9.10311C91.7159 8.45129 91.88 7.87335 92.4522 7.46053C92.5853 7.36493 92.6651 7.20415 92.7583 7.06509C92.8159 6.98253 92.8426 6.87824 92.8869 6.79133C93.4059 5.73972 93.8273 5.73103 94.7988 5.86574C95.5706 5.97438 96.267 6.31767 96.9235 6.73049C98.0591 7.44749 99.066 8.31658 99.9798 9.28128C103.409 12.8967 106.163 16.9293 107.982 21.5529C108.026 21.6615 108.057 21.7701 108.115 21.9483C107.747 22.0091 107.445 22.0569 107.095 22.1134C106.846 21.8744 106.602 21.5876 106.31 21.3573C104.238 19.7147 102.193 18.0374 99.7536 16.9119C99.1991 16.6555 98.689 16.3035 98.17 15.9776C97.1586 15.3432 96.1251 14.7261 95.1492 14.0439H95.1403ZM87.0405 15.2346C88.145 14.6914 89.3294 14.5567 90.5448 14.5914C93.6499 14.687 96.4888 15.7256 99.2435 17.0119C100.326 17.5159 101.342 18.1547 102.384 18.737C102.548 18.8283 102.69 18.9499 102.819 19.1194C102.734 19.0977 102.646 19.0846 102.566 19.0499C101.266 18.4937 99.8911 18.1982 98.4982 18.007C96.0053 17.6637 93.5922 17.051 91.259 16.1297C90.3008 15.7517 89.3117 15.4692 88.2737 15.4127C87.8345 15.391 87.3909 15.4779 86.9474 15.517C86.8498 15.5257 86.7522 15.5387 86.6546 15.5474C86.6457 15.5214 86.6324 15.4953 86.6235 15.4736C86.7611 15.3953 86.8986 15.3041 87.0449 15.2346H87.0405ZM96.1162 20.3883C95.3754 20.2623 94.6169 20.2188 93.8717 20.1145C92.3103 19.8972 90.7178 19.9364 89.183 19.5192C88.1095 19.2237 87.2179 18.6458 86.4639 17.8505C86.1267 17.4986 85.9005 17.0944 85.8739 16.5947C85.8517 16.2253 85.9537 16.0472 86.3263 15.9255C87.422 15.5735 88.5265 15.5692 89.6177 15.9125C90.7932 16.2775 91.9643 16.6773 93.1265 17.0857C94.6701 17.6289 96.267 17.9201 97.8772 18.1808C99.6737 18.4676 101.461 18.7935 103.12 19.58C103.866 19.932 104.58 20.3274 105.214 20.8619C105.773 21.3356 106.345 21.7919 106.931 22.2742C106.793 22.5132 106.696 22.6914 106.576 22.9C106.434 22.8652 106.288 22.8435 106.146 22.7913C103.737 21.9222 101.226 21.4442 98.7289 20.9315C97.8595 20.7533 96.9945 20.5447 96.1162 20.3926V20.3883ZM86.8365 29.3313C86.526 29.227 86.3042 29.0488 86.1578 28.7533C86.0602 28.5578 85.9227 28.3839 85.794 28.2058C85.5013 27.8147 85.3726 27.3671 85.3017 26.8934C85.244 26.5284 85.3904 26.2764 85.692 26.0808C85.9049 25.9418 86.1134 25.7984 86.3175 25.6593C86.3175 25.4464 86.3308 25.2596 86.3175 25.077C86.2554 24.4687 86.4372 23.9472 86.8586 23.504C87.3333 22.9999 87.8833 22.6045 88.5443 22.3742C90.2831 21.7745 92.0574 21.3486 93.9027 21.1878C96.6041 20.9488 99.2568 21.2661 101.874 21.8657C103.324 22.196 104.744 22.6697 106.172 23.0781C106.27 23.1042 106.363 23.1477 106.425 23.1737C106.527 23.7473 106.625 24.2862 106.727 24.8598C106.594 24.8858 106.429 24.9423 106.265 24.9467C103.364 25.0988 100.565 25.7636 97.8284 26.6675C95.6948 27.3714 93.5878 28.1406 91.463 28.8619C90.4916 29.1878 89.5113 29.5181 88.4644 29.5398C87.9099 29.5529 87.3688 29.5051 86.8409 29.3182L86.8365 29.3313ZM89.5379 36.6143C88.8636 36.636 88.3624 36.3274 87.9499 35.8234C87.6393 35.4453 87.3155 35.076 86.9695 34.7283C86.3707 34.1286 86.1312 33.4334 86.2864 32.6077C86.4062 31.982 86.526 31.3562 86.659 30.7348C86.7744 30.2003 87.2934 29.7788 87.839 29.8179C89.3604 29.9222 90.7444 29.4138 92.1417 28.9445C94.4927 28.1536 96.8392 27.3323 99.1947 26.5545C100.854 26.007 102.566 25.6463 104.296 25.3899C105.023 25.2813 105.76 25.2291 106.496 25.1596C106.629 25.1466 106.767 25.1683 106.944 25.177C106.984 25.403 107.019 25.6115 107.064 25.8896C106.678 26.2547 106.305 26.6458 105.888 26.9934C104.025 28.5578 101.963 29.831 99.8024 30.9521C98.3918 31.6865 96.9856 32.4296 95.5795 33.1726C94.4262 33.7854 93.3837 34.5371 92.4123 35.4149C91.6227 36.1276 90.6513 36.5838 89.5379 36.6186V36.6143ZM99.7181 41.29C98.7511 42.0808 97.6377 42.5284 96.3957 42.6631C95.7791 42.7283 95.2157 42.5849 94.7012 42.2069C94.3197 41.9287 93.8805 41.7289 93.4636 41.5072C92.9047 41.2118 92.3324 40.9423 91.7868 40.6295C91.3566 40.3818 91.1658 39.9863 91.1836 39.4779C91.1969 39.1477 91.1481 38.8087 91.1082 38.4741C91.0594 38.0743 91.1436 37.705 91.3344 37.353C91.9776 36.1667 92.8825 35.1889 94.0181 34.4676C95.3266 33.6333 96.7062 32.9076 98.068 32.1558C99.31 31.4692 100.588 30.8391 101.821 30.1352C103.701 29.0662 105.458 27.8277 107.002 26.3198C107.024 26.2981 107.059 26.2938 107.166 26.2503C107.459 27.0933 107.96 27.7582 108.692 28.2449C108.625 28.4187 108.585 28.5447 108.532 28.6664C107.201 31.6778 105.573 34.5284 103.586 37.1661C102.455 38.6697 101.191 40.0776 99.7136 41.2856L99.7181 41.29ZM109.379 43.1455C109.038 44.3839 108.408 45.479 107.485 46.4002C106.988 46.8956 106.438 47.1824 105.68 46.9738C105.471 46.913 105.183 47.0434 104.957 47.1433C104.544 47.3215 104.136 47.4605 103.67 47.4475C103.014 47.4301 102.526 47.1477 102.136 46.6523C101.887 46.3351 101.617 46.0265 101.382 45.7006C100.867 44.988 100.636 44.1927 100.743 43.3193C100.863 42.3155 101.226 41.3856 101.763 40.5382C102.597 39.2215 103.466 37.9266 104.349 36.6447C106.075 34.1417 107.596 31.5344 108.758 28.7272C108.803 28.6186 108.86 28.5143 108.949 28.3274C109.81 28.9489 110.546 29.7136 111.73 29.479C111.744 29.731 111.757 29.9092 111.77 30.0874C111.908 32.1819 111.424 34.1938 110.936 36.2101C110.568 37.731 110.253 39.2606 109.912 40.7815C109.739 41.5681 109.592 42.3633 109.379 43.1368V43.1455ZM120.562 44.6273C120.456 45.0097 120.149 45.2096 119.786 45.0531C119.48 44.9228 119.169 44.7272 118.965 44.4795C118.615 44.0493 118.317 43.5713 118.042 43.0846C117.692 42.4676 117.395 41.8201 117.058 41.1944C116.969 41.0292 116.831 40.8902 116.712 40.7424C116.667 40.7555 116.619 40.7729 116.57 40.7859C116.565 40.951 116.53 41.1248 116.561 41.2856C116.756 42.3242 116.969 43.3628 117.164 44.4013C117.337 45.3356 116.92 46.2221 116.069 46.7175C115.532 47.0303 114.955 47.2085 114.316 47.2476C113.953 47.2693 113.549 47.3432 113.247 47.5301C112.578 47.9385 111.602 47.6908 111.14 47.0521C110.768 46.5393 110.533 45.9657 110.36 45.3573C109.965 43.9842 110 42.5936 110.156 41.1987C110.404 38.9695 111.092 36.8315 111.584 34.6501C111.89 33.2987 112.094 31.9385 112.045 30.5523C112.032 30.2003 111.983 29.8527 111.952 29.4833C112.107 29.4095 112.196 29.366 112.294 29.3269C112.387 29.2878 112.484 29.2574 112.626 29.2096C112.826 29.3921 113.057 29.5702 113.243 29.7788C115.048 31.7734 116.721 33.8679 118.087 36.184C118.934 37.6224 119.457 39.1868 119.919 40.7729C120.136 41.5159 120.322 42.2634 120.491 43.0195C120.575 43.3932 120.597 43.7843 120.629 44.171C120.637 44.3188 120.602 44.4708 120.562 44.6186V44.6273ZM122.341 33.6941C123.627 34.7805 124.616 36.1232 125.393 37.6094C125.739 38.2742 125.974 38.9738 126.098 39.7082C126.178 40.1993 126.12 40.6425 125.574 40.8989C125.206 41.0727 124.989 41.4073 124.807 41.7593C124.647 42.0591 124.523 42.3807 124.324 42.6501C123.876 43.2758 123.312 43.706 122.456 43.4975C122.327 43.467 122.186 43.4801 122.021 43.4714C121.533 43.1107 121.192 42.6588 120.943 42.1591C120.637 41.542 120.327 40.9119 120.127 40.2557C119.289 37.5268 117.927 35.0716 116.157 32.825C115.159 31.5561 114.192 30.2655 113.003 29.14C113.234 28.7924 113.465 28.4491 113.726 28.058C113.868 28.1189 114.05 28.1971 114.228 28.2796C117.266 29.605 119.852 31.5822 122.345 33.6854L122.341 33.6941ZM132.233 30.7653C132.069 31.265 131.66 31.5996 131.199 31.856C130.285 32.3644 129.296 32.6164 128.249 32.6642C126.537 32.7381 124.914 32.3122 123.303 31.8169C120.793 31.0434 118.344 30.1221 116.033 28.8576C115.301 28.4578 114.52 28.1362 113.673 27.7408C113.93 26.6718 113.19 25.9505 112.591 25.0553C112.888 25.0553 113.065 25.0553 113.243 25.0553C114.534 25.0205 115.825 25.0423 117.111 24.938C119.63 24.7337 122.106 24.2862 124.536 23.5865C125.552 23.2911 126.586 23.026 127.619 22.8C128.546 22.6001 129.394 22.8739 130.134 23.4214C130.489 23.6865 130.711 24.0428 130.658 24.5165C130.645 24.6164 130.667 24.7164 130.676 24.8554C130.844 24.9727 131.039 25.0814 131.204 25.2248C131.461 25.4464 131.736 25.655 131.935 25.9244C132.233 26.3285 132.148 26.6066 131.691 26.8109C131.399 26.9412 131.079 27.0282 130.764 27.102C129.939 27.2889 129.101 27.3236 128.254 27.3106C127.619 27.2976 126.99 27.3106 126.377 27.3106C126.271 27.5887 126.439 27.6452 126.586 27.6756C127.14 27.793 127.69 27.9277 128.249 27.9928C129.323 28.1189 130.401 28.1927 131.474 28.3101C131.913 28.3579 132.361 28.4317 132.743 28.8185C132.579 29.4573 132.437 30.1265 132.224 30.7739L132.233 30.7653Z" fill="#FAD676"/>
<path d="M107.645 22.2922C105.343 18.0554 101.816 14.8571 98.2276 11.6154C100.894 12.9973 107.436 20.3976 107.645 22.2922Z" fill="#FAD676"/>
<path d="M107.184 25.8903C102.93 28.1412 98.5958 30.2271 94.0136 31.7914C96.2182 30.8354 98.4406 29.9185 100.619 28.9104C102.801 27.9022 104.943 26.8028 107.104 25.7425C107.13 25.7903 107.157 25.8381 107.184 25.8903Z" fill="#FAD676"/>
<path d="M106.319 8.956C106.687 10.0337 107.077 11.107 107.414 12.1934C108.044 14.2314 108.581 16.2955 108.931 18.3987C109.118 19.5242 109.166 20.667 109.268 21.8055C109.282 21.9576 109.242 22.1141 109.162 22.2705C108.998 19.9935 108.661 17.7556 108.111 15.5481C107.561 13.3406 106.957 11.1461 106.199 8.99076C106.243 8.97773 106.283 8.96469 106.327 8.956H106.319Z" fill="#FAD676"/>
<path d="M110.519 22.7311C110.763 22.3313 111.038 21.9446 111.251 21.5274C111.917 20.2368 112.56 18.9332 113.207 17.6382C114.139 15.7827 115.066 13.9272 116.002 12.0717C116.1 11.8762 116.219 11.6936 116.388 11.5285C116.317 11.6893 116.255 11.8501 116.179 12.0065C114.813 14.8485 113.451 17.6947 112.063 20.5323C111.761 21.1537 111.375 21.736 111.012 22.327C110.901 22.5052 110.741 22.6573 110.604 22.8224C110.572 22.7963 110.546 22.7659 110.515 22.7398L110.519 22.7311Z" fill="#FAD676"/>
<path d="M123.494 19.3721C123.365 19.4633 123.241 19.5633 123.104 19.6458C119.897 21.484 116.57 23.0614 112.959 23.9913C112.591 24.0869 112.227 24.2303 111.823 24.0782C115.975 23.1266 119.737 21.2667 123.494 19.3764V19.3721Z" fill="#FAD676"/>
<path d="M100.002 35.2417C102.579 32.5866 105.343 30.1141 107.734 27.2895C107.774 27.3156 107.813 27.346 107.849 27.3721C107.782 27.4894 107.734 27.6198 107.649 27.7197C106.904 28.5541 106.19 29.4275 105.387 30.2053C103.719 31.8305 101.998 33.4079 100.299 35.0027C100.206 35.0896 100.1 35.1592 100.002 35.2374V35.2417Z" fill="#FAD676"/>
<path d="M114.449 18.6507C115.257 17.6035 116.055 16.5562 116.867 15.5133C118.073 13.9576 119.378 12.4802 120.81 11.1157C121.143 10.7985 121.507 10.516 121.862 10.2249C121.946 10.1554 122.061 10.1249 122.27 10.0206C122.101 10.4813 121.737 10.6029 121.502 10.8376C121.263 11.0766 121.006 11.3026 120.762 11.5372C120.504 11.7849 120.256 12.0413 120.007 12.2977C119.759 12.554 119.515 12.8148 119.271 13.0755C119.027 13.3362 118.783 13.597 118.544 13.862C118.317 14.1141 118.096 14.3705 117.874 14.6268C117.643 14.8963 117.413 15.17 117.186 15.4438C116.96 15.7175 116.738 15.9957 116.512 16.2738C116.29 16.5519 116.064 16.8256 115.842 17.1037C115.629 17.3688 115.421 17.6339 115.212 17.899C114.991 18.1771 114.773 18.4552 114.551 18.729C114.52 18.6985 114.485 18.6681 114.454 18.642L114.449 18.6507Z" fill="#FAD676"/>
<path d="M114.161 11.4633C113.154 14.5269 112.156 17.5948 111.136 20.654C110.95 21.2102 110.657 21.7317 110.404 22.2662C110.337 22.4052 110.235 22.5225 110.147 22.6486C110.111 22.6312 110.08 22.6095 110.045 22.5921C110.071 22.5182 110.085 22.4443 110.12 22.3748C111.052 20.5106 111.65 18.5247 112.285 16.5562C112.808 14.9223 113.385 13.3102 113.939 11.685C113.97 11.5894 114.024 11.5024 114.063 11.4112C114.095 11.4286 114.13 11.446 114.161 11.4633Z" fill="#FAD676"/>
<path d="M95.402 18.264C95.9698 18.377 96.5376 18.4682 97.1009 18.5986C99.5539 19.1809 101.945 19.9326 104.243 20.9625C104.988 21.2971 105.684 21.7404 106.398 22.1445C106.585 22.2488 106.744 22.3965 106.877 22.5834C106.381 22.453 106.012 22.1097 105.573 21.8924C105.116 21.6621 104.668 21.4058 104.207 21.1885C103.746 20.9712 103.271 20.7713 102.792 20.5845C102.3 20.3889 101.803 20.2064 101.302 20.0326C100.818 19.8631 100.33 19.711 99.8378 19.5546C99.3499 19.3982 98.862 19.2417 98.3696 19.0983C97.8772 18.9549 97.3848 18.8159 96.888 18.6898C96.3912 18.5638 95.8944 18.4552 95.3976 18.3422C95.3976 18.3161 95.3976 18.2901 95.3976 18.264H95.402Z" fill="#FAD676"/>
<path d="M106.864 39.522C107.951 35.9891 109.424 32.5866 110.235 28.9756C110.395 29.5274 110.218 30.0489 110.076 30.5443C109.206 33.5253 108.159 36.4541 106.979 39.3308C106.953 39.396 106.904 39.4568 106.869 39.522H106.864Z" fill="#FAD676"/>
<path d="M95.1447 42.6768C95.9077 42.0511 96.7017 41.4601 97.4203 40.7909C98.1522 40.1086 98.8309 39.3656 99.5007 38.6225C100.17 37.8794 100.796 37.1059 101.519 36.3976C101.368 36.6062 101.222 36.8191 101.062 37.0234C99.993 38.4052 98.8841 39.7567 97.611 40.9647C97.0077 41.5383 96.3246 42.025 95.6726 42.5421C95.5395 42.6464 95.3665 42.7072 95.2112 42.7898C95.1891 42.755 95.1669 42.7159 95.1403 42.6812L95.1447 42.6768Z" fill="#FAD676"/>
<path d="M95.8766 25.5687C99.3721 24.5562 102.89 23.6654 106.589 24.3172C105.383 24.3172 104.172 24.2564 102.97 24.3346C101.776 24.4128 100.587 24.591 99.412 24.7996C98.2276 25.0081 97.0566 25.308 95.8811 25.5687H95.8766Z" fill="#FAD676"/>
<path d="M108.35 31.4481C107.148 34.968 105.431 38.2357 103.44 41.3775C105.218 38.1315 106.984 34.8854 108.35 31.4481Z" fill="#FAD676"/>
<path d="M97.8106 34.2901C96.6484 35.3895 91.8932 38.4226 91.2146 38.579C91.117 38.3661 91.3077 38.3226 91.4275 38.2488C93.2417 37.1276 95.056 36.0065 96.8702 34.8854C97.1852 34.6898 97.5001 34.49 97.815 34.2901H97.8106Z" fill="#FAD676"/>
<path d="M119.125 34.742C117.293 32.5432 115.434 30.3705 113.119 28.6149C113.15 28.5758 113.176 28.5367 113.207 28.4976C113.367 28.5888 113.549 28.654 113.682 28.7757C114.614 29.623 115.576 30.44 116.441 31.3482C117.315 32.2694 118.091 33.2819 118.907 34.2596C119.014 34.3857 119.098 34.5334 119.196 34.6681C119.174 34.6898 119.151 34.7159 119.125 34.7376V34.742Z" fill="#FAD676"/>
<path d="M122.793 27.4503C119.289 27.6241 114.387 27.207 113.456 26.6073C114.565 26.7594 115.558 26.9158 116.561 27.0244C117.581 27.1374 118.61 27.2156 119.635 27.2852C120.664 27.3547 121.693 27.3938 122.793 27.446V27.4503Z" fill="#FAD676"/>
<path d="M107.268 22.2879C106.873 21.9924 106.74 21.6013 106.5 21.2971C106.261 20.9886 106.035 20.667 105.795 20.3628C105.542 20.0413 105.285 19.7284 105.019 19.4199C104.753 19.1114 104.482 18.8072 104.207 18.503C103.932 18.1988 103.653 17.9033 103.378 17.6035C103.111 17.3167 102.845 17.0299 102.575 16.7474C102.295 16.4519 102.007 16.1651 101.696 15.8479C102.854 16.4085 106.891 21.0538 107.268 22.2966V22.2879Z" fill="#FAD676"/>
<path d="M115.053 37.1624C114.174 34.4769 113.469 31.7306 112.143 29.1146C112.44 29.2015 112.515 29.3971 112.591 29.5622C112.946 30.3965 113.345 31.2222 113.624 32.0826C114.134 33.6643 114.569 35.2678 115.03 36.8626C115.057 36.9582 115.048 37.0625 115.053 37.1581V37.1624Z" fill="#FAD676"/>
<path d="M129.34 16.9647C129.274 17.069 129.221 17.1863 129.132 17.2689C128.87 17.5122 128.609 17.7643 128.316 17.9641C126.812 19.0071 125.206 19.8588 123.467 20.4715C125.455 19.3634 127.557 18.4421 129.221 16.843C129.261 16.8821 129.301 16.9212 129.34 16.9603V16.9647Z" fill="#FAD676"/>
<path d="M124.115 14.1401C121.693 16.1086 119.417 18.2596 116.747 19.9283L124.044 14.0576C124.066 14.0836 124.088 14.1141 124.115 14.1401Z" fill="#FAD676"/>
<path d="M113.403 47.5785C113.363 47.4438 113.323 47.3786 113.332 47.3265C113.633 45.497 113.425 43.6676 113.34 41.8425C113.318 41.3384 113.34 40.8343 113.376 40.3259C113.451 40.9908 113.562 41.6513 113.598 42.3161C113.66 43.5937 113.691 44.8713 113.713 46.1532C113.717 46.5356 113.651 46.9223 113.602 47.3047C113.593 47.3829 113.505 47.4481 113.407 47.5785H113.403Z" fill="#FAD676"/>
<path d="M108.097 40.5866C108.08 41.8251 106.274 46.4356 105.556 47.031C105.604 46.5052 105.955 46.1749 106.119 45.7708C106.288 45.3493 106.483 44.9365 106.651 44.5149C106.824 44.076 106.98 43.6328 107.144 43.1939C107.303 42.7681 107.463 42.3422 107.618 41.9207C107.774 41.4992 107.924 41.0733 108.102 40.591L108.097 40.5866Z" fill="#FAD676"/>
<path d="M106.633 23.0266C104.385 21.61 101.847 20.8409 99.2966 19.9544C100.8 19.9631 106.012 22.1445 106.633 23.0266Z" fill="#FAD676"/>
<path d="M104.775 8.08256C103.662 6.14883 102.499 4.14123 101.346 2.12493C101.333 2.09886 101.377 2.03802 101.395 1.99457C101.945 2.35524 104.553 7.10483 104.775 8.08256Z" fill="#FAD676"/>
<path d="M118.078 20.5323C116.117 21.9272 114.081 23.1787 111.761 23.8914C111.744 23.8566 111.726 23.8218 111.704 23.7871C112.79 23.2787 113.895 22.8007 114.964 22.2575C116.02 21.7186 117.04 21.1146 118.078 20.5367V20.5323Z" fill="#FAD676"/>
<path d="M130.84 24.6996C130.077 25.2776 125.641 25.8642 123.601 25.7338C125.987 25.4557 128.444 25.2689 130.84 24.6996Z" fill="#FAD676"/>
<path d="M120.571 29.6187C123.632 30.3444 126.737 30.5573 129.873 30.4487C126.71 30.8267 123.618 30.4487 120.571 29.6187Z" fill="#FAD676"/>
<path d="M112.427 11.7936C112.382 10.2553 114.068 5.32754 114.92 4.5975C114.818 5.08854 114.476 5.47528 114.303 5.94025C114.13 6.4139 113.904 6.86583 113.731 7.33949C113.553 7.82618 113.403 8.32591 113.252 8.82129C113.11 9.30364 112.981 9.79033 112.848 10.2727C112.711 10.7724 112.569 11.2678 112.422 11.7936H112.427Z" fill="#FAD676"/>
<path d="M86.486 31.4829C86.9207 31.4047 87.3199 31.3656 87.7014 31.2613C89.4136 30.805 91.1214 30.3313 92.8337 29.8664C92.8958 29.849 92.9623 29.8403 93.0555 29.8968C92.8381 29.975 92.6207 30.0663 92.3989 30.1314C90.7488 30.6181 89.0987 31.1048 87.4397 31.5785C86.9917 31.7045 86.8276 31.6697 86.4816 31.4829H86.486Z" fill="#FAD676"/>
<path d="M92.2747 24.2825C91.5783 24.4302 90.8774 24.5693 90.181 24.7344C89.4846 24.8952 88.7926 25.0994 88.0962 25.2515C87.4131 25.3992 86.7921 25.7773 86.0956 25.8729C86.0823 25.8381 86.0646 25.8034 86.0513 25.7686C86.14 25.7078 86.2243 25.6339 86.3219 25.5948C87.6748 25.0559 89.0765 24.6953 90.5181 24.4693C91.0992 24.3781 91.6892 24.3172 92.2747 24.239C92.2747 24.2564 92.2747 24.2694 92.2747 24.2868V24.2825Z" fill="#FAD676"/>
<path d="M113.598 27.3156C116.468 28.189 119.418 28.6323 122.341 28.9582C121.006 29.1407 114.684 28.0022 113.598 27.3156Z" fill="#FAD676"/>
<path d="M107.13 16.1869C107.867 17.4557 108.953 21.623 108.745 22.4009C108.488 21.2754 108.275 20.2412 108.009 19.22C107.742 18.2032 107.428 17.1993 107.135 16.1869H107.13Z" fill="#FAD676"/>
<path d="M122.021 36.6279C123.317 37.8186 125.144 40.6431 125.06 41.3601C124.838 40.9604 124.625 40.5562 124.39 40.1608C124.146 39.7567 123.884 39.3612 123.623 38.9658C123.361 38.5703 123.086 38.1836 122.82 37.7925C122.554 37.4014 122.287 37.0147 122.017 36.6236L122.021 36.6279Z" fill="#FAD676"/>
<path d="M113.482 28.0891C113.651 28.176 113.846 28.2368 113.993 28.3498C114.795 28.9799 115.607 29.6056 116.383 30.2705C116.991 30.792 117.55 31.3656 118.091 31.9565C116.508 30.7355 115.128 29.271 113.398 28.2238C113.429 28.176 113.456 28.1325 113.487 28.0847L113.482 28.0891Z" fill="#FAD676"/>
<path d="M91.3077 8.97338C92.0707 8.95166 95.7968 11.0158 96.7948 12.0152C96.3512 11.7458 95.9121 11.4764 95.4685 11.2113C95.0294 10.9506 94.5858 10.6898 94.1378 10.4378C93.6764 10.1771 93.2063 9.93373 92.7405 9.68169C92.3058 9.44704 91.8134 9.32102 91.3033 8.97773L91.3077 8.97338Z" fill="#FAD676"/>
<path d="M108.497 10.9984C108.168 9.72515 107.787 8.45627 107.263 7.2352C106.74 6.01847 106.181 4.81912 105.658 3.60239C106.971 5.92721 108.031 8.34764 108.492 10.9984H108.497Z" fill="#FAD676"/>
<path d="M97.4913 9.25149C97.0078 8.9082 96.5243 8.56056 96.0363 8.22596C95.5306 7.87833 95.0338 7.51765 94.506 7.20478C94.0047 6.90929 93.4724 6.66594 92.98 6.3183C93.0643 6.3183 93.1619 6.29223 93.2329 6.32265C93.6099 6.48343 93.9958 6.63118 94.3418 6.83976C95.4818 7.52634 96.5553 8.30418 97.4913 9.25149Z" fill="#FAD676"/>
<path d="M122.425 9.16458C120.841 10.0467 119.848 11.4938 118.513 12.6062C118.632 12.4584 118.743 12.3064 118.872 12.1716C119.591 11.4025 120.3 10.6247 121.037 9.87289C121.294 9.60782 121.618 9.40358 121.919 9.18196C122.052 9.08202 122.203 9.0038 122.425 9.16458Z" fill="#FAD676"/>
<path d="M85.9803 28.9278C86.0335 28.6192 86.2775 28.5149 86.4948 28.3976C87.6482 27.7632 88.8857 27.3286 90.1633 27.0027C90.323 26.9636 90.4871 26.9375 90.6556 26.9202C89.0765 27.5372 87.4397 28.0282 85.9803 28.9321V28.9278Z" fill="#FAD676"/>
<path d="M107.17 25.4036C105.356 25.9642 103.613 26.503 101.852 27.0462C103.049 26.3552 106.381 25.3123 107.17 25.4036Z" fill="#FAD676"/>
<path d="M113.203 26.0641C115.053 26.1684 116.867 26.2683 118.406 26.3509C116.774 26.5421 113.784 26.4117 113.203 26.0641Z" fill="#FAD676"/>
<path d="M101.204 23.535C103.12 23.1961 104.886 23.4481 106.656 23.6524C106.656 23.7089 106.651 23.7653 106.647 23.8218C106.075 23.761 105.502 23.6915 104.926 23.648C104.327 23.6002 103.728 23.5611 103.129 23.5437C102.53 23.5263 101.927 23.5437 101.204 23.5437V23.535Z" fill="#FAD676"/>
<path d="M111.544 25.3688C111.517 25.3297 111.477 25.2949 111.464 25.2558C111.22 24.4954 110.688 24.0217 109.934 23.748C109.619 23.635 109.308 23.4742 109.051 23.2656C108.687 22.9788 108.275 23.057 107.858 23.031C108.137 22.7963 108.634 22.7268 108.953 22.9788C109.459 23.3743 110.067 23.5568 110.612 23.8566C111.207 24.1869 111.531 24.704 111.664 25.3297C111.624 25.3427 111.584 25.3558 111.544 25.3688Z" fill="#FAD676"/>
<path d="M101.608 46.1749C102.335 44.9756 103.063 43.7762 103.848 42.4769C103.582 43.3938 102.176 45.8446 101.723 46.2357C101.683 46.214 101.648 46.1966 101.608 46.1749Z" fill="#FAD676"/>
<path d="M108.133 27.7023C108.08 28.2455 106.243 30.6138 105.573 31.0527C106.425 29.9359 107.277 28.8191 108.133 27.7023Z" fill="#FAD676"/>
<path d="M97.2517 39.7088C96.4489 40.6866 95.5262 41.5339 94.4217 42.2249C94.4394 42.1553 94.435 42.0597 94.4794 42.0206C95.3976 41.2471 96.3247 40.478 97.2517 39.7088Z" fill="#FAD676"/>
<path d="M110.014 33.4297C110.311 32.0521 110.604 30.6746 110.914 29.2406C111.087 29.736 110.559 32.252 110.014 33.4297Z" fill="#FAD676"/>
<path d="M89.5157 31.8479C88.5309 32.2955 87.4841 32.5953 86.3929 32.73C86.3308 32.7387 86.2598 32.6518 86.14 32.5779C87.3066 32.3259 88.4112 32.0869 89.5157 31.8479Z" fill="#FAD676"/>
<path d="M125.903 40.9647C125.277 40.0174 124.687 39.1222 124.097 38.2227C124.718 38.7528 125.171 39.4134 125.605 40.0869C125.752 40.3085 125.867 40.5519 125.987 40.7909C126 40.8169 125.947 40.8691 125.898 40.9647H125.903Z" fill="#FAD676"/>
<path d="M130.818 23.9783C129.695 24.3954 128.529 24.6301 127.331 24.7213C128.48 24.4172 129.629 24.1173 130.773 23.8131C130.787 23.8653 130.8 23.9218 130.818 23.9739V23.9783Z" fill="#FAD676"/>
<path d="M127.353 19.4242C128.112 18.8115 128.87 18.2032 129.678 17.5513C129.549 18.0467 128.573 18.8376 127.353 19.4242Z" fill="#FAD676"/>
<path d="M114.445 47.4655C114.503 46.4791 114.556 45.5318 114.605 44.667C114.853 45.8707 114.791 47.1657 114.445 47.4655Z" fill="#FAD676"/>
<path d="M100.738 2.9723C101.169 3.17653 102.069 4.47148 102.291 5.17545C101.754 4.4541 101.169 3.76317 100.738 2.9723Z" fill="#FAD676"/>
<path d="M85.6299 28.0674C86.3485 27.5068 87.1869 27.2113 88.0873 27.0375C87.2933 27.4199 86.4949 27.7979 85.7009 28.1803C85.6787 28.1412 85.6565 28.1065 85.6299 28.0674Z" fill="#FAD676"/>
<path d="M87.8212 35.6806C88.003 35.4286 89.1563 34.8289 89.8794 34.6116C89.4491 35.0375 88.2337 35.6719 87.8212 35.6806Z" fill="#FAD676"/>
<path d="M112.094 26.4421C112.946 26.9506 112.879 28.1586 112.067 28.7583C112.653 28.0413 112.697 27.2982 112.094 26.4421Z" fill="#FAD676"/>
<path d="M93.6587 10.8637C93.0155 10.6203 92.3767 10.377 91.6581 10.0989C92.1239 9.99457 92.8913 10.2857 93.6587 10.8637Z" fill="#FAD676"/>
</g>
<path d="M2.94631 46.8424V46.9835C2.94631 47.4541 2.80081 47.6894 2.50982 47.6894C2.36432 47.6894 2.16427 47.6329 1.90965 47.52C1.65503 47.4071 1.42769 47.2471 1.22763 47.04C1.04576 46.8518 0.954824 46.6447 0.954824 46.4188L0.982104 46.2212C1.03667 45.8259 1.06395 45.3929 1.06395 44.9224V44.3576L0.627455 27.6706C0.609268 27.3694 0.5638 27.0494 0.491052 26.7106C0.418304 26.3529 0.318275 26.0612 0.190965 25.8353C0.0636551 25.5718 0 25.3835 0 25.2706C0 25.12 0.100029 25.0447 0.300088 25.0447C0.66383 25.0447 1.33675 25.28 2.31886 25.7506L14.3496 25.1012H14.5406C14.8134 25.1012 15.1044 25.2141 15.4136 25.44C15.7228 25.6471 15.8773 25.8918 15.8773 26.1741C15.8773 26.2682 15.8592 26.3718 15.8228 26.4847C15.7864 26.5976 15.7591 26.6918 15.7409 26.7671L14.9771 43.5671C15.4863 44.2259 15.7409 44.6776 15.7409 44.9224C15.7409 45.0541 15.6773 45.1388 15.55 45.1765C15.4227 45.2141 15.1953 45.2424 14.868 45.2612L2.91903 45.6847L2.94631 46.8424ZM2.59166 34.6165L13.5858 34.0518L13.8586 26.8235L2.4007 27.4447L2.59166 34.6165ZM2.86447 43.9906L13.2311 43.6518L13.5312 35.7741L2.64622 36.2824L2.86447 43.9906Z" fill="#F08984"/>
<path d="M30.227 46.8424V46.9835C30.227 47.4541 30.0815 47.6894 29.7905 47.6894C29.645 47.6894 29.4449 47.6329 29.1903 47.52C28.9357 47.4071 28.7084 47.2471 28.5083 47.04C28.3264 46.8518 28.2355 46.6447 28.2355 46.4188L28.2628 46.2212C28.3173 45.8259 28.3446 45.3929 28.3446 44.9224V44.3576L27.9081 27.6706C27.8899 27.3694 27.8445 27.0494 27.7717 26.7106C27.699 26.3529 27.5989 26.0612 27.4716 25.8353C27.3443 25.5718 27.2807 25.3835 27.2807 25.2706C27.2807 25.12 27.3807 25.0447 27.5808 25.0447C27.9445 25.0447 28.6174 25.28 29.5995 25.7506L41.6303 25.1012H41.8213C42.0941 25.1012 42.3851 25.2141 42.6942 25.44C43.0034 25.6471 43.158 25.8918 43.158 26.1741C43.158 26.2682 43.1398 26.3718 43.1035 26.4847C43.0671 26.5976 43.0398 26.6918 43.0216 26.7671L42.2578 43.5671C42.767 44.2259 43.0216 44.6776 43.0216 44.9224C43.0216 45.0541 42.958 45.1388 42.8306 45.1765C42.7033 45.2141 42.476 45.2424 42.1486 45.2612L30.1997 45.6847L30.227 46.8424ZM29.8723 34.6165L40.8664 34.0518L41.1392 26.8235L29.6814 27.4447L29.8723 34.6165ZM30.1451 43.9906L40.5118 43.6518L40.8119 35.7741L29.9269 36.2824L30.1451 43.9906Z" fill="#F08984"/>
<path d="M74.2034 47.2941C71.1116 47.0306 68.0016 46.4847 64.8734 45.6565C61.7634 44.8282 58.999 43.7647 56.5801 42.4659C55.798 43.5576 54.9796 44.4988 54.1248 45.2894C53.27 46.0612 52.5062 46.6447 51.8333 47.04C51.1785 47.4541 50.7511 47.6612 50.5511 47.6612C50.4238 47.6612 50.3601 47.6047 50.3601 47.4918C50.3601 47.4165 50.4056 47.3129 50.4965 47.1812C50.5874 47.0494 50.7148 46.9176 50.8784 46.7859C51.9333 45.8824 52.9063 44.8188 53.7975 43.5953C54.7068 42.3529 55.4252 41.1859 55.9526 40.0941C56.4983 39.0024 56.7711 38.2212 56.7711 37.7506V37.5247C56.7711 37.2235 56.862 37.0729 57.0439 37.0729C57.1894 37.0729 57.4076 37.1671 57.6986 37.3553C57.9896 37.5247 58.2442 37.7318 58.4625 37.9765C58.6989 38.2024 58.8171 38.4 58.8171 38.5694C58.8171 38.6259 58.6989 38.8894 58.4625 39.36C58.226 39.8306 57.8805 40.4329 57.4258 41.1671C58.7898 41.8635 60.3176 42.5129 62.0089 43.1153L62.0635 35.8871L54.2885 36.3106L53.6065 36.3388H53.4701C53.2519 36.3388 53.0791 36.2918 52.9518 36.1976C52.7153 35.9529 52.5153 35.6988 52.3516 35.4353C52.2061 35.1529 52.1334 34.9365 52.1334 34.7859C52.1334 34.6353 52.2152 34.56 52.3789 34.56H52.488C52.8517 34.6729 53.1973 34.7294 53.5247 34.7294H53.7156L70.9843 33.7976C71.4935 33.76 71.8573 33.6941 72.0755 33.6C72.1483 33.5624 72.221 33.5435 72.2938 33.5435C72.5302 33.5435 72.8212 33.7129 73.1667 34.0518C73.5123 34.3906 73.6851 34.6635 73.6851 34.8706C73.6851 35.1341 73.4759 35.2847 73.0576 35.3224H72.9758L63.7549 35.8024L63.7276 38.6541L67.9289 38.4565C68.4199 38.4188 68.7746 38.3529 68.9928 38.2588C69.0655 38.2212 69.1292 38.2024 69.1838 38.2024C69.3656 38.2024 69.6384 38.3624 70.0022 38.6824C70.3659 38.9835 70.5478 39.2471 70.5478 39.4729C70.5478 39.7365 70.3205 39.8871 69.8658 39.9247L63.7276 40.2353L63.7004 43.6518C66.974 44.6118 70.8024 45.2329 75.1855 45.5153C75.5856 45.5529 75.7857 45.6659 75.7857 45.8541C75.7857 45.9859 75.722 46.1647 75.5947 46.3906C75.4856 46.6353 75.3219 46.8424 75.1037 47.0118C74.9036 47.2 74.6763 47.2941 74.4217 47.2941H74.2034ZM55.6253 24.2541C55.6253 24.1035 55.7435 24.0282 55.9799 24.0282C56.3437 24.0282 56.9711 24.2071 57.8623 24.5647L68.2562 24H68.4472C68.6654 24 68.9201 24.0753 69.211 24.2259C69.5202 24.3765 69.6748 24.5647 69.6748 24.7906C69.6748 24.8847 69.6475 24.9882 69.593 25.1012C69.5566 25.2141 69.5293 25.3176 69.5111 25.4118L68.911 30.4659C69.3475 30.9929 69.5657 31.36 69.5657 31.5671C69.5657 31.6988 69.502 31.7835 69.3747 31.8212C69.2656 31.8588 69.0837 31.8871 68.8291 31.9059L58.4625 32.4424L58.517 33.0071V33.0918C58.517 33.4306 58.3624 33.6 58.0533 33.6C57.7986 33.6 57.4985 33.5059 57.153 33.3176C56.8256 33.1294 56.6619 32.8753 56.6619 32.5553V32.4706C56.6983 32.1318 56.7165 31.8965 56.7165 31.7647C56.7165 31.6518 56.6983 31.4071 56.6619 31.0306L56.2254 26.0612C56.1891 25.5718 56.0345 25.0824 55.7617 24.5929C55.6707 24.4612 55.6253 24.3482 55.6253 24.2541ZM58.0805 27.7553L67.6015 27.2188L67.7652 25.4118L57.9168 26.0047L58.0805 27.7553ZM58.3533 31.0306L67.3014 30.5506L67.4924 28.5459L58.1897 29.0824L58.3533 31.0306Z" fill="#F08984"/>
<path d="M88.744 31.0588C88.8167 31.04 88.9168 31.0306 89.0441 31.0306C89.4078 31.0306 89.5897 31.1247 89.5897 31.3129C89.5897 31.5953 88.8895 31.9059 87.4891 32.2447C86.998 35.6894 86.1978 38.4847 85.0884 40.6306C85.7431 41.3082 86.407 42.0329 87.0799 42.8047C87.771 43.5765 88.1165 44.0565 88.1165 44.2447C88.1165 44.4141 87.9983 44.6306 87.7619 44.8941C87.5255 45.1576 87.3072 45.2894 87.1072 45.2894C86.9617 45.2894 86.8344 45.2047 86.7252 45.0353C86.0159 44.0376 85.1975 43.0118 84.27 41.9576C83.5425 43.0494 82.7423 43.9906 81.8693 44.7812C80.9963 45.5529 80.2051 46.1365 79.4958 46.5318C78.8047 46.9459 78.3501 47.1529 78.1318 47.1529C77.9863 47.1529 77.9136 47.0965 77.9136 46.9835C77.9136 46.8141 78.0773 46.5976 78.4046 46.3341C80.4961 44.6965 82.1239 42.8706 83.2879 40.8565C82.7604 40.2541 82.1239 39.6141 81.3782 38.9365C81.2873 38.8424 81.1509 38.7482 80.969 38.6541C80.7871 38.56 80.6507 38.4659 80.5598 38.3718C80.4689 38.2776 80.3961 38.1176 80.3416 37.8918C80.3052 37.7412 80.287 37.6376 80.287 37.5812C80.287 37.4494 80.3143 37.28 80.3688 37.0729C80.4416 36.8471 80.487 36.6965 80.5052 36.6212C80.8326 35.4165 81.0872 34.3812 81.2691 33.5153C79.7778 33.76 78.9684 33.8824 78.8411 33.8824C78.5319 33.8824 78.2682 33.7788 78.05 33.5718C77.8317 33.3459 77.659 33.1012 77.5316 32.8376C77.4043 32.5741 77.3407 32.3859 77.3407 32.2729C77.3407 32.16 77.4134 32.1035 77.5589 32.1035H77.6953C78.0227 32.1412 78.2591 32.16 78.4046 32.16L79.1412 32.1318C80.2506 32.0565 81.069 31.9906 81.5965 31.9341C82.1057 29.4871 82.4058 27.3976 82.4967 25.6659V25.3553C82.4967 25.0165 82.4513 24.7435 82.3603 24.5365C82.324 24.4235 82.3058 24.3388 82.3058 24.2824C82.3058 24.1129 82.4149 24.0282 82.6331 24.0282C82.9241 24.0282 83.2879 24.1318 83.7244 24.3388C84.179 24.5459 84.4064 24.8 84.4064 25.1012V25.2988C84.1881 27.1624 83.7971 29.3271 83.2333 31.7929C83.9062 31.7365 84.7974 31.6329 85.9068 31.4824L85.9614 30.72V30.5506C85.9614 30.2118 85.8886 29.8635 85.7431 29.5059C85.7067 29.3929 85.6886 29.3082 85.6886 29.2518C85.6886 29.1012 85.7977 29.0259 86.0159 29.0259C86.3251 29.0259 86.6798 29.1106 87.0799 29.28C87.4982 29.4494 87.7073 29.7318 87.7073 30.1271V30.3529L87.6255 31.2282L88.744 31.0588ZM81.8147 37.4118C82.524 38.0518 83.2515 38.7482 83.9972 39.5012C84.852 37.4871 85.443 35.2094 85.7704 32.6682L82.9059 33.2329C82.6513 34.2871 82.2876 35.68 81.8147 37.4118ZM87.6255 34.4753C87.6255 34.3435 87.6801 34.2776 87.7892 34.2776C87.8619 34.2776 87.9165 34.2871 87.9529 34.3059C88.4075 34.4 88.8077 34.4471 89.1532 34.4471H89.3715L94.3365 34.1647C94.0092 32.6776 93.6272 31.5388 93.1908 30.7482C93.0816 30.5788 93.0271 30.4282 93.0271 30.2965C93.0271 30.0894 93.218 29.8918 93.6 29.7035C93.8 29.5906 93.9637 29.5341 94.091 29.5341C94.2001 29.5341 94.2911 29.5718 94.3638 29.6471C94.4548 29.7035 94.5457 29.8071 94.6366 29.9576L94.7457 30.1553C95.8188 29.0259 96.8009 27.7271 97.6921 26.2588L91.663 26.6824C91.2629 26.72 90.9901 26.7388 90.8446 26.7388H90.7082C90.3263 26.7012 89.9989 26.5035 89.7261 26.1459C89.4715 25.7882 89.3442 25.4682 89.3442 25.1859C89.3442 25.0729 89.3987 25.0165 89.5079 25.0165C89.5806 25.0165 89.6443 25.0259 89.6988 25.0447C90.0444 25.12 90.4081 25.1576 90.79 25.1576H91.1174L98.6196 24.6494H98.8106C99.1197 24.6494 99.4016 24.7718 99.6563 25.0165C99.9291 25.2424 100.065 25.4588 100.065 25.6659C100.065 25.8165 100.002 25.9576 99.8745 26.0894C99.7472 26.2024 99.6654 26.2776 99.629 26.3153C98.3559 28.2918 96.9555 30.0988 95.4278 31.7365C95.5914 32.2447 95.7824 33.0259 96.0007 34.08L100.393 33.8259C100.866 33.8071 101.329 33.7318 101.784 33.6C101.93 33.5624 102.03 33.5435 102.084 33.5435C102.302 33.5435 102.593 33.7035 102.957 34.0235C103.321 34.3435 103.503 34.6165 103.503 34.8424C103.503 35.0871 103.285 35.2282 102.848 35.2659L96.2735 35.6329C96.5645 37.5906 96.71 39.7271 96.71 42.0424C96.71 44.0376 96.6099 45.5247 96.4099 46.5035C96.228 47.5012 95.837 48 95.2368 48C94.9458 48 94.3729 47.7553 93.5181 47.2659C92.6815 46.7765 91.9086 46.2306 91.1993 45.6282C90.49 45.0447 90.1353 44.6118 90.1353 44.3294C90.1353 44.1976 90.2172 44.1318 90.3808 44.1318C90.5809 44.1318 90.8628 44.2259 91.2265 44.4141C92.3178 44.96 93.3908 45.3835 94.4457 45.6847C94.482 45.7035 94.5366 45.7129 94.6093 45.7129C94.7185 45.7129 94.8003 45.4588 94.8549 44.9506C94.9276 44.4424 94.964 43.2659 94.964 41.4212C94.964 39.2188 94.8458 37.3271 94.6093 35.7459L89.9171 36L89.1532 36.0282C88.7895 36.0282 88.553 35.9718 88.4439 35.8588C88.2075 35.6518 88.0074 35.4259 87.8437 35.1812C87.6982 34.9365 87.6255 34.7012 87.6255 34.4753Z" fill="#F08984"/>
<path d="M112.069 46.8424V46.9835C112.069 47.4541 111.923 47.6894 111.632 47.6894C111.487 47.6894 111.287 47.6329 111.032 47.52C110.778 47.4071 110.55 47.2471 110.35 47.04C110.168 46.8518 110.077 46.6447 110.077 46.4188L110.105 46.2212C110.159 45.8259 110.187 45.3929 110.187 44.9224V44.3576L109.75 27.6706C109.732 27.3694 109.686 27.0494 109.614 26.7106C109.541 26.3529 109.441 26.0612 109.314 25.8353C109.186 25.5718 109.123 25.3835 109.123 25.2706C109.123 25.12 109.223 25.0447 109.423 25.0447C109.786 25.0447 110.459 25.28 111.442 25.7506L123.472 25.1012H123.663C123.936 25.1012 124.227 25.2141 124.536 25.44C124.845 25.6471 125 25.8918 125 26.1741C125 26.2682 124.982 26.3718 124.945 26.4847C124.909 26.5976 124.882 26.6918 124.864 26.7671L124.1 43.5671C124.609 44.2259 124.864 44.6776 124.864 44.9224C124.864 45.0541 124.8 45.1388 124.673 45.1765C124.545 45.2141 124.318 45.2424 123.991 45.2612L112.042 45.6847L112.069 46.8424ZM111.714 34.6165L122.708 34.0518L122.981 26.8235L111.523 27.4447L111.714 34.6165ZM111.987 43.9906L122.354 43.6518L122.654 35.7741L111.769 36.2824L111.987 43.9906Z" fill="#F08984"/>
<defs>
<clipPath id="clip0_15_644">
<rect width="48" height="48" fill="white" transform="translate(85)"/>
</clipPath>
</defs>
</svg>
