<svg width="125" height="24" viewBox="0 0 125 24" fill="none" xmlns="http://www.w3.org/2000/svg">
<path d="M2.94631 22.8424V22.9835C2.94631 23.4541 2.80081 23.6894 2.50982 23.6894C2.36432 23.6894 2.16427 23.6329 1.90965 23.52C1.65503 23.4071 1.42769 23.2471 1.22763 23.04C1.04576 22.8518 0.954824 22.6447 0.954824 22.4188L0.982104 22.2212C1.03667 21.8259 1.06395 21.3929 1.06395 20.9224V20.3576L0.627455 3.67059C0.609268 3.36941 0.5638 3.04941 0.491052 2.71059C0.418304 2.35294 0.318275 2.06118 0.190965 1.83529C0.0636551 1.57176 0 1.38353 0 1.27059C0 1.12 0.100029 1.04471 0.300088 1.04471C0.66383 1.04471 1.33675 1.28 2.31886 1.75059L14.3496 1.10118H14.5406C14.8134 1.10118 15.1044 1.21412 15.4136 1.44C15.7228 1.64706 15.8773 1.89176 15.8773 2.17412C15.8773 2.26824 15.8592 2.37176 15.8228 2.48471C15.7864 2.59765 15.7591 2.69176 15.7409 2.76706L14.9771 19.5671C15.4863 20.2259 15.7409 20.6776 15.7409 20.9224C15.7409 21.0541 15.6773 21.1388 15.55 21.1765C15.4227 21.2141 15.1953 21.2424 14.868 21.2612L2.91903 21.6847L2.94631 22.8424ZM2.59166 10.6165L13.5858 10.0518L13.8586 2.82353L2.4007 3.44471L2.59166 10.6165ZM2.86447 19.9906L13.2311 19.6518L13.5312 11.7741L2.64622 12.2824L2.86447 19.9906Z" fill="#FF3D33"/>
<path d="M30.227 22.8424V22.9835C30.227 23.4541 30.0815 23.6894 29.7905 23.6894C29.645 23.6894 29.4449 23.6329 29.1903 23.52C28.9357 23.4071 28.7084 23.2471 28.5083 23.04C28.3264 22.8518 28.2355 22.6447 28.2355 22.4188L28.2628 22.2212C28.3173 21.8259 28.3446 21.3929 28.3446 20.9224V20.3576L27.9081 3.67059C27.8899 3.36941 27.8445 3.04941 27.7717 2.71059C27.699 2.35294 27.5989 2.06118 27.4716 1.83529C27.3443 1.57176 27.2807 1.38353 27.2807 1.27059C27.2807 1.12 27.3807 1.04471 27.5808 1.04471C27.9445 1.04471 28.6174 1.28 29.5995 1.75059L41.6303 1.10118H41.8213C42.0941 1.10118 42.3851 1.21412 42.6942 1.44C43.0034 1.64706 43.158 1.89176 43.158 2.17412C43.158 2.26824 43.1398 2.37176 43.1035 2.48471C43.0671 2.59765 43.0398 2.69176 43.0216 2.76706L42.2578 19.5671C42.767 20.2259 43.0216 20.6776 43.0216 20.9224C43.0216 21.0541 42.958 21.1388 42.8306 21.1765C42.7033 21.2141 42.476 21.2424 42.1486 21.2612L30.1997 21.6847L30.227 22.8424ZM29.8723 10.6165L40.8664 10.0518L41.1392 2.82353L29.6814 3.44471L29.8723 10.6165ZM30.1451 19.9906L40.5118 19.6518L40.8119 11.7741L29.9269 12.2824L30.1451 19.9906Z" fill="#FF3D33"/>
<path d="M74.2034 23.2941C71.1116 23.0306 68.0016 22.4847 64.8734 21.6565C61.7634 20.8282 58.999 19.7647 56.5801 18.4659C55.798 19.5576 54.9796 20.4988 54.1248 21.2894C53.27 22.0612 52.5062 22.6447 51.8333 23.04C51.1785 23.4541 50.7511 23.6612 50.5511 23.6612C50.4238 23.6612 50.3601 23.6047 50.3601 23.4918C50.3601 23.4165 50.4056 23.3129 50.4965 23.1812C50.5874 23.0494 50.7148 22.9176 50.8784 22.7859C51.9333 21.8824 52.9063 20.8188 53.7975 19.5953C54.7068 18.3529 55.4252 17.1859 55.9526 16.0941C56.4983 15.0024 56.7711 14.2212 56.7711 13.7506V13.5247C56.7711 13.2235 56.862 13.0729 57.0439 13.0729C57.1894 13.0729 57.4076 13.1671 57.6986 13.3553C57.9896 13.5247 58.2442 13.7318 58.4625 13.9765C58.6989 14.2024 58.8171 14.4 58.8171 14.5694C58.8171 14.6259 58.6989 14.8894 58.4625 15.36C58.226 15.8306 57.8805 16.4329 57.4258 17.1671C58.7898 17.8635 60.3176 18.5129 62.0089 19.1153L62.0635 11.8871L54.2885 12.3106L53.6065 12.3388H53.4701C53.2519 12.3388 53.0791 12.2918 52.9518 12.1976C52.7153 11.9529 52.5153 11.6988 52.3516 11.4353C52.2061 11.1529 52.1334 10.9365 52.1334 10.7859C52.1334 10.6353 52.2152 10.56 52.3789 10.56H52.488C52.8517 10.6729 53.1973 10.7294 53.5247 10.7294H53.7156L70.9843 9.79765C71.4935 9.76 71.8573 9.69412 72.0755 9.6C72.1483 9.56235 72.221 9.54353 72.2938 9.54353C72.5302 9.54353 72.8212 9.71294 73.1667 10.0518C73.5123 10.3906 73.6851 10.6635 73.6851 10.8706C73.6851 11.1341 73.4759 11.2847 73.0576 11.3224H72.9758L63.7549 11.8024L63.7276 14.6541L67.9289 14.4565C68.4199 14.4188 68.7746 14.3529 68.9928 14.2588C69.0655 14.2212 69.1292 14.2024 69.1838 14.2024C69.3656 14.2024 69.6384 14.3624 70.0022 14.6824C70.3659 14.9835 70.5478 15.2471 70.5478 15.4729C70.5478 15.7365 70.3205 15.8871 69.8658 15.9247L63.7276 16.2353L63.7004 19.6518C66.974 20.6118 70.8024 21.2329 75.1855 21.5153C75.5856 21.5529 75.7857 21.6659 75.7857 21.8541C75.7857 21.9859 75.722 22.1647 75.5947 22.3906C75.4856 22.6353 75.3219 22.8424 75.1037 23.0118C74.9036 23.2 74.6763 23.2941 74.4217 23.2941H74.2034ZM55.6253 0.254118C55.6253 0.103529 55.7435 0.0282349 55.9799 0.0282349C56.3437 0.0282349 56.9711 0.207058 57.8623 0.564705L68.2562 0H68.4472C68.6654 0 68.9201 0.0752943 69.211 0.225883C69.5202 0.37647 69.6748 0.564705 69.6748 0.790588C69.6748 0.884706 69.6475 0.988235 69.593 1.10118C69.5566 1.21412 69.5293 1.31765 69.5111 1.41176L68.911 6.46588C69.3475 6.99294 69.5657 7.36 69.5657 7.56706C69.5657 7.69882 69.502 7.78353 69.3747 7.82118C69.2656 7.85882 69.0837 7.88706 68.8291 7.90588L58.4625 8.44235L58.517 9.00706V9.09176C58.517 9.43059 58.3624 9.6 58.0533 9.6C57.7986 9.6 57.4985 9.50588 57.153 9.31765C56.8256 9.12941 56.6619 8.87529 56.6619 8.55529V8.47059C56.6983 8.13176 56.7165 7.89647 56.7165 7.76471C56.7165 7.65176 56.6983 7.40706 56.6619 7.03059L56.2254 2.06118C56.1891 1.57176 56.0345 1.08235 55.7617 0.59294C55.6707 0.461176 55.6253 0.348235 55.6253 0.254118ZM58.0805 3.75529L67.6015 3.21882L67.7652 1.41176L57.9168 2.00471L58.0805 3.75529ZM58.3533 7.03059L67.3014 6.55059L67.4924 4.54588L58.1897 5.08235L58.3533 7.03059Z" fill="#FF3D33"/>
<path d="M88.744 7.05882C88.8167 7.04 88.9168 7.03059 89.0441 7.03059C89.4078 7.03059 89.5897 7.12471 89.5897 7.31294C89.5897 7.59529 88.8895 7.90588 87.4891 8.24471C86.998 11.6894 86.1978 14.4847 85.0884 16.6306C85.7431 17.3082 86.407 18.0329 87.0799 18.8047C87.771 19.5765 88.1165 20.0565 88.1165 20.2447C88.1165 20.4141 87.9983 20.6306 87.7619 20.8941C87.5255 21.1576 87.3072 21.2894 87.1072 21.2894C86.9617 21.2894 86.8344 21.2047 86.7252 21.0353C86.0159 20.0376 85.1975 19.0118 84.27 17.9576C83.5425 19.0494 82.7423 19.9906 81.8693 20.7812C80.9963 21.5529 80.2051 22.1365 79.4958 22.5318C78.8047 22.9459 78.3501 23.1529 78.1318 23.1529C77.9863 23.1529 77.9136 23.0965 77.9136 22.9835C77.9136 22.8141 78.0773 22.5976 78.4046 22.3341C80.4961 20.6965 82.1239 18.8706 83.2879 16.8565C82.7604 16.2541 82.1239 15.6141 81.3782 14.9365C81.2873 14.8424 81.1509 14.7482 80.969 14.6541C80.7871 14.56 80.6507 14.4659 80.5598 14.3718C80.4689 14.2776 80.3961 14.1176 80.3416 13.8918C80.3052 13.7412 80.287 13.6376 80.287 13.5812C80.287 13.4494 80.3143 13.28 80.3688 13.0729C80.4416 12.8471 80.487 12.6965 80.5052 12.6212C80.8326 11.4165 81.0872 10.3812 81.2691 9.51529C79.7778 9.76 78.9684 9.88235 78.8411 9.88235C78.5319 9.88235 78.2682 9.77882 78.05 9.57176C77.8317 9.34588 77.659 9.10118 77.5316 8.83765C77.4043 8.57412 77.3407 8.38588 77.3407 8.27294C77.3407 8.16 77.4134 8.10353 77.5589 8.10353H77.6953C78.0227 8.14118 78.2591 8.16 78.4046 8.16L79.1412 8.13176C80.2506 8.05647 81.069 7.99059 81.5965 7.93412C82.1057 5.48706 82.4058 3.39765 82.4967 1.66588V1.35529C82.4967 1.01647 82.4513 0.743529 82.3603 0.53647C82.324 0.42353 82.3058 0.338824 82.3058 0.282353C82.3058 0.112941 82.4149 0.0282349 82.6331 0.0282349C82.9241 0.0282349 83.2879 0.131764 83.7244 0.338823C84.179 0.545882 84.4064 0.8 84.4064 1.10118V1.29882C84.1881 3.16235 83.7971 5.32706 83.2333 7.79294C83.9062 7.73647 84.7974 7.63294 85.9068 7.48235L85.9614 6.72V6.55059C85.9614 6.21176 85.8886 5.86353 85.7431 5.50588C85.7067 5.39294 85.6886 5.30824 85.6886 5.25176C85.6886 5.10118 85.7977 5.02588 86.0159 5.02588C86.3251 5.02588 86.6798 5.11059 87.0799 5.28C87.4982 5.44941 87.7073 5.73176 87.7073 6.12706V6.35294L87.6255 7.22823L88.744 7.05882ZM81.8147 13.4118C82.524 14.0518 83.2515 14.7482 83.9972 15.5012C84.852 13.4871 85.443 11.2094 85.7704 8.66824L82.9059 9.23294C82.6513 10.2871 82.2876 11.68 81.8147 13.4118ZM87.6255 10.4753C87.6255 10.3435 87.6801 10.2776 87.7892 10.2776C87.8619 10.2776 87.9165 10.2871 87.9529 10.3059C88.4075 10.4 88.8077 10.4471 89.1532 10.4471H89.3715L94.3365 10.1647C94.0092 8.67765 93.6272 7.53882 93.1908 6.74824C93.0816 6.57882 93.0271 6.42824 93.0271 6.29647C93.0271 6.08941 93.218 5.89176 93.6 5.70353C93.8 5.59059 93.9637 5.53412 94.091 5.53412C94.2001 5.53412 94.2911 5.57176 94.3638 5.64706C94.4548 5.70353 94.5457 5.80706 94.6366 5.95765L94.7457 6.15529C95.8188 5.02588 96.8009 3.72706 97.6921 2.25882L91.663 2.68235C91.2629 2.72 90.9901 2.73882 90.8446 2.73882H90.7082C90.3263 2.70118 89.9989 2.50353 89.7261 2.14588C89.4715 1.78823 89.3442 1.46823 89.3442 1.18588C89.3442 1.07294 89.3987 1.01647 89.5079 1.01647C89.5806 1.01647 89.6443 1.02588 89.6988 1.04471C90.0444 1.12 90.4081 1.15765 90.79 1.15765H91.1174L98.6196 0.649412H98.8106C99.1197 0.649412 99.4016 0.771765 99.6563 1.01647C99.9291 1.24235 100.065 1.45882 100.065 1.66588C100.065 1.81647 100.002 1.95765 99.8745 2.08941C99.7472 2.20235 99.6654 2.27765 99.629 2.31529C98.3559 4.29176 96.9555 6.09882 95.4278 7.73647C95.5914 8.24471 95.7824 9.02588 96.0007 10.08L100.393 9.82588C100.866 9.80706 101.329 9.73176 101.784 9.6C101.93 9.56235 102.03 9.54353 102.084 9.54353C102.302 9.54353 102.593 9.70353 102.957 10.0235C103.321 10.3435 103.503 10.6165 103.503 10.8424C103.503 11.0871 103.285 11.2282 102.848 11.2659L96.2735 11.6329C96.5645 13.5906 96.71 15.7271 96.71 18.0424C96.71 20.0376 96.6099 21.5247 96.4099 22.5035C96.228 23.5012 95.837 24 95.2368 24C94.9458 24 94.3729 23.7553 93.5181 23.2659C92.6815 22.7765 91.9086 22.2306 91.1993 21.6282C90.49 21.0447 90.1353 20.6118 90.1353 20.3294C90.1353 20.1976 90.2172 20.1318 90.3808 20.1318C90.5809 20.1318 90.8628 20.2259 91.2265 20.4141C92.3178 20.96 93.3908 21.3835 94.4457 21.6847C94.482 21.7035 94.5366 21.7129 94.6093 21.7129C94.7185 21.7129 94.8003 21.4588 94.8549 20.9506C94.9276 20.4424 94.964 19.2659 94.964 17.4212C94.964 15.2188 94.8458 13.3271 94.6093 11.7459L89.9171 12L89.1532 12.0282C88.7895 12.0282 88.553 11.9718 88.4439 11.8588C88.2075 11.6518 88.0074 11.4259 87.8437 11.1812C87.6982 10.9365 87.6255 10.7012 87.6255 10.4753Z" fill="#FF3D33"/>
<path d="M112.069 22.8424V22.9835C112.069 23.4541 111.923 23.6894 111.632 23.6894C111.487 23.6894 111.287 23.6329 111.032 23.52C110.778 23.4071 110.55 23.2471 110.35 23.04C110.168 22.8518 110.077 22.6447 110.077 22.4188L110.105 22.2212C110.159 21.8259 110.187 21.3929 110.187 20.9224V20.3576L109.75 3.67059C109.732 3.36941 109.686 3.04941 109.614 2.71059C109.541 2.35294 109.441 2.06118 109.314 1.83529C109.186 1.57176 109.123 1.38353 109.123 1.27059C109.123 1.12 109.223 1.04471 109.423 1.04471C109.786 1.04471 110.459 1.28 111.442 1.75059L123.472 1.10118H123.663C123.936 1.10118 124.227 1.21412 124.536 1.44C124.845 1.64706 125 1.89176 125 2.17412C125 2.26824 124.982 2.37176 124.945 2.48471C124.909 2.59765 124.882 2.69176 124.864 2.76706L124.1 19.5671C124.609 20.2259 124.864 20.6776 124.864 20.9224C124.864 21.0541 124.8 21.1388 124.673 21.1765C124.545 21.2141 124.318 21.2424 123.991 21.2612L112.042 21.6847L112.069 22.8424ZM111.714 10.6165L122.708 10.0518L122.981 2.82353L111.523 3.44471L111.714 10.6165ZM111.987 19.9906L122.354 19.6518L122.654 11.7741L111.769 12.2824L111.987 19.9906Z" fill="#FF3D33"/>
</svg>
