<svg width="48" height="48" viewBox="0 0 48 48" fill="none" xmlns="http://www.w3.org/2000/svg">
<g clip-path="url(#clip0_391_67)">
<path d="M47.9335 29.2319C47.8359 29.5709 47.7915 29.9228 47.7117 30.2661C47.5298 31.044 47.1128 31.661 46.3942 32.0565C45.0502 32.7952 43.5997 33.0429 42.0693 32.8908C39.3501 32.6214 36.8439 31.6436 34.3244 30.7094C34.1691 30.6529 34.0139 30.5964 33.8098 30.6181C33.9473 30.7267 34.0893 30.8354 34.2268 30.944C35.2337 31.7045 36.2717 32.4345 37.2431 33.2341C38.6803 34.4204 39.807 35.8587 40.6587 37.5057C41.0446 38.2487 41.3019 39.0309 41.3684 39.8653C41.4084 40.3737 41.3063 40.8126 40.7829 41.1037C40.5035 41.2602 40.2861 41.5556 40.0954 41.8294C39.8958 42.1206 39.7804 42.4638 39.5985 42.7724C39.2526 43.3677 38.7158 43.7284 38.0371 43.824C37.6734 43.8761 37.2919 43.7849 36.8306 43.7501C36.5112 43.3938 36.1519 42.994 35.735 42.5334C35.7837 43.0418 35.8325 43.4807 35.8592 43.9239C35.8725 44.1586 35.8769 44.3932 35.8458 44.6235C35.7571 45.2102 35.3224 45.4883 34.7369 45.3579C34.2711 45.2536 33.9163 44.9842 33.6679 44.6149C33.2642 44.0108 32.9005 43.3807 32.5279 42.755C32.377 42.4986 32.2484 42.2292 32.031 41.9945C32.1464 42.5855 32.2883 43.1678 32.3682 43.7631C32.4391 44.2759 32.5811 44.7756 32.448 45.3101C32.2661 46.0489 31.8625 46.6051 31.2193 46.9831C30.6382 47.3221 30.0083 47.5176 29.3163 47.5394C29.0014 47.548 28.6465 47.6176 28.3892 47.7784C27.6041 48.2737 26.3842 47.8957 25.9096 47.2091C25.3463 46.3965 25.0579 45.4883 24.9071 44.5323C24.8361 44.0717 24.8007 43.6067 24.743 43.0809C24.57 43.5241 24.4236 43.9152 24.2595 44.2976C23.9002 45.1493 23.3856 45.8968 22.738 46.566C22.1214 47.2004 21.4117 47.522 20.5112 47.2134C20.2806 47.3134 20.0632 47.409 19.8458 47.5089C18.7679 47.9869 17.3574 47.761 16.723 46.5703C16.6388 46.4095 16.5101 46.2618 16.3815 46.1314C15.6052 45.3492 15.379 44.3932 15.4633 43.346C15.5564 42.1727 16.0577 41.1428 16.6387 40.1434C16.7363 39.9739 16.8339 39.8044 16.9359 39.6349C16.9093 39.6132 16.8827 39.5958 16.8561 39.5741C16.723 39.7132 16.5988 39.8566 16.4569 39.9869C15.7915 40.5953 15.1616 41.2515 14.4475 41.7946C13.3829 42.6029 12.1453 42.9679 10.779 42.8897C10.3088 42.8636 9.90074 42.7289 9.55475 42.4334C9.18657 42.1119 8.74299 41.9424 8.30385 41.7468C7.68283 41.4687 7.084 41.1341 6.49847 40.7865C6.07263 40.5301 5.91294 40.1086 5.8952 39.6219C5.88189 39.17 5.79761 38.7137 5.82422 38.2661C5.84197 37.9228 5.94843 37.5752 6.07706 37.2493C6.20127 36.9408 6.40088 36.667 6.52508 36.302C6.32991 36.3889 6.1436 36.4888 5.94399 36.5671C5.31854 36.8234 4.68865 37.019 3.99667 36.8408C3.43775 36.6974 3.01635 36.3889 2.67479 35.9326C2.43526 35.611 2.16467 35.2982 1.87191 35.0201C1.3263 34.503 0.993616 33.925 1.02467 33.1472C1.04685 32.6083 1.06015 32.0738 1.25977 31.5611C1.30412 31.4524 1.34848 31.3308 1.34405 31.2221C1.30856 30.6398 1.52591 30.1705 1.9828 29.7968C1.93845 29.736 1.9207 29.6795 1.88078 29.6621C0.669801 29.0972 0.235091 28.0413 0.00886424 26.8506C-0.0709805 26.4334 0.133067 26.1379 0.470189 25.912C0.652058 25.7903 0.833927 25.6643 1.03354 25.5296C1.03354 25.2732 1.03354 25.0212 1.03354 24.7735C1.02467 24.2216 1.23759 23.7566 1.6102 23.3568C2.10257 22.8223 2.67923 22.4052 3.37122 22.1575C4.85721 21.6273 6.3787 21.2276 7.95342 21.0277C9.04906 20.8886 10.1447 20.8191 11.2448 20.8495C11.5686 20.8582 11.8924 20.8973 12.2295 20.8321C11.5908 20.7278 10.9565 20.5931 10.3133 20.5236C8.77848 20.3628 7.23481 20.2542 5.70002 20.0977C3.99223 19.9239 2.45744 19.3634 1.27307 18.0771C0.922643 17.6947 0.69198 17.2775 0.598828 16.7474C0.492369 16.1521 0.754082 15.774 1.16661 15.4438C1.70778 15.0092 2.35541 14.7659 3.02079 14.5877C4.24951 14.2618 5.50484 14.2965 6.75574 14.4269C8.57887 14.6138 10.3177 15.1309 12.0211 15.774C12.1098 15.8088 12.2074 15.8218 12.305 15.8479C12.3183 15.8262 12.3271 15.8044 12.3404 15.7827C12.1763 15.6784 12.0078 15.5741 11.8392 15.4785C10.7258 14.8354 9.6479 14.1445 8.71194 13.2623C7.89575 12.4975 7.20376 11.6371 6.76905 10.6116C6.46742 9.90328 6.29442 9.17324 6.50734 8.39975C6.62267 7.97824 6.80454 7.62191 7.15053 7.33511C7.31466 7.2004 7.42112 7.00051 7.55419 6.82669C7.59412 6.77455 7.61186 6.70502 7.64291 6.64419C8.20626 5.49264 8.78735 5.46656 9.7721 5.60127C10.7081 5.73164 11.5331 6.14446 12.3094 6.66157C13.8442 7.6871 15.135 8.96901 16.3371 10.3422C16.9537 11.0461 17.517 11.7892 18.107 12.5193C18.209 12.6453 18.3155 12.7713 18.484 12.8625C18.4486 12.7583 18.4219 12.6496 18.3687 12.554C17.8453 11.5676 17.3352 10.5725 16.794 9.5991C16.1907 8.51708 15.6496 7.40899 15.3701 6.20095C14.9886 4.55402 15.3391 3.06352 16.4037 1.73816C16.6964 1.37314 18.555 0.204207 18.9454 0.0868791C19.4333 -0.0565213 19.8991 0.0347335 20.3604 0.178134C21.252 0.456244 21.9129 1.0255 22.4275 1.77292C23.2259 2.93316 23.6917 4.2368 24.0421 5.57955C24.397 6.93099 24.6543 8.30415 24.7829 9.6947C24.8583 10.5334 24.9204 11.3721 24.9914 12.2107C24.9958 12.2846 25.0224 12.3585 25.1422 12.4367C25.1999 12.1369 25.2575 11.837 25.3108 11.5372C25.5503 10.2075 25.8519 8.89948 26.4419 7.66971C26.7968 6.93098 27.2226 6.2444 27.7815 5.64038C28.4602 4.906 29.272 4.46276 30.3277 4.54533C30.9798 4.59313 31.6363 4.56271 32.2794 4.65831C32.9359 4.75825 33.5791 4.9538 34.0981 5.41442C34.2002 5.50567 34.3776 5.5274 34.524 5.56216C35.4111 5.75337 35.9301 6.61377 35.6241 7.45679C35.5043 7.7827 35.3002 8.08688 35.1272 8.39106C35.003 8.60833 34.8567 8.80823 34.6881 9.0733C35.145 8.88644 35.5265 8.71263 35.9168 8.57357C36.0898 8.51273 36.2894 8.49535 36.4713 8.50839C37.1145 8.55184 37.4206 8.90383 37.3984 9.53826C37.3851 9.95543 37.3629 10.3769 37.3718 10.7941C37.3895 11.7501 37.1367 12.6235 36.5955 13.4188C36.4624 13.6143 36.3249 13.8055 36.2273 14.0619C36.3515 13.9967 36.4757 13.9402 36.5955 13.8663C37.5315 13.2841 38.5118 12.8147 39.6074 12.5975C40.5523 12.4106 41.4793 12.3976 42.3976 12.7322C43.4089 13.1015 43.9944 13.8707 43.9767 14.9266C43.9678 15.6219 44.1142 16.2607 44.438 16.8691C44.8106 17.573 45.0546 18.2944 44.8284 19.1026C44.784 19.2591 44.7973 19.4416 44.8239 19.6067C44.9038 20.1455 44.6909 20.5844 44.305 20.919C43.7771 21.3753 43.2049 21.7751 42.6415 22.1923C42.4552 22.3313 42.2512 22.4443 42.0693 22.6051C42.8278 22.3965 43.573 22.4356 44.3005 22.6789C44.6066 22.7832 44.9127 22.9179 45.1788 23.0961C45.7422 23.4742 46.0571 23.9913 45.9329 24.7083C46.1059 24.8213 46.2789 24.9038 46.412 25.0255C46.7047 25.3036 47.0374 25.5687 47.2459 25.8989C47.5564 26.39 47.41 26.8462 46.8555 27.0505C46.2833 27.2591 45.6712 27.4025 45.0679 27.485C44.3626 27.585 43.644 27.5893 42.9299 27.724C43.6618 27.7892 44.3892 27.8544 45.1211 27.9239C45.751 27.9848 46.3854 28.0543 47.0108 28.1325C47.1616 28.1499 47.3124 28.2064 47.4544 28.2672C47.9911 28.4888 48.0798 28.7061 47.9246 29.2493L47.9335 29.2319Z" fill="white"/>
<path d="M47.4633 28.2492C47.3214 28.1927 47.1705 28.1362 47.0197 28.1145C46.3898 28.0363 45.7599 27.9711 45.1301 27.9059C44.4026 27.8364 43.6707 27.7712 42.9388 27.706C43.6574 27.5757 44.376 27.567 45.0768 27.467C45.6801 27.3801 46.2922 27.2411 46.8645 27.0325C47.4189 26.8282 47.5653 26.372 47.2548 25.8809C47.0463 25.5463 46.7136 25.2813 46.4209 25.0075C46.2878 24.8815 46.1148 24.7989 45.9418 24.6903C46.066 23.9733 45.7511 23.4518 45.1877 23.0781C44.9216 22.8999 44.6155 22.7652 44.3094 22.6609C43.582 22.4176 42.8367 22.3785 42.0782 22.5871C42.2601 22.4263 42.4641 22.309 42.6504 22.1743C43.2094 21.7571 43.786 21.353 44.3139 20.901C44.6998 20.5664 44.9127 20.1275 44.8329 19.5887C44.8062 19.4236 44.7929 19.2411 44.8373 19.0846C45.0635 18.2764 44.824 17.555 44.4469 16.8511C44.1231 16.2427 43.9767 15.6039 43.9856 14.9086C43.9989 13.857 43.4178 13.0879 42.4065 12.7142C41.4927 12.3796 40.5612 12.3926 39.6163 12.5795C38.5207 12.7967 37.5404 13.266 36.6044 13.8483C36.4891 13.9222 36.3604 13.9787 36.2362 14.0439C36.3338 13.7919 36.4713 13.5963 36.6044 13.4008C37.1456 12.6055 37.3984 11.7321 37.3807 10.7761C37.3718 10.3589 37.394 9.93742 37.4073 9.52026C37.4295 8.88582 37.1234 8.52949 36.4802 8.49038C36.2983 8.47735 36.0987 8.49473 35.9257 8.55557C35.5354 8.69462 35.1539 8.86409 34.697 9.05529C34.87 8.79022 35.012 8.59033 35.1362 8.37306C35.3136 8.06453 35.5176 7.76469 35.633 7.43878C35.939 6.59576 35.4201 5.73971 34.5329 5.54416C34.3865 5.51374 34.2091 5.49201 34.107 5.39641C33.5881 4.93579 32.9449 4.74025 32.2884 4.6403C31.6496 4.54036 30.9887 4.57512 30.3366 4.52732C29.2853 4.4491 28.4736 4.88799 27.7904 5.62238C27.2315 6.2264 26.8013 6.91733 26.4508 7.65171C25.8609 8.88148 25.5548 10.1895 25.3197 11.5192C25.2665 11.819 25.2088 12.1188 25.1511 12.4187C25.0314 12.3361 25.0047 12.2666 25.0003 12.1927C24.9293 11.354 24.8672 10.5154 24.7918 9.6767C24.6676 8.28615 24.4103 6.91298 24.051 5.56154C23.6962 4.21879 23.2349 2.9195 22.4364 1.75491C21.9219 1.00749 21.2609 0.438238 20.3693 0.160128C19.908 0.0167281 19.4422 -0.0745266 18.9543 0.0688737C18.5639 0.181856 16.7053 1.35079 16.4126 1.72015C15.348 3.04552 14.9975 4.53601 15.379 6.18294C15.6585 7.39533 16.1996 8.49907 16.8029 9.58109C17.3441 10.5545 17.8586 11.5496 18.3776 12.536C18.4264 12.6316 18.453 12.7402 18.493 12.8445C18.3244 12.7533 18.2179 12.6273 18.1159 12.5012C17.526 11.7756 16.9626 11.0281 16.346 10.3242C15.1439 8.951 13.8575 7.66475 12.3183 6.64356C11.542 6.12645 10.717 5.71363 9.78102 5.58327C8.79626 5.44856 8.21517 5.47463 7.65182 6.62618C7.62077 6.68702 7.60303 6.75654 7.56311 6.80869C7.43447 6.98251 7.32357 7.1824 7.15945 7.31711C6.81345 7.60391 6.63158 7.96024 6.51625 8.38175C6.30333 9.15959 6.47633 9.88962 6.77797 10.5936C7.21711 11.6191 7.90466 12.4795 8.72085 13.2443C9.66125 14.1265 10.7347 14.8174 11.8481 15.4605C12.0167 15.5605 12.1808 15.6647 12.3494 15.7647C12.336 15.7864 12.3272 15.8081 12.3139 15.8299C12.2207 15.8038 12.1231 15.7908 12.03 15.756C10.3266 15.1129 8.58778 14.5958 6.76466 14.4089C5.51376 14.2829 4.25842 14.2438 3.0297 14.5697C2.36433 14.7479 1.7167 14.9912 1.17553 15.4257C0.762995 15.756 0.501282 16.1341 0.607741 16.7294C0.700894 17.2595 0.931556 17.6767 1.28199 18.0591C2.46635 19.3454 4.00114 19.9059 5.70893 20.0797C7.24373 20.2362 8.78739 20.3448 10.3222 20.5056C10.9654 20.5708 11.5997 20.7098 12.2385 20.8141C11.9013 20.8793 11.5775 20.8445 11.2537 20.8315C10.1536 20.8011 9.05798 20.8663 7.96233 21.0097C6.38761 21.2096 4.86613 21.6093 3.38013 22.1395C2.68814 22.3872 2.11148 22.8043 1.61911 23.3388C1.2465 23.743 1.03358 24.2079 1.04245 24.7555C1.04245 25.0075 1.04245 25.2595 1.04245 25.5116C0.847276 25.6463 0.665407 25.7723 0.479103 25.894C0.137545 26.1199 -0.0620674 26.4154 0.0177774 26.8326C0.239568 28.0232 0.678715 29.0792 1.88969 29.6441C1.92962 29.6615 1.94736 29.718 1.99172 29.7788C1.53926 30.1525 1.31747 30.6218 1.35296 31.2041C1.35739 31.3171 1.31304 31.4344 1.26868 31.5431C1.06907 32.0558 1.06019 32.5903 1.03358 33.1292C1.00253 33.907 1.33522 34.485 1.88082 35.0021C2.17359 35.2802 2.44417 35.5887 2.6837 35.9146C3.02526 36.3709 3.44667 36.6794 4.00558 36.8228C4.69757 36.9966 5.33189 36.8054 5.9529 36.549C6.14808 36.4708 6.33882 36.3709 6.534 36.284C6.40979 36.6446 6.21018 36.9228 6.08598 37.2313C5.95734 37.5528 5.85088 37.9048 5.83314 38.2481C5.80652 38.6957 5.8908 39.152 5.90411 39.6039C5.91742 40.0906 6.07711 40.5165 6.50738 40.7685C7.09291 41.1161 7.69175 41.4507 8.31276 41.7288C8.75191 41.9244 9.19549 42.0982 9.56366 42.4154C9.90965 42.7153 10.3222 42.8456 10.7879 42.8717C12.1542 42.9499 13.3873 42.5892 14.4564 41.7766C15.175 41.2335 15.8004 40.5773 16.4658 39.9689C16.6077 39.8386 16.7319 39.6952 16.865 39.5561C16.8916 39.5778 16.9182 39.5952 16.9449 39.6169C16.8473 39.7864 16.7497 39.9559 16.6477 40.1254C16.0666 41.1292 15.5653 42.159 15.4722 43.328C15.3879 44.3752 15.6141 45.3312 16.3904 46.1134C16.519 46.2438 16.6477 46.3915 16.7319 46.5523C17.3663 47.743 18.7769 47.9689 19.8548 47.4909C20.0721 47.3953 20.2939 47.2997 20.5201 47.1954C21.4206 47.504 22.1259 47.1867 22.7469 46.548C23.3945 45.8788 23.9091 45.1313 24.2684 44.2796C24.4325 43.8972 24.5745 43.5018 24.7519 43.0629C24.8096 43.5887 24.8451 44.0537 24.916 44.5143C25.0668 45.4703 25.3507 46.3785 25.9185 47.1911C26.3932 47.8733 27.613 48.2557 28.3981 47.7603C28.6554 47.5996 29.0103 47.53 29.3252 47.5213C30.0172 47.4996 30.6515 47.2997 31.2282 46.9651C31.8758 46.5871 32.2795 46.0309 32.4569 45.2921C32.59 44.7533 32.4436 44.2536 32.3771 43.7451C32.2972 43.1542 32.1553 42.5675 32.04 41.9765C32.2573 42.2112 32.386 42.4806 32.5368 42.737C32.9094 43.3627 33.2731 43.9928 33.6768 44.5968C33.9252 44.9662 34.28 45.24 34.7458 45.3399C35.3313 45.4703 35.766 45.1922 35.8548 44.6055C35.8903 44.3752 35.8858 44.1362 35.8681 43.9059C35.837 43.4627 35.7927 43.0238 35.7439 42.5154C36.1564 42.976 36.5157 43.3758 36.8395 43.7321C37.3008 43.7669 37.6823 43.8581 38.0461 43.806C38.7247 43.7147 39.2615 43.3497 39.6075 42.7544C39.7849 42.4458 39.9047 42.1026 40.1043 41.8114C40.2906 41.5376 40.5124 41.2421 40.7918 41.0857C41.3153 40.7902 41.4173 40.3513 41.3774 39.8473C41.3108 39.0173 41.0491 38.2351 40.6676 37.4877C39.8204 35.8407 38.6937 34.4024 37.252 33.2161C36.2762 32.4122 35.2426 31.6865 34.2357 30.926C34.0937 30.8174 33.9562 30.7087 33.8187 30.6001C34.0228 30.5827 34.178 30.6349 34.3333 30.6914C36.8528 31.6256 39.3635 32.6034 42.0782 32.8728C43.6086 33.0249 45.0547 32.7772 46.4031 32.0385C47.1217 31.643 47.5387 31.026 47.7206 30.2481C47.8004 29.9048 47.8448 29.5529 47.9424 29.2139C48.0976 28.6664 48.0089 28.4534 47.4722 28.2318L47.4633 28.2492ZM37.4783 13.6745C38.5606 13.0835 39.7095 12.6924 40.9604 12.7272C41.4483 12.7402 41.954 12.8489 42.4065 13.0227C43.2271 13.3356 43.7062 13.9526 43.715 14.8435C43.7239 15.6865 43.9058 16.473 44.3183 17.2161C44.6421 17.7984 44.7308 18.4198 44.5711 19.0759C44.5357 19.2193 44.5179 19.3888 44.5578 19.5279C44.6732 19.9363 44.5135 20.2666 44.2473 20.5447C43.9457 20.8619 43.613 21.1618 43.2626 21.4312C41.7677 22.561 40.0644 23.2693 38.2324 23.6561C36.6576 23.9907 35.0829 24.3166 33.4905 24.5425C31.5165 24.825 29.516 24.8163 27.5199 24.7641C27.4888 24.7641 27.4578 24.7424 27.4666 24.7468C27.1029 24.1645 26.7525 23.6126 26.3976 23.052C28.0566 22.2264 29.4006 20.9532 30.7048 19.6235C31.8226 18.4806 32.9449 17.3377 34.0849 16.2123C35.0962 15.2128 36.2229 14.3611 37.4827 13.6745H37.4783ZM26.6327 29.2139C25.9673 29.3399 25.3862 29.0922 24.8805 28.6664C24.6588 28.4795 24.4325 28.2927 24.1752 28.1623C23.1905 27.6669 22.6271 26.8674 22.361 25.8375C22.2324 25.3377 22.0549 24.8467 21.9219 24.347C21.8509 24.0732 21.7932 23.7864 21.7977 23.5083C21.8021 22.6696 22.2723 22.1482 23.1107 22.2612C24.2906 22.4219 25.4971 22.6262 26.3665 23.5648C26.5262 23.7386 26.7081 23.9211 26.7879 24.1297C27.0718 24.8684 27.5553 25.4768 28.0034 26.1156C28.2784 26.511 28.5224 26.9152 28.4292 27.3627C28.4558 28.7055 27.7239 29.014 26.6327 29.2226V29.2139ZM25.0314 20.8793C25.0402 20.7794 25.0713 20.6794 25.0713 20.5795C25.089 18.8109 25.1467 17.0423 25.1068 15.2737C25.0846 14.3524 25.1955 13.4659 25.3995 12.5795C25.679 11.3845 25.9097 10.1808 26.2335 8.9988C26.4996 8.03411 26.9654 7.14329 27.582 6.34372C27.8215 6.0352 28.0876 5.7484 28.376 5.48332C28.895 4.99663 29.5248 4.76198 30.2523 4.7837C30.8201 4.80108 31.3923 4.77501 31.9557 4.82716C32.7186 4.89668 33.4239 5.14003 34.0494 5.69625C34.1603 5.72667 34.3244 5.76578 34.4885 5.81358C35.3491 6.07431 35.6951 6.81738 35.2692 7.60391C34.9587 8.1862 34.5684 8.72504 34.2179 9.2856C34.0982 9.48115 33.9873 9.68104 33.872 9.88093C33.8986 9.90701 33.9207 9.92873 33.9474 9.95046C34.0405 9.90701 34.1425 9.8679 34.2313 9.81141C34.5551 9.59413 34.8744 9.35948 35.2027 9.14655C35.5664 8.91189 35.9568 8.74677 36.4092 8.76415C36.9726 8.78588 37.252 9.11178 37.1899 9.65497C37.15 10.02 37.0879 10.3937 37.1101 10.7544C37.1855 11.9363 36.7464 12.9401 36.01 13.8223C35.5221 14.4089 34.972 14.9434 34.4309 15.4822C33.038 16.8858 31.6319 18.272 30.2435 19.6756C29.272 20.6577 28.2562 21.592 27.0896 22.3524C26.7746 22.5567 26.442 22.7348 26.1359 22.913C25.6834 22.7087 25.3108 22.5436 24.9072 22.3611C24.9471 21.8744 24.987 21.379 25.0269 20.8793H25.0314ZM17.1046 9.51157C16.519 8.42086 15.9601 7.3258 15.6673 6.11776C15.2947 4.5925 15.6363 3.21934 16.59 1.98088C16.8739 1.61151 17.2243 1.32471 17.6812 1.16828C17.8365 1.11179 17.9873 1.01184 18.1026 0.894512C18.7902 0.190547 19.593 0.12971 20.4669 0.486038C21.221 0.794566 21.7932 1.31168 22.2368 1.97653C22.9776 3.08897 23.4256 4.32308 23.7627 5.60065C24.1974 7.26496 24.4636 8.95535 24.6144 10.6675C24.8096 12.8489 24.8805 15.039 24.8894 17.2248C24.8939 18.5241 24.8362 19.819 24.7874 21.1183C24.7741 21.5137 24.6987 21.9092 24.6454 22.3437C24.2374 22.2134 23.8647 22.096 23.4256 21.9526C23.3768 21.8397 23.2925 21.6789 23.2304 21.5094C22.4408 19.4192 21.4383 17.429 20.2362 15.5387C19.939 15.0694 19.6995 14.561 19.4422 14.0656C18.6615 12.549 17.9074 11.0151 17.1001 9.51157H17.1046ZM10.1403 14.0439C8.98257 13.2356 7.98894 12.2579 7.30583 11.0151C6.97758 10.4198 6.71587 9.79837 6.71587 9.1031C6.71587 8.45127 6.87999 7.87333 7.45221 7.46051C7.58529 7.36491 7.66513 7.20413 7.75828 7.06507C7.81595 6.98251 7.84256 6.87822 7.88692 6.79131C8.40591 5.73971 8.82732 5.73101 9.79876 5.86572C10.5706 5.97436 11.267 6.31765 11.9235 6.73047C13.0591 7.44747 14.066 8.31657 14.9798 9.28126C18.4087 12.8967 21.1633 16.9293 22.982 21.5528C23.0264 21.6615 23.0574 21.7701 23.1151 21.9483C22.7469 22.0091 22.4453 22.0569 22.0949 22.1134C21.8464 21.8744 21.6025 21.5876 21.3097 21.3573C19.2382 19.7147 17.1933 18.0374 14.7536 16.9119C14.1991 16.6555 13.689 16.3035 13.17 15.9776C12.1586 15.3432 11.1251 14.7261 10.1492 14.0439H10.1403ZM2.04051 15.2345C3.14503 14.6914 4.32939 14.5567 5.54481 14.5914C8.64988 14.687 11.4888 15.7256 14.2435 17.0118C15.3258 17.5159 16.3416 18.1547 17.384 18.737C17.5481 18.8282 17.6901 18.9499 17.8187 19.1194C17.7344 19.0977 17.6457 19.0846 17.5659 19.0499C16.2662 18.4936 14.8911 18.1982 13.4982 18.007C11.0053 17.6637 8.59222 17.0509 6.25898 16.1297C5.30084 15.7517 4.31165 15.4692 3.27367 15.4127C2.83452 15.391 2.39094 15.4779 1.94736 15.517C1.84977 15.5257 1.75218 15.5387 1.65459 15.5474C1.64572 15.5213 1.63242 15.4953 1.62354 15.4735C1.76105 15.3953 1.89856 15.3041 2.04495 15.2345H2.04051ZM11.1162 20.3883C10.3754 20.2622 9.61689 20.2188 8.87167 20.1145C7.31026 19.8972 5.71781 19.9363 4.18301 19.5192C3.10954 19.2237 2.21794 18.6457 1.46385 17.8505C1.12673 17.4985 0.900505 17.0944 0.873891 16.5947C0.851711 16.2253 0.953735 16.0471 1.32634 15.9255C2.42199 15.5735 3.52651 15.5691 4.61772 15.9124C5.79321 16.2775 6.96427 16.6772 8.12646 17.0857C9.67012 17.6289 11.267 17.92 12.8772 18.1808C14.6737 18.4676 16.4614 18.7935 18.1204 19.58C18.8656 19.932 19.5797 20.3274 20.2141 20.8619C20.773 21.3356 21.3452 21.7918 21.9307 22.2742C21.7932 22.5132 21.6956 22.6914 21.5759 22.8999C21.4339 22.8652 21.2875 22.8435 21.1456 22.7913C18.7369 21.9222 16.2263 21.4442 13.7289 20.9314C12.8595 20.7533 11.9945 20.5447 11.1162 20.3926V20.3883ZM1.83646 29.3312C1.52596 29.2269 1.30417 29.0488 1.15778 28.7533C1.06019 28.5577 0.922684 28.3839 0.794046 28.2058C0.501282 27.8147 0.372643 27.3671 0.30167 26.8934C0.244004 26.5284 0.390386 26.2764 0.692022 26.0808C0.904941 25.9418 1.11342 25.7984 1.31747 25.6593C1.31747 25.4464 1.33078 25.2595 1.31747 25.077C1.25537 24.4687 1.43724 23.9472 1.85864 23.504C2.33328 22.9999 2.88332 22.6045 3.54425 22.3741C5.28309 21.7745 7.05742 21.3486 8.90272 21.1878C11.6041 20.9488 14.2568 21.266 16.8739 21.8657C18.3244 22.196 19.7439 22.6696 21.1722 23.0781C21.2698 23.1042 21.3629 23.1476 21.425 23.1737C21.5271 23.7473 21.6247 24.2861 21.7267 24.8597C21.5936 24.8858 21.4295 24.9423 21.2654 24.9467C18.3643 25.0987 15.5653 25.7636 12.8284 26.6675C10.6948 27.3714 8.58778 28.1406 6.46302 28.8619C5.49158 29.1878 4.51126 29.5181 3.46441 29.5398C2.90993 29.5529 2.36876 29.5051 1.8409 29.3182L1.83646 29.3312ZM4.53788 36.6142C3.86363 36.636 3.36239 36.3274 2.94985 35.8234C2.63935 35.4453 2.31553 35.0759 1.96954 34.7283C1.3707 34.1286 1.13117 33.4333 1.28642 32.6077C1.40619 31.982 1.52596 31.3562 1.65903 30.7348C1.77436 30.2003 2.29335 29.7788 2.83896 29.8179C4.36044 29.9222 5.74442 29.4138 7.1417 28.9445C9.49269 28.1536 11.8392 27.3323 14.1947 26.5545C15.8537 26.007 17.5659 25.6463 19.2958 25.3899C20.0233 25.2813 20.7597 25.2291 21.496 25.1596C21.6291 25.1465 21.7666 25.1683 21.944 25.177C21.984 25.4029 22.0194 25.6115 22.0638 25.8896C21.6779 26.2546 21.3053 26.6457 20.8883 26.9934C19.0253 28.5577 16.9626 29.831 14.8024 30.9521C13.3918 31.6865 11.9856 32.4295 10.5795 33.1726C9.42615 33.7853 8.38373 34.5371 7.41229 35.4149C6.62271 36.1275 5.65127 36.5838 4.53788 36.6186V36.6142ZM14.7181 41.2899C13.7511 42.0808 12.6377 42.5284 11.3957 42.6631C10.7791 42.7283 10.2157 42.5849 9.70117 42.2068C9.31969 41.9287 8.88054 41.7288 8.46358 41.5072C7.90466 41.2117 7.33244 40.9423 6.78684 40.6294C6.35656 40.3817 6.16582 39.9863 6.18357 39.4779C6.19687 39.1476 6.14808 38.8087 6.10816 38.4741C6.05936 38.0743 6.14364 37.7049 6.33438 37.353C6.97758 36.1666 7.88249 35.1889 9.01805 34.4676C10.3266 33.6332 11.7062 32.9075 13.068 32.1558C14.31 31.4692 15.5875 30.8391 16.8207 30.1351C18.7014 29.0662 20.458 27.8277 22.0017 26.3198C22.0239 26.2981 22.0594 26.2938 22.1658 26.2503C22.4586 27.0933 22.9598 27.7582 23.6917 28.2449C23.6252 28.4187 23.5853 28.5447 23.5321 28.6664C22.2013 31.6778 20.5734 34.5284 18.5861 37.1661C17.455 38.6696 16.1908 40.0776 14.7136 41.2856L14.7181 41.2899ZM24.3793 43.1455C24.0377 44.3839 23.4079 45.479 22.4852 46.4002C21.9884 46.8956 21.4383 47.1824 20.6798 46.9738C20.4713 46.913 20.183 47.0433 19.9568 47.1433C19.5443 47.3215 19.1362 47.4605 18.6704 47.4475C18.0139 47.4301 17.526 47.1476 17.1356 46.6523C16.8872 46.335 16.6166 46.0265 16.3815 45.7006C15.867 44.9879 15.6363 44.1927 15.7428 43.3193C15.8625 42.3155 16.2263 41.3856 16.763 40.5382C17.5969 39.2215 18.4664 37.9266 19.3491 36.6446C21.0746 34.1417 22.5961 31.5344 23.7583 28.7272C23.8026 28.6186 23.8603 28.5143 23.949 28.3274C24.8096 28.9488 25.5459 29.7136 26.7303 29.479C26.7436 29.731 26.7569 29.9092 26.7702 30.0873C26.9077 32.1819 26.4242 34.1938 25.9363 36.2101C25.5681 37.731 25.2532 39.2606 24.9116 40.7815C24.7386 41.5681 24.5922 42.3633 24.3793 43.1368V43.1455ZM35.562 44.6273C35.4555 45.0097 35.1495 45.2096 34.7857 45.0531C34.4797 44.9228 34.1692 44.7272 33.9651 44.4795C33.6147 44.0493 33.3175 43.5713 33.0425 43.0846C32.692 42.4676 32.3948 41.8201 32.0577 41.1944C31.969 41.0292 31.8315 40.8902 31.7117 40.7424C31.6673 40.7555 31.6186 40.7728 31.5698 40.7859C31.5653 40.951 31.5298 41.1248 31.5609 41.2856C31.7561 42.3242 31.969 43.3627 32.1642 44.4013C32.3372 45.3356 31.9202 46.2221 31.0685 46.7174C30.5318 47.0303 29.9551 47.2085 29.3164 47.2476C28.9526 47.2693 28.549 47.3432 28.2473 47.53C27.5775 47.9385 26.6016 47.6908 26.1403 47.052C25.7677 46.5393 25.5326 45.9657 25.3596 45.3573C24.9648 43.9841 25.0003 42.5936 25.1556 41.1987C25.404 38.9695 26.0915 36.8315 26.5839 34.6501C26.89 33.2986 27.094 31.9385 27.0452 30.5523C27.0319 30.2003 26.9831 29.8527 26.9521 29.4833C27.1073 29.4094 27.196 29.366 27.2936 29.3269C27.3868 29.2878 27.4844 29.2574 27.6263 29.2096C27.8259 29.3921 28.0566 29.5702 28.2429 29.7788C30.0483 31.7734 31.7206 33.8679 33.0868 36.184C33.9341 37.6224 34.4575 39.1867 34.9188 40.7728C35.1362 41.5159 35.3225 42.2633 35.491 43.0194C35.5753 43.3932 35.5975 43.7842 35.6285 44.171C35.6374 44.3187 35.6019 44.4708 35.562 44.6186V44.6273ZM37.3408 33.6941C38.6272 34.7804 39.6163 36.1232 40.3926 37.6093C40.7386 38.2742 40.9737 38.9738 41.0979 39.7082C41.1777 40.1992 41.1201 40.6425 40.5745 40.8989C40.2063 41.0727 39.9889 41.4073 39.8071 41.7593C39.6474 42.0591 39.5232 42.3807 39.3236 42.6501C38.8756 43.2758 38.3122 43.706 37.4561 43.4974C37.3275 43.467 37.1855 43.4801 37.0214 43.4714C36.5334 43.1107 36.1919 42.6588 35.9435 42.159C35.6374 41.542 35.3269 40.9119 35.1273 40.2557C34.2889 37.5268 32.9271 35.0716 31.1572 32.825C30.1592 31.5561 29.1922 30.2655 28.0034 29.14C28.234 28.7924 28.4647 28.4491 28.7264 28.058C28.8683 28.1188 29.0502 28.1971 29.2276 28.2796C32.2662 29.605 34.8523 31.5822 37.3452 33.6854L37.3408 33.6941ZM47.2326 30.7652C47.0685 31.265 46.6604 31.5996 46.1991 31.8559C45.2853 32.3644 44.2961 32.6164 43.2493 32.6642C41.537 32.7381 39.9135 32.3122 38.3033 31.8168C35.7927 31.0433 33.3441 30.1221 31.033 28.8576C30.3011 28.4578 29.5204 28.1362 28.6732 27.7408C28.9304 26.6718 28.1897 25.9505 27.5908 25.0553C27.888 25.0553 28.0655 25.0553 28.2429 25.0553C29.5337 25.0205 30.8245 25.0423 32.1109 24.938C34.6305 24.7337 37.1057 24.2861 39.5365 23.5865C40.5523 23.291 41.5858 23.026 42.6194 22.8C43.5465 22.6001 44.3937 22.8739 45.1345 23.4214C45.4894 23.6865 45.7112 24.0428 45.6579 24.5165C45.6446 24.6164 45.6668 24.7163 45.6757 24.8554C45.8442 24.9727 46.0394 25.0814 46.2035 25.2248C46.4608 25.4464 46.7358 25.655 46.9354 25.9244C47.2326 26.3285 47.1484 26.6066 46.6915 26.8109C46.3987 26.9412 46.0793 27.0281 45.7644 27.102C44.9393 27.2889 44.101 27.3236 43.2537 27.3106C42.6194 27.2976 41.9895 27.3106 41.3774 27.3106C41.2709 27.5887 41.4395 27.6452 41.5858 27.6756C42.1403 27.7929 42.6904 27.9276 43.2493 27.9928C44.3227 28.1188 45.4006 28.1927 46.4741 28.31C46.9133 28.3578 47.3613 28.4317 47.7428 28.8185C47.5786 29.4572 47.4367 30.1265 47.2238 30.7739L47.2326 30.7652Z" fill="#FAD676"/>
<path d="M22.6448 22.2922C20.3427 18.0554 16.8162 14.8571 13.2276 11.6154C15.8935 12.9973 22.4364 20.3976 22.6448 22.2922Z" fill="#FAD676"/>
<path d="M22.1836 25.8903C17.9296 28.1412 13.5958 30.227 9.01361 31.7914C11.2182 30.8354 13.4406 29.9185 15.6185 28.9104C17.801 27.9022 19.9435 26.8028 22.1037 25.7425C22.1303 25.7903 22.1569 25.8381 22.1836 25.8903Z" fill="#FAD676"/>
<path d="M21.3186 8.95599C21.6867 10.0337 22.0771 11.107 22.4142 12.1934C23.0441 14.2314 23.5808 16.2955 23.9313 18.3987C24.1176 19.5242 24.1664 20.667 24.2684 21.8055C24.2817 21.9576 24.2418 22.1141 24.1619 22.2705C23.9978 19.9935 23.6607 17.7556 23.1106 15.5481C22.5606 13.3406 21.9573 11.1461 21.1988 8.99076C21.2431 8.97772 21.2831 8.96468 21.3274 8.95599H21.3186Z" fill="#FAD676"/>
<path d="M25.5193 22.7311C25.7632 22.3313 26.0383 21.9446 26.2512 21.5274C26.9166 20.2368 27.5597 18.9332 28.2074 17.6382C29.1389 15.7827 30.066 13.9272 31.0019 12.0717C31.0995 11.8761 31.2193 11.6936 31.3879 11.5285C31.3169 11.6893 31.2548 11.8501 31.1794 12.0065C29.8131 14.8484 28.4513 17.6947 27.0629 20.5323C26.7613 21.1537 26.3754 21.736 26.0116 22.327C25.9007 22.5051 25.7411 22.6572 25.6035 22.8224C25.5725 22.7963 25.5459 22.7659 25.5148 22.7398L25.5193 22.7311Z" fill="#FAD676"/>
<path d="M38.4941 19.3721C38.3654 19.4633 38.2412 19.5633 38.1037 19.6458C34.8966 21.484 31.5698 23.0614 27.959 23.9913C27.5908 24.0869 27.2271 24.2303 26.8234 24.0782C30.9754 23.1266 34.7369 21.2667 38.4941 19.3764V19.3721Z" fill="#FAD676"/>
<path d="M15.002 35.2417C17.5792 32.5866 20.3427 30.1141 22.7336 27.2895C22.7735 27.3156 22.8134 27.346 22.8489 27.3721C22.7824 27.4894 22.7336 27.6198 22.6493 27.7197C21.9041 28.5541 21.1899 29.4275 20.387 30.2053C18.7192 31.8305 16.9981 33.4079 15.2992 35.0027C15.206 35.0896 15.0995 35.1592 15.002 35.2374V35.2417Z" fill="#FAD676"/>
<path d="M29.4494 18.6507C30.2567 17.6035 31.0552 16.5562 31.8669 15.5133C33.0735 13.9576 34.3776 12.4802 35.8104 11.1157C36.1431 10.7985 36.5068 10.516 36.8617 10.2249C36.9459 10.1553 37.0613 10.1249 37.2698 10.0206C37.1012 10.4812 36.7375 10.6029 36.5024 10.8376C36.2628 11.0766 36.0055 11.3025 35.7616 11.5372C35.5043 11.7849 35.2559 12.0413 35.0075 12.2977C34.7591 12.554 34.5151 12.8148 34.2711 13.0755C34.0272 13.3362 33.7832 13.5969 33.5437 13.862C33.3174 14.1141 33.0956 14.3704 32.8739 14.6268C32.6432 14.8962 32.4125 15.17 32.1863 15.4438C31.9601 15.7175 31.7383 15.9956 31.5121 16.2738C31.2903 16.5519 31.064 16.8256 30.8422 17.1037C30.6293 17.3688 30.4208 17.6339 30.2124 17.899C29.9906 18.1771 29.7732 18.4552 29.5514 18.7289C29.5204 18.6985 29.4849 18.6681 29.4538 18.642L29.4494 18.6507Z" fill="#FAD676"/>
<path d="M29.1611 11.4633C28.1541 14.5269 27.1561 17.5948 26.1358 20.654C25.9495 21.2102 25.6568 21.7317 25.4039 22.2662C25.3374 22.4052 25.2354 22.5225 25.1466 22.6486C25.1112 22.6312 25.0801 22.6095 25.0446 22.5921C25.0712 22.5182 25.0845 22.4443 25.12 22.3748C26.0515 20.5106 26.6504 18.5247 27.2847 16.5562C27.8081 14.9223 28.3848 13.3102 28.9393 11.685C28.9703 11.5894 29.0235 11.5024 29.0635 11.4112C29.0945 11.4286 29.13 11.446 29.1611 11.4633Z" fill="#FAD676"/>
<path d="M10.402 18.264C10.9698 18.377 11.5376 18.4682 12.1009 18.5986C14.5539 19.1809 16.9449 19.9326 19.2426 20.9625C19.9878 21.2971 20.6842 21.7403 21.3984 22.1445C21.5847 22.2488 21.7444 22.3965 21.8775 22.5834C21.3807 22.453 21.0125 22.1097 20.5734 21.8924C20.1165 21.6621 19.6684 21.4057 19.2071 21.1885C18.7458 20.9712 18.2712 20.7713 17.7921 20.5845C17.2997 20.3889 16.8029 20.2064 16.3017 20.0326C15.8182 19.8631 15.3302 19.711 14.8378 19.5546C14.3499 19.3981 13.862 19.2417 13.3696 19.0983C12.8772 18.9549 12.3848 18.8159 11.888 18.6898C11.3912 18.5638 10.8944 18.4552 10.3976 18.3422C10.3976 18.3161 10.3976 18.29 10.3976 18.264H10.402Z" fill="#FAD676"/>
<path d="M21.8641 39.522C22.9509 35.9891 24.4236 32.5866 25.2354 28.9756C25.395 29.5274 25.2176 30.0489 25.0757 30.5443C24.2062 33.5253 23.1594 36.4541 21.9795 39.3308C21.9529 39.396 21.9041 39.4568 21.8686 39.522H21.8641Z" fill="#FAD676"/>
<path d="M10.1447 42.6768C10.9077 42.0511 11.7017 41.4601 12.4203 40.7909C13.1522 40.1086 13.8309 39.3656 14.5007 38.6225C15.1705 37.8794 15.7959 37.1059 16.519 36.3976C16.3681 36.6062 16.2218 36.8191 16.0621 37.0234C14.993 38.4052 13.8841 39.7567 12.611 40.9647C12.0077 41.5383 11.3246 42.025 10.6726 42.5421C10.5395 42.6464 10.3665 42.7072 10.2112 42.7898C10.1891 42.755 10.1669 42.7159 10.1403 42.6812L10.1447 42.6768Z" fill="#FAD676"/>
<path d="M10.8766 25.5687C14.3721 24.5562 17.8897 23.6654 21.5892 24.3172C20.3826 24.3172 19.1716 24.2564 17.9695 24.3346C16.7763 24.4128 15.5875 24.591 14.412 24.7996C13.2276 25.0082 12.0566 25.308 10.8811 25.5687H10.8766Z" fill="#FAD676"/>
<path d="M23.3501 31.4481C22.148 34.9679 20.4314 38.2357 18.4397 41.3775C20.2185 38.1314 21.9839 34.8854 23.3501 31.4481Z" fill="#FAD676"/>
<path d="M12.8106 34.2901C11.6484 35.3895 6.89323 38.4226 6.21455 38.579C6.11696 38.3661 6.3077 38.3227 6.42747 38.2488C8.24172 37.1277 10.056 36.0065 11.8702 34.8854C12.1852 34.6899 12.5001 34.49 12.815 34.2901H12.8106Z" fill="#FAD676"/>
<path d="M34.1248 34.742C32.2928 32.5432 30.4341 30.3705 28.1187 28.6149C28.1497 28.5758 28.1763 28.5367 28.2074 28.4976C28.3671 28.5888 28.5489 28.654 28.682 28.7757C29.6135 29.623 30.5761 30.44 31.4411 31.3482C32.3149 32.2694 33.0912 33.2819 33.9074 34.2596C34.0139 34.3857 34.0981 34.5334 34.1957 34.6681C34.1735 34.6898 34.1514 34.7159 34.1248 34.7376V34.742Z" fill="#FAD676"/>
<path d="M37.7932 27.4503C34.2889 27.6241 29.3873 27.2069 28.4558 26.6073C29.5648 26.7594 30.5584 26.9158 31.5609 27.0244C32.5811 27.1374 33.6102 27.2156 34.6349 27.2852C35.664 27.3547 36.6931 27.3938 37.7932 27.4459V27.4503Z" fill="#FAD676"/>
<path d="M22.2678 22.2879C21.873 21.9924 21.7399 21.6013 21.5004 21.2971C21.2609 20.9886 21.0346 20.667 20.7951 20.3628C20.5423 20.0413 20.285 19.7284 20.0188 19.4199C19.7527 19.1113 19.4821 18.8072 19.2071 18.503C18.9321 18.1988 18.6526 17.9033 18.3776 17.6035C18.1114 17.3167 17.8453 17.0299 17.5747 16.7474C17.2952 16.4519 17.0069 16.1651 16.6964 15.8479C17.8542 16.4085 21.8908 21.0538 22.2678 22.2966V22.2879Z" fill="#FAD676"/>
<path d="M30.0527 37.1624C29.1744 34.4769 28.4691 31.7306 27.1428 29.1146C27.44 29.2015 27.5154 29.3971 27.5908 29.5622C27.9456 30.3965 28.3449 31.2222 28.6243 32.0826C29.1344 33.6643 29.5692 35.2678 30.0305 36.8626C30.0571 36.9582 30.0482 37.0625 30.0527 37.1581V37.1624Z" fill="#FAD676"/>
<path d="M44.3404 16.9647C44.2739 17.069 44.2207 17.1863 44.1319 17.2689C43.8702 17.5122 43.6085 17.7643 43.3158 17.9641C41.812 19.0071 40.2062 19.8588 38.4674 20.4715C40.4547 19.3634 42.5572 18.4421 44.2207 16.843C44.2606 16.8821 44.3005 16.9212 44.3404 16.9603V16.9647Z" fill="#FAD676"/>
<path d="M39.115 14.1401C36.6931 16.1086 34.4175 18.2596 31.7471 19.9283L39.0441 14.0576C39.0662 14.0836 39.0884 14.114 39.115 14.1401Z" fill="#FAD676"/>
<path d="M28.4025 47.5785C28.3626 47.4438 28.3227 47.3786 28.3316 47.3264C28.6332 45.497 28.4247 43.6676 28.3404 41.8425C28.3183 41.3384 28.3404 40.8343 28.3759 40.3259C28.4513 40.9908 28.5622 41.6513 28.5977 42.3161C28.6598 43.5937 28.6909 44.8713 28.7131 46.1532C28.7175 46.5356 28.651 46.9223 28.6022 47.3047C28.5933 47.3829 28.5046 47.4481 28.407 47.5785H28.4025Z" fill="#FAD676"/>
<path d="M23.0973 40.5866C23.0796 41.8251 21.2742 46.4356 20.5556 47.031C20.6044 46.5052 20.9548 46.1749 21.119 45.7708C21.2875 45.3493 21.4827 44.9365 21.6513 44.5149C21.8242 44.076 21.9795 43.6328 22.1436 43.1939C22.3033 42.7681 22.463 42.3422 22.6183 41.9207C22.7735 41.4992 22.9243 41.0733 23.1018 40.591L23.0973 40.5866Z" fill="#FAD676"/>
<path d="M21.6335 23.0266C19.3845 21.61 16.8472 20.8409 14.2966 19.9544C15.8004 19.9631 21.0125 22.1445 21.6335 23.0266Z" fill="#FAD676"/>
<path d="M19.7749 8.08256C18.6615 6.14883 17.4993 4.14123 16.346 2.12493C16.3327 2.09886 16.3771 2.03802 16.3948 1.99457C16.9449 2.35524 19.5531 7.10483 19.7749 8.08256Z" fill="#FAD676"/>
<path d="M33.0779 20.5323C31.1173 21.9272 29.0812 23.1787 26.7613 23.8914C26.7435 23.8566 26.7258 23.8218 26.7036 23.7871C27.7904 23.2787 28.8949 22.8007 29.9639 22.2575C31.0197 21.7186 32.0399 21.1146 33.0779 20.5367V20.5323Z" fill="#FAD676"/>
<path d="M45.8398 24.6996C45.0768 25.2776 40.641 25.8642 38.6005 25.7338C40.987 25.4557 43.4444 25.2689 45.8398 24.6996Z" fill="#FAD676"/>
<path d="M35.5708 29.6187C38.6315 30.3444 41.7366 30.5573 44.8727 30.4487C41.71 30.8267 38.6182 30.4487 35.5708 29.6187Z" fill="#FAD676"/>
<path d="M27.4267 11.7936C27.3823 10.2553 29.0679 5.32751 29.9196 4.59747C29.8176 5.08851 29.476 5.47526 29.303 5.94022C29.13 6.41388 28.9038 6.86581 28.7308 7.33946C28.5534 7.82615 28.4026 8.32588 28.2517 8.82126C28.1098 9.30361 27.9812 9.7903 27.8481 10.2726C27.7106 10.7724 27.5686 11.2678 27.4222 11.7936H27.4267Z" fill="#FAD676"/>
<path d="M1.486 31.4829C1.92071 31.4047 2.31994 31.3656 2.70142 31.2613C4.41364 30.805 6.12143 30.3314 7.83366 29.8664C7.89576 29.849 7.9623 29.8403 8.05545 29.8968C7.8381 29.975 7.62074 30.0663 7.39895 30.1315C5.74883 30.6182 4.0987 31.1048 2.4397 31.5785C1.99169 31.7045 1.82756 31.6698 1.48157 31.4829H1.486Z" fill="#FAD676"/>
<path d="M7.27472 24.2825C6.5783 24.4302 5.87744 24.5693 5.18102 24.7344C4.48459 24.8952 3.79261 25.0994 3.09618 25.2515C2.41307 25.3993 1.79205 25.7773 1.09563 25.8729C1.08232 25.8381 1.06458 25.8034 1.05127 25.7686C1.13999 25.7078 1.22427 25.6339 1.32185 25.5948C2.67478 25.056 4.0765 24.6953 5.51814 24.4693C6.09923 24.3781 6.6892 24.3172 7.27472 24.239C7.27472 24.2564 7.27472 24.2694 7.27472 24.2868V24.2825Z" fill="#FAD676"/>
<path d="M28.5977 27.3156C31.4677 28.189 34.4175 28.6323 37.3407 28.9582C36.0055 29.1407 29.6845 28.0022 28.5977 27.3156Z" fill="#FAD676"/>
<path d="M22.1303 16.1868C22.8667 17.4557 23.9534 21.623 23.7449 22.4008C23.4877 21.2754 23.2748 20.2411 23.0086 19.22C22.7425 18.2031 22.4275 17.1993 22.1347 16.1868H22.1303Z" fill="#FAD676"/>
<path d="M37.0213 36.6279C38.3166 37.8186 40.1442 40.6431 40.0599 41.3601C39.8381 40.9603 39.6252 40.5562 39.3901 40.1608C39.1461 39.7566 38.8844 39.3612 38.6227 38.9658C38.361 38.5703 38.0859 38.1836 37.8198 37.7925C37.5536 37.4014 37.2875 37.0147 37.0169 36.6236L37.0213 36.6279Z" fill="#FAD676"/>
<path d="M28.4824 28.0891C28.651 28.176 28.8462 28.2368 28.9925 28.3498C29.7954 28.9799 30.6072 29.6057 31.3834 30.2705C31.9911 30.792 32.5501 31.3656 33.0912 31.9566C31.5076 30.7355 30.1281 29.2711 28.3981 28.2238C28.4292 28.176 28.4558 28.1325 28.4869 28.0847L28.4824 28.0891Z" fill="#FAD676"/>
<path d="M6.30772 8.97338C7.07068 8.95165 10.7968 11.0157 11.7948 12.0152C11.3512 11.7458 10.9121 11.4764 10.4685 11.2113C10.0294 10.9506 9.58579 10.6898 9.13777 10.4378C8.67645 10.1771 8.20625 9.93372 7.74049 9.68169C7.30578 9.44703 6.8134 9.32101 6.30328 8.97772L6.30772 8.97338Z" fill="#FAD676"/>
<path d="M23.4965 10.9984C23.1683 9.72518 22.7868 8.4563 22.2634 7.23522C21.7399 6.01849 21.181 4.81915 20.6576 3.60242C21.9706 5.92724 23.0308 8.34766 23.4921 10.9984H23.4965Z" fill="#FAD676"/>
<path d="M12.4913 9.25151C12.0078 8.90822 11.5243 8.56058 11.0363 8.22598C10.5306 7.87834 10.0338 7.51767 9.50596 7.2048C9.00472 6.90931 8.47242 6.66596 7.98004 6.31832C8.06432 6.31832 8.16191 6.29225 8.23288 6.32267C8.60993 6.48345 8.99584 6.6312 9.34184 6.83978C10.4818 7.52636 11.5553 8.3042 12.4913 9.25151Z" fill="#FAD676"/>
<path d="M37.425 9.16461C35.8414 10.0467 34.8478 11.4938 33.5126 12.6062C33.6324 12.4585 33.7433 12.3064 33.8719 12.1717C34.5905 11.4025 35.3003 10.6247 36.0366 9.87292C36.2939 9.60784 36.6177 9.40361 36.9193 9.18199C37.0524 9.08204 37.2032 9.00382 37.425 9.16461Z" fill="#FAD676"/>
<path d="M0.980286 28.9278C1.03352 28.6192 1.27749 28.515 1.49484 28.3976C2.64815 27.7632 3.88575 27.3286 5.16326 27.0027C5.32295 26.9636 5.48708 26.9375 5.65564 26.9202C4.07649 27.5372 2.43967 28.0283 0.980286 28.9321V28.9278Z" fill="#FAD676"/>
<path d="M22.1702 25.4036C20.356 25.9642 18.6127 26.503 16.8517 27.0462C18.0494 26.3552 21.3807 25.3123 22.1702 25.4036Z" fill="#FAD676"/>
<path d="M28.2029 26.0641C30.0527 26.1684 31.8669 26.2683 33.4062 26.3509C31.7738 26.5421 28.784 26.4117 28.2029 26.0641Z" fill="#FAD676"/>
<path d="M16.204 23.535C18.1203 23.1961 19.8858 23.4481 21.6557 23.6524C21.6557 23.7089 21.6512 23.7654 21.6468 23.8218C21.0746 23.761 20.5023 23.6915 19.9257 23.648C19.3269 23.6002 18.728 23.5611 18.1292 23.5437C17.5304 23.5264 16.9271 23.5437 16.204 23.5437V23.535Z" fill="#FAD676"/>
<path d="M26.544 25.3688C26.5173 25.3297 26.4774 25.295 26.4641 25.2559C26.2201 24.4954 25.6878 24.0217 24.9338 23.748C24.6188 23.635 24.3083 23.4742 24.051 23.2656C23.6873 22.9788 23.2748 23.057 22.8578 23.031C23.1372 22.7963 23.6341 22.7268 23.9534 22.9788C24.4591 23.3743 25.0668 23.5568 25.6124 23.8566C26.2068 24.1869 26.5306 24.704 26.6637 25.3297C26.6238 25.3428 26.5839 25.3558 26.544 25.3688Z" fill="#FAD676"/>
<path d="M16.6077 46.1749C17.3352 44.9756 18.0627 43.7762 18.8478 42.4769C18.5817 43.3938 17.1755 45.8447 16.7231 46.2358C16.6831 46.214 16.6476 46.1966 16.6077 46.1749Z" fill="#FAD676"/>
<path d="M23.1328 27.7023C23.0795 28.2455 21.2431 30.6138 20.5733 31.0527C21.425 29.9359 22.2767 28.8191 23.1328 27.7023Z" fill="#FAD676"/>
<path d="M12.2517 39.7089C11.4489 40.6866 10.5262 41.534 9.42169 42.2249C9.43944 42.1554 9.435 42.0598 9.47936 42.0206C10.3976 41.2472 11.3247 40.478 12.2517 39.7089Z" fill="#FAD676"/>
<path d="M25.0135 33.4297C25.3107 32.0521 25.6035 30.6746 25.914 29.2406C26.087 29.736 25.5592 32.252 25.0135 33.4297Z" fill="#FAD676"/>
<path d="M4.51567 31.8479C3.53092 32.2955 2.48407 32.5953 1.39286 32.73C1.33075 32.7387 1.25978 32.6518 1.14001 32.5779C2.30664 32.3259 3.41115 32.0869 4.51567 31.8479Z" fill="#FAD676"/>
<path d="M40.9027 40.9647C40.2772 40.0174 39.6873 39.1222 39.0973 38.2227C39.7183 38.7528 40.1708 39.4133 40.6055 40.0869C40.7519 40.3085 40.8672 40.5519 40.987 40.7909C41.0003 40.8169 40.947 40.8691 40.8982 40.9647H40.9027Z" fill="#FAD676"/>
<path d="M45.8176 23.9783C44.6953 24.3954 43.5287 24.6301 42.3311 24.7213C43.4799 24.4172 44.6288 24.1173 45.7733 23.8131C45.7866 23.8653 45.7999 23.9218 45.8176 23.9739V23.9783Z" fill="#FAD676"/>
<path d="M42.3532 19.4242C43.1117 18.8115 43.8703 18.2032 44.6776 17.5513C44.5489 18.0467 43.5731 18.8376 42.3532 19.4242Z" fill="#FAD676"/>
<path d="M29.4449 47.4655C29.5026 46.4791 29.5558 45.5318 29.6046 44.667C29.853 45.8707 29.7909 47.1657 29.4449 47.4655Z" fill="#FAD676"/>
<path d="M15.7383 2.97229C16.1686 3.17653 17.069 4.47148 17.2908 5.17544C16.7541 4.45409 16.1686 3.76316 15.7383 2.97229Z" fill="#FAD676"/>
<path d="M0.629883 28.0673C1.34849 27.5068 2.18686 27.2113 3.08733 27.0375C2.29331 27.4199 1.49487 27.7979 0.700856 28.1803C0.678677 28.1412 0.656498 28.1065 0.629883 28.0673Z" fill="#FAD676"/>
<path d="M2.82117 35.6806C3.00304 35.4286 4.15635 34.8289 4.87939 34.6116C4.44911 35.0375 3.2337 35.6719 2.82117 35.6806Z" fill="#FAD676"/>
<path d="M27.094 26.4421C27.9457 26.9506 27.8791 28.1586 27.0674 28.7583C27.6529 28.0413 27.6973 27.2982 27.094 26.4421Z" fill="#FAD676"/>
<path d="M8.6587 10.8637C8.0155 10.6203 7.37674 10.377 6.65814 10.0989C7.1239 9.9946 7.8913 10.2857 8.6587 10.8637Z" fill="#FAD676"/>
</g>
<defs>
<clipPath id="clip0_391_67">
<rect width="48" height="48" fill="white"/>
</clipPath>
</defs>
</svg>
