<svg width="48" height="48" viewBox="0 0 48 48" fill="none" xmlns="http://www.w3.org/2000/svg">
<path d="M9.33333 34.3333C8.94815 34.3333 8.62963 34.2074 8.37778 33.9556C8.12593 33.7037 8 33.3852 8 33C8 32.6148 8.12593 32.2963 8.37778 32.0444C8.62963 31.7926 8.94815 31.6667 9.33333 31.6667H38.6667C39.0519 31.6667 39.3704 31.7926 39.6222 32.0444C39.8741 32.2963 40 32.6148 40 33C40 33.3852 39.8741 33.7037 39.6222 33.9556C39.3704 34.2074 39.0519 34.3333 38.6667 34.3333H9.33333ZM9.33333 25C8.94815 25 8.62963 24.8741 8.37778 24.6222C8.12593 24.3704 8 24.0519 8 23.6667C8 23.2815 8.12593 22.963 8.37778 22.7111C8.62963 22.4593 8.94815 22.3333 9.33333 22.3333H38.6667C39.0519 22.3333 39.3704 22.4593 39.6222 22.7111C39.8741 22.963 40 23.2815 40 23.6667C40 24.0519 39.8741 24.3704 39.6222 24.6222C39.3704 24.8741 39.0519 25 38.6667 25H9.33333ZM9.33333 15.6667C8.94815 15.6667 8.62963 15.5407 8.37778 15.2889C8.12593 15.037 8 14.7185 8 14.3333C8 13.9481 8.12593 13.6296 8.37778 13.3778C8.62963 13.1259 8.94815 13 9.33333 13H38.6667C39.0519 13 39.3704 13.1259 39.6222 13.3778C39.8741 13.6296 40 13.9481 40 14.3333C40 14.7185 39.8741 15.037 39.6222 15.2889C39.3704 15.5407 39.0519 15.6667 38.6667 15.6667H9.33333Z" fill="#FF3D33"/>
</svg>
