<svg width="48" height="48" viewBox="0 0 48 48" fill="none" xmlns="http://www.w3.org/2000/svg">
<path d="M33.5563 14.4589C32.9647 13.8673 32.0091 13.8673 31.4175 14.4589L24 21.8612L16.5825 14.4437C15.9909 13.8521 15.0353 13.8521 14.4437 14.4437C13.8521 15.0353 13.8521 15.9909 14.4437 16.5825L21.8612 24L14.4437 31.4175C13.8521 32.0091 13.8521 32.9647 14.4437 33.5563C15.0353 34.1479 15.9909 34.1479 16.5825 33.5563L24 26.1388L31.4175 33.5563C32.0091 34.1479 32.9647 34.1479 33.5563 33.5563C34.1479 32.9647 34.1479 32.0091 33.5563 31.4175L26.1388 24L33.5563 16.5825C34.1327 16.0061 34.1327 15.0353 33.5563 14.4589Z" fill="#F08984"/>
</svg>
